SplineFontDB: 3.0
FontName: FontAwesome
FullName: FontAwesome Regular
FamilyName: FontAwesome
Weight: Book
Copyright: SIL Open Font License 1.1
Version: 3.2.0 2013
ItalicAngle: 0
UnderlinePosition: -49
UnderlineWidth: 50
Ascent: 857
Descent: 143
sfntRevision: 0x00030083
LayerCount: 2
Layer: 0 1 "Back"  1
Layer: 1 1 "Fore"  0
XUID: [1021 728 864395542 8932848]
FSType: 4
OS2Version: 3
OS2_WeightWidthSlopeOnly: 0
OS2_UseTypoMetrics: 1
CreationTime: 1328468400
ModificationTime: 1462959484
PfmFamily: 81
TTFWeight: 400
TTFWidth: 5
LineGap: 0
VLineGap: 0
Panose: 0 0 0 0 0 0 0 0 0 0
OS2TypoAscent: 857
OS2TypoAOffset: 0
OS2TypoDescent: -143
OS2TypoDOffset: 0
OS2TypoLinegap: 0
OS2WinAscent: 857
OS2WinAOffset: 0
OS2WinDescent: 162
OS2WinDOffset: 0
HheadAscent: 857
HheadAOffset: 0
HheadDescent: -162
HheadDOffset: 0
OS2SubXSize: 650
OS2SubYSize: 600
OS2SubXOff: 0
OS2SubYOff: 75
OS2SupXSize: 650
OS2SupYSize: 600
OS2SupXOff: 0
OS2SupYOff: 350
OS2StrikeYSize: 50
OS2StrikeYPos: 600
OS2Vendor: 'pyrs'
OS2CodePages: 00000001.00000000
OS2UnicodeRanges: 00000000.00000000.00000000.00000000
DEI: 91125
ShortTable: maxp 16
  1
  0
  391
  532
  20
  0
  0
  2
  0
  1
  1
  0
  64
  0
  0
  0
EndShort
LangName: 1033 "" "" "Regular" "FONTLAB:OTFEXPORT" "" "Version 3.2.0 2013" "" "Please refer to the Copyright section for the font trademark attribution notices." "Fort Awesome" "Dave Gandy" "" "http://fontawesome.io" 
GaspTable: 1 65535 15 1
Encoding: UnicodeBmp
UnicodeInterp: none
NameList: Adobe Glyph List
DisplaySize: -24
AntiAlias: 1
FitToEm: 1
WinInfo: 61472 16 4
BeginChars: 65539 391

StartChar: .notdef
Encoding: 65536 -1 0
Width: 500
Flags: W
LayerCount: 2
Fore
SplineSet
125 62 m 1,0,-1
 375 62 l 1,1,-1
 375 795 l 1,2,-1
 125 795 l 1,3,-1
 125 62 l 1,0,-1
62 0 m 1,4,-1
 62 857 l 1,5,-1
 438 857 l 1,6,-1
 438 0 l 1,7,-1
 62 0 l 1,4,-1
EndSplineSet
EndChar

StartChar: uniE000
Encoding: 57344 57344 26
Width: 279
Flags: W
LayerCount: 2
Fore
SplineSet
0 0 m 0,0,-1
EndSplineSet
EndChar

StartChar: glass
Encoding: 61440 61440 27
Width: 1000
Flags: W
LayerCount: 2
Fore
SplineSet
948 753 m 0,0,1
 948 733 948 733 924 710 c 2,2,-1
 571 357 l 1,3,-1
 571 -71 l 1,4,-1
 750 -71 l 2,5,6
 765 -71 765 -71 775.5 -82 c 128,-1,7
 786 -93 786 -93 786 -107.5 c 128,-1,8
 786 -122 786 -122 775.5 -132.5 c 128,-1,9
 765 -143 765 -143 750 -143 c 2,10,-1
 250 -143 l 2,11,12
 235 -143 235 -143 224.5 -132.5 c 128,-1,13
 214 -122 214 -122 214 -107.5 c 128,-1,14
 214 -93 214 -93 224.5 -82 c 128,-1,15
 235 -71 235 -71 250 -71 c 2,16,-1
 429 -71 l 1,17,-1
 429 357 l 1,18,-1
 76 710 l 2,19,20
 52 734 52 734 52 753 c 0,21,22
 52 766 52 766 62 773.5 c 128,-1,23
 72 781 72 781 83 783.5 c 128,-1,24
 94 786 94 786 107 786 c 2,25,-1
 893 786 l 2,26,27
 906 786 906 786 917 783.5 c 128,-1,28
 928 781 928 781 938 773.5 c 128,-1,29
 948 766 948 766 948 753 c 0,0,1
EndSplineSet
EndChar

StartChar: music
Encoding: 61441 61441 28
Width: 857
Flags: W
LayerCount: 2
Fore
SplineSet
857 732 m 2,0,-1
 857 107 l 2,1,2
 857 79 857 79 838 57.5 c 128,-1,3
 819 36 819 36 790 24 c 128,-1,4
 761 12 761 12 732.5 6 c 128,-1,5
 704 0 704 0 678.5 0 c 128,-1,6
 653 0 653 0 624.5 6 c 128,-1,7
 596 12 596 12 567 24 c 128,-1,8
 538 36 538 36 519 57.5 c 128,-1,9
 500 79 500 79 500 107 c 128,-1,10
 500 135 500 135 519 157 c 128,-1,11
 538 179 538 179 567 191 c 128,-1,12
 596 203 596 203 624.5 208.5 c 128,-1,13
 653 214 653 214 679 214 c 0,14,15
 738 214 738 214 786 193 c 1,16,-1
 786 492 l 1,17,-1
 357 360 l 1,18,-1
 357 -36 l 2,19,20
 357 -64 357 -64 338 -85.5 c 128,-1,21
 319 -107 319 -107 290 -119 c 128,-1,22
 261 -131 261 -131 232.5 -137 c 128,-1,23
 204 -143 204 -143 178.5 -143 c 128,-1,24
 153 -143 153 -143 124.5 -137 c 128,-1,25
 96 -131 96 -131 67 -119 c 128,-1,26
 38 -107 38 -107 19 -85.5 c 128,-1,27
 0 -64 0 -64 0 -36 c 128,-1,28
 0 -8 0 -8 19 14 c 128,-1,29
 38 36 38 36 67 48 c 128,-1,30
 96 60 96 60 124.5 65.5 c 128,-1,31
 153 71 153 71 179 71 c 0,32,33
 238 71 238 71 286 50 c 1,34,-1
 286 589 l 2,35,36
 286 606 286 606 296.5 620.5 c 128,-1,37
 307 635 307 635 324 641 c 2,38,-1
 788 783 l 2,39,40
 795 785 795 785 804 786 c 1,41,42
 826 786 826 786 841.5 770 c 128,-1,43
 857 754 857 754 857 732 c 2,0,-1
EndSplineSet
EndChar

StartChar: search
Encoding: 61442 61442 29
Width: 928
Flags: W
LayerCount: 2
Fore
SplineSet
643 393 m 128,-1,1
 643 496 643 496 569.5 569.5 c 128,-1,2
 496 643 496 643 393 643 c 128,-1,3
 290 643 290 643 216.5 569.5 c 128,-1,4
 143 496 143 496 143 393 c 128,-1,5
 143 290 143 290 216.5 216.5 c 128,-1,6
 290 143 290 143 393 143 c 128,-1,7
 496 143 496 143 569.5 216.5 c 128,-1,0
 643 290 643 290 643 393 c 128,-1,1
929 -71 m 0,8,9
 929 -100 929 -100 907.5 -121.5 c 128,-1,10
 886 -143 886 -143 857 -143 c 0,11,12
 827 -143 827 -143 807 -122 c 2,13,-1
 616 69 l 1,14,15
 516 0 516 0 393 0 c 0,16,17
 313 0 313 0 240 31 c 128,-1,18
 167 62 167 62 114.5 114.5 c 128,-1,19
 62 167 62 167 31 240 c 128,-1,20
 0 313 0 313 0 393 c 128,-1,21
 0 473 0 473 31 545.5 c 128,-1,22
 62 618 62 618 114.5 671 c 128,-1,23
 167 724 167 724 240 755 c 128,-1,24
 313 786 313 786 393 786 c 128,-1,25
 473 786 473 786 545.5 755 c 128,-1,26
 618 724 618 724 671 671 c 128,-1,27
 724 618 724 618 755 545.5 c 128,-1,28
 786 473 786 473 786 393 c 0,29,30
 786 270 786 270 717 170 c 1,31,-1
 908 -21 l 2,32,33
 929 -41 929 -41 929 -71 c 0,8,9
EndSplineSet
EndChar

StartChar: envelope
Encoding: 61443 61443 30
Width: 1000
Flags: W
LayerCount: 2
Fore
SplineSet
929 18 m 2,0,-1
 929 446 l 1,1,2
 911 426 911 426 890 410 c 0,3,4
 740 295 740 295 652 221 c 0,5,6
 624 197 624 197 606 183.5 c 128,-1,7
 588 170 588 170 557.5 156.5 c 128,-1,8
 527 143 527 143 501 143 c 2,9,-1
 500 143 l 1,10,-1
 499 143 l 2,11,12
 472 143 472 143 442 156.5 c 128,-1,13
 412 170 412 170 394 183.5 c 128,-1,14
 376 197 376 197 348 221 c 0,15,16
 260 295 260 295 110 410 c 0,17,18
 89 427 89 427 71 446 c 1,19,-1
 71 18 l 2,20,21
 71 11 71 11 76.5 5.5 c 128,-1,22
 82 0 82 0 89 0 c 2,23,-1
 911 0 l 2,24,25
 918 0 918 0 923.5 5.5 c 128,-1,26
 929 11 929 11 929 18 c 2,0,-1
929 604 m 0,27,28
 929 605 929 605 929 610.5 c 128,-1,29
 929 616 929 616 929 618.5 c 128,-1,30
 929 621 929 621 928.5 625.5 c 128,-1,31
 928 630 928 630 926.5 632 c 128,-1,32
 925 634 925 634 923.5 637 c 128,-1,33
 922 640 922 640 918.5 641.5 c 128,-1,34
 915 643 915 643 911 643 c 2,35,-1
 89 643 l 2,36,37
 82 643 82 643 76.5 637.5 c 128,-1,38
 71 632 71 632 71 625 c 0,39,40
 71 531 71 531 153 467 c 0,41,42
 261 382 261 382 377 290 c 0,43,44
 380 287 380 287 396.5 273 c 128,-1,45
 413 259 413 259 422.5 252 c 128,-1,46
 432 245 432 245 447.5 234.5 c 128,-1,47
 463 224 463 224 475.5 219 c 128,-1,48
 488 214 488 214 499 214 c 2,49,-1
 500 214 l 1,50,-1
 501 214 l 2,51,52
 512 214 512 214 524.5 219 c 128,-1,53
 537 224 537 224 552.5 234.5 c 128,-1,54
 568 245 568 245 577.5 252 c 128,-1,55
 587 259 587 259 603 273 c 128,-1,56
 619 287 619 287 623 290 c 0,57,58
 739 382 739 382 847 467 c 0,59,60
 877 491 877 491 903 531 c 128,-1,61
 929 571 929 571 929 604 c 0,27,28
1000 625 m 2,62,-1
 1000 18 l 2,63,64
 1000 -19 1000 -19 974 -45 c 128,-1,65
 948 -71 948 -71 911 -71 c 2,66,-1
 89 -71 l 2,67,68
 52 -71 52 -71 26 -45 c 128,-1,69
 0 -19 0 -19 0 18 c 2,70,-1
 0 625 l 2,71,72
 0 662 0 662 26 688 c 128,-1,73
 52 714 52 714 89 714 c 2,74,-1
 911 714 l 2,75,76
 948 714 948 714 974 688 c 128,-1,77
 1000 662 1000 662 1000 625 c 2,62,-1
EndSplineSet
EndChar

StartChar: heart
Encoding: 61444 61444 31
Width: 1000
Flags: W
LayerCount: 2
Fore
SplineSet
500 -71 m 128,-1,1
 485 -71 485 -71 475 -61 c 2,2,-1
 127 275 l 1,3,4
 121 279 121 279 111.5 289 c 128,-1,5
 102 299 102 299 81 325.5 c 128,-1,6
 60 352 60 352 43 380 c 128,-1,7
 26 408 26 408 13 447.5 c 128,-1,8
 0 487 0 487 0 525 c 0,9,10
 0 648 0 648 71 717 c 128,-1,11
 142 786 142 786 267 786 c 0,12,13
 302 786 302 786 337.5 774 c 128,-1,14
 373 762 373 762 404 741.5 c 128,-1,15
 435 721 435 721 457.5 703 c 128,-1,16
 480 685 480 685 500 665 c 1,17,18
 520 685 520 685 542.5 703 c 128,-1,19
 565 721 565 721 596 741.5 c 128,-1,20
 627 762 627 762 663 774 c 128,-1,21
 699 786 699 786 733 786 c 0,22,23
 858 786 858 786 929 716.5 c 128,-1,24
 1000 647 1000 647 1000 525 c 0,25,26
 1000 402 1000 402 872 273 c 1,27,-1
 525 -61 l 2,28,0
 515 -71 515 -71 500 -71 c 128,-1,1
EndSplineSet
EndChar

StartChar: star
Encoding: 61445 61445 32
Width: 928
Flags: W
LayerCount: 2
Fore
SplineSet
929 496 m 0,0,1
 929 484 929 484 914 469 c 2,2,-1
 711 272 l 1,3,-1
 759 -7 l 2,4,5
 760 -11 760 -11 760 -18 c 0,6,7
 760 -30 760 -30 754 -38 c 128,-1,8
 748 -46 748 -46 737 -46 c 128,-1,9
 726 -46 726 -46 715 -40 c 2,10,-1
 464 92 l 1,11,-1
 214 -40 l 2,12,13
 202 -47 202 -47 191 -46 c 1,14,15
 179 -46 179 -46 173.5 -38 c 128,-1,16
 168 -30 168 -30 168 -18 c 0,17,18
 168 -15 168 -15 169 -7 c 2,19,-1
 217 272 l 1,20,-1
 14 469 l 1,21,22
 0 484 0 484 0 496 c 0,23,24
 0 517 0 517 31 522 c 2,25,-1
 311 562 l 1,26,-1
 437 816 l 2,27,28
 448 839 448 839 464.5 839 c 128,-1,29
 481 839 481 839 492 816 c 2,30,-1
 617 562 l 1,31,-1
 897 522 l 2,32,33
 929 517 929 517 929 496 c 0,0,1
EndSplineSet
EndChar

StartChar: star_empty
Encoding: 61446 61446 33
Width: 928
Flags: W
LayerCount: 2
Fore
SplineSet
634 297 m 1,0,-1
 805 463 l 1,1,-1
 570 497 l 1,2,-1
 464 710 l 1,3,-1
 359 497 l 1,4,-1
 123 463 l 1,5,-1
 294 297 l 1,6,-1
 253 62 l 1,7,-1
 464 173 l 1,8,-1
 675 62 l 1,9,-1
 634 297 l 1,0,-1
929 496 m 0,10,11
 929 484 929 484 914 469 c 2,12,-1
 711 272 l 1,13,-1
 759 -7 l 2,14,15
 760 -11 760 -11 760 -18 c 0,16,17
 760 -46 760 -46 737 -46 c 0,18,19
 726 -46 726 -46 715 -40 c 2,20,-1
 464 92 l 1,21,-1
 214 -40 l 2,22,23
 202 -47 202 -47 191 -46 c 1,24,25
 179 -46 179 -46 173.5 -38 c 128,-1,26
 168 -30 168 -30 168 -18 c 0,27,28
 168 -15 168 -15 169 -7 c 2,29,-1
 217 272 l 1,30,-1
 14 469 l 1,31,32
 0 484 0 484 0 496 c 0,33,34
 0 517 0 517 31 522 c 2,35,-1
 311 562 l 1,36,-1
 437 816 l 2,37,38
 448 839 448 839 464.5 839 c 128,-1,39
 481 839 481 839 492 816 c 2,40,-1
 617 562 l 1,41,-1
 897 522 l 2,42,43
 929 517 929 517 929 496 c 0,10,11
EndSplineSet
EndChar

StartChar: user
Encoding: 61447 61447 34
Width: 785
Flags: W
LayerCount: 2
Fore
SplineSet
786 73 m 0,0,1
 786 6 786 6 745 -32.5 c 128,-1,2
 704 -71 704 -71 637 -71 c 2,3,-1
 149 -71 l 2,4,5
 81 -71 81 -71 40.5 -32.5 c 128,-1,6
 0 6 0 6 0 73 c 0,7,8
 0 103 0 103 2 131 c 128,-1,9
 4 159 4 159 10 191.5 c 128,-1,10
 16 224 16 224 24.5 252 c 128,-1,11
 33 280 33 280 48.5 306.5 c 128,-1,12
 64 333 64 333 83.5 352 c 128,-1,13
 103 371 103 371 131 382 c 128,-1,14
 159 393 159 393 193 393 c 0,15,16
 198 393 198 393 216.5 381 c 128,-1,17
 235 369 235 369 258 354 c 128,-1,18
 281 339 281 339 318 327 c 128,-1,19
 355 315 355 315 392.5 315 c 128,-1,20
 430 315 430 315 467 327 c 128,-1,21
 504 339 504 339 527.5 354 c 128,-1,22
 551 369 551 369 569.5 381 c 128,-1,23
 588 393 588 393 593 393 c 0,24,25
 627 393 627 393 655 382 c 128,-1,26
 683 371 683 371 702.5 352 c 128,-1,27
 722 333 722 333 737 306.5 c 128,-1,28
 752 280 752 280 761 252 c 128,-1,29
 770 224 770 224 776 191.5 c 128,-1,30
 782 159 782 159 784 131 c 128,-1,31
 786 103 786 103 786 73 c 0,0,1
607 571.5 m 128,-1,33
 607 483 607 483 544.5 420 c 128,-1,34
 482 357 482 357 393 357 c 128,-1,35
 304 357 304 357 241.5 420 c 128,-1,36
 179 483 179 483 179 571.5 c 128,-1,37
 179 660 179 660 241.5 723 c 128,-1,38
 304 786 304 786 393 786 c 128,-1,39
 482 786 482 786 544.5 723 c 128,-1,32
 607 660 607 660 607 571.5 c 128,-1,33
EndSplineSet
EndChar

StartChar: film
Encoding: 61448 61448 35
Width: 1071
Flags: W
LayerCount: 2
Fore
SplineSet
214 -36 m 2,0,-1
 214 36 l 2,1,2
 214 51 214 51 203.5 61 c 128,-1,3
 193 71 193 71 179 71 c 2,4,-1
 107 71 l 2,5,6
 92 71 92 71 81.5 60.5 c 128,-1,7
 71 50 71 50 71 36 c 2,8,-1
 71 -36 l 2,9,10
 71 -51 71 -51 82 -61 c 128,-1,11
 93 -71 93 -71 107 -71 c 2,12,-1
 179 -71 l 2,13,14
 194 -71 194 -71 204 -61 c 128,-1,15
 214 -51 214 -51 214 -36 c 2,0,-1
214 179 m 2,16,-1
 214 250 l 2,17,18
 214 265 214 265 203.5 275.5 c 128,-1,19
 193 286 193 286 179 286 c 2,20,-1
 107 286 l 2,21,22
 92 286 92 286 81.5 275.5 c 128,-1,23
 71 265 71 265 71 250 c 2,24,-1
 71 179 l 2,25,26
 71 164 71 164 82 153.5 c 128,-1,27
 93 143 93 143 107 143 c 2,28,-1
 179 143 l 2,29,30
 194 143 194 143 204 153.5 c 128,-1,31
 214 164 214 164 214 179 c 2,16,-1
214 393 m 2,32,-1
 214 464 l 2,33,34
 214 479 214 479 203.5 489.5 c 128,-1,35
 193 500 193 500 179 500 c 2,36,-1
 107 500 l 2,37,38
 92 500 92 500 81.5 489.5 c 128,-1,39
 71 479 71 479 71 464 c 2,40,-1
 71 393 l 2,41,42
 71 378 71 378 82 367.5 c 128,-1,43
 93 357 93 357 107 357 c 2,44,-1
 179 357 l 2,45,46
 194 357 194 357 204 367.5 c 128,-1,47
 214 378 214 378 214 393 c 2,32,-1
786 -36 m 2,48,-1
 786 250 l 2,49,50
 786 265 786 265 775.5 275.5 c 128,-1,51
 765 286 765 286 750 286 c 2,52,-1
 321 286 l 2,53,54
 306 286 306 286 296 275.5 c 128,-1,55
 286 265 286 265 286 250 c 2,56,-1
 286 -36 l 2,57,58
 286 -51 286 -51 296.5 -61 c 128,-1,59
 307 -71 307 -71 321 -71 c 2,60,-1
 750 -71 l 2,61,62
 765 -71 765 -71 775.5 -61 c 128,-1,63
 786 -51 786 -51 786 -36 c 2,48,-1
214 607 m 2,64,-1
 214 679 l 2,65,66
 214 694 214 694 203.5 704 c 128,-1,67
 193 714 193 714 179 714 c 2,68,-1
 107 714 l 2,69,70
 92 714 92 714 81.5 703.5 c 128,-1,71
 71 693 71 693 71 679 c 2,72,-1
 71 607 l 2,73,74
 71 592 71 592 82 581.5 c 128,-1,75
 93 571 93 571 107 571 c 2,76,-1
 179 571 l 2,77,78
 194 571 194 571 204 581.5 c 128,-1,79
 214 592 214 592 214 607 c 2,64,-1
1000 -36 m 2,80,-1
 1000 36 l 2,81,82
 1000 51 1000 51 989.5 61 c 128,-1,83
 979 71 979 71 964 71 c 2,84,-1
 893 71 l 2,85,86
 878 71 878 71 867.5 60.5 c 128,-1,87
 857 50 857 50 857 36 c 2,88,-1
 857 -36 l 2,89,90
 857 -51 857 -51 867.5 -61 c 128,-1,91
 878 -71 878 -71 893 -71 c 2,92,-1
 964 -71 l 2,93,94
 979 -71 979 -71 989.5 -61 c 128,-1,95
 1000 -51 1000 -51 1000 -36 c 2,80,-1
786 393 m 2,96,-1
 786 679 l 2,97,98
 786 694 786 694 775.5 704 c 128,-1,99
 765 714 765 714 750 714 c 2,100,-1
 321 714 l 2,101,102
 306 714 306 714 296 703.5 c 128,-1,103
 286 693 286 693 286 679 c 2,104,-1
 286 393 l 2,105,106
 286 378 286 378 296.5 367.5 c 128,-1,107
 307 357 307 357 321 357 c 2,108,-1
 750 357 l 2,109,110
 765 357 765 357 775.5 367.5 c 128,-1,111
 786 378 786 378 786 393 c 2,96,-1
1000 179 m 2,112,-1
 1000 250 l 2,113,114
 1000 265 1000 265 989.5 275.5 c 128,-1,115
 979 286 979 286 964 286 c 2,116,-1
 893 286 l 2,117,118
 878 286 878 286 867.5 275.5 c 128,-1,119
 857 265 857 265 857 250 c 2,120,-1
 857 179 l 2,121,122
 857 164 857 164 867.5 153.5 c 128,-1,123
 878 143 878 143 893 143 c 2,124,-1
 964 143 l 2,125,126
 979 143 979 143 989.5 153.5 c 128,-1,127
 1000 164 1000 164 1000 179 c 2,112,-1
1000 393 m 2,128,-1
 1000 464 l 2,129,130
 1000 479 1000 479 989.5 489.5 c 128,-1,131
 979 500 979 500 964 500 c 2,132,-1
 893 500 l 2,133,134
 878 500 878 500 867.5 489.5 c 128,-1,135
 857 479 857 479 857 464 c 2,136,-1
 857 393 l 2,137,138
 857 378 857 378 867.5 367.5 c 128,-1,139
 878 357 878 357 893 357 c 2,140,-1
 964 357 l 2,141,142
 979 357 979 357 989.5 367.5 c 128,-1,143
 1000 378 1000 378 1000 393 c 2,128,-1
1000 607 m 2,144,-1
 1000 679 l 2,145,146
 1000 694 1000 694 989.5 704 c 128,-1,147
 979 714 979 714 964 714 c 2,148,-1
 893 714 l 2,149,150
 878 714 878 714 867.5 703.5 c 128,-1,151
 857 693 857 693 857 679 c 2,152,-1
 857 607 l 2,153,154
 857 592 857 592 867.5 581.5 c 128,-1,155
 878 571 878 571 893 571 c 2,156,-1
 964 571 l 2,157,158
 979 571 979 571 989.5 581.5 c 128,-1,159
 1000 592 1000 592 1000 607 c 2,144,-1
1071 696 m 2,160,-1
 1071 -54 l 2,161,162
 1071 -91 1071 -91 1045 -117 c 128,-1,163
 1019 -143 1019 -143 982 -143 c 2,164,-1
 89 -143 l 2,165,166
 52 -143 52 -143 26 -116.5 c 128,-1,167
 0 -90 0 -90 0 -54 c 2,168,-1
 0 696 l 2,169,170
 0 733 0 733 26 759.5 c 128,-1,171
 52 786 52 786 89 786 c 2,172,-1
 982 786 l 2,173,174
 1019 786 1019 786 1045 759.5 c 128,-1,175
 1071 733 1071 733 1071 696 c 2,160,-1
EndSplineSet
EndChar

StartChar: th_large
Encoding: 61449 61449 36
Width: 928
Flags: W
LayerCount: 2
Fore
SplineSet
429 286 m 2,0,-1
 429 71 l 2,1,2
 429 42 429 42 407.5 21 c 128,-1,3
 386 0 386 0 357 0 c 2,4,-1
 71 0 l 2,5,6
 42 0 42 0 21 21 c 128,-1,7
 0 42 0 42 0 71 c 2,8,-1
 0 286 l 2,9,10
 0 315 0 315 21 336 c 128,-1,11
 42 357 42 357 71 357 c 2,12,-1
 357 357 l 2,13,14
 386 357 386 357 407.5 336 c 128,-1,15
 429 315 429 315 429 286 c 2,0,-1
429 714 m 2,16,-1
 429 500 l 2,17,18
 429 471 429 471 407.5 450 c 128,-1,19
 386 429 386 429 357 429 c 2,20,-1
 71 429 l 2,21,22
 42 429 42 429 21 450 c 128,-1,23
 0 471 0 471 0 500 c 2,24,-1
 0 714 l 2,25,26
 0 743 0 743 21 764.5 c 128,-1,27
 42 786 42 786 71 786 c 2,28,-1
 357 786 l 2,29,30
 386 786 386 786 407.5 764.5 c 128,-1,31
 429 743 429 743 429 714 c 2,16,-1
929 286 m 2,32,-1
 929 71 l 2,33,34
 929 42 929 42 907.5 21 c 128,-1,35
 886 0 886 0 857 0 c 2,36,-1
 571 0 l 2,37,38
 542 0 542 0 521 21 c 128,-1,39
 500 42 500 42 500 71 c 2,40,-1
 500 286 l 2,41,42
 500 315 500 315 521 336 c 128,-1,43
 542 357 542 357 571 357 c 2,44,-1
 857 357 l 2,45,46
 886 357 886 357 907.5 336 c 128,-1,47
 929 315 929 315 929 286 c 2,32,-1
929 714 m 2,48,-1
 929 500 l 2,49,50
 929 471 929 471 907.5 450 c 128,-1,51
 886 429 886 429 857 429 c 2,52,-1
 571 429 l 2,53,54
 542 429 542 429 521 450 c 128,-1,55
 500 471 500 471 500 500 c 2,56,-1
 500 714 l 2,57,58
 500 743 500 743 521 764.5 c 128,-1,59
 542 786 542 786 571 786 c 2,60,-1
 857 786 l 2,61,62
 886 786 886 786 907.5 764.5 c 128,-1,63
 929 743 929 743 929 714 c 2,48,-1
EndSplineSet
EndChar

StartChar: th
Encoding: 61450 61450 37
Width: 1000
Flags: W
LayerCount: 2
Fore
SplineSet
286 161 m 2,0,-1
 286 54 l 2,1,2
 286 32 286 32 270 16 c 128,-1,3
 254 0 254 0 232 0 c 2,4,-1
 54 0 l 2,5,6
 32 0 32 0 16 15.5 c 128,-1,7
 0 31 0 31 0 54 c 2,8,-1
 0 161 l 2,9,10
 0 183 0 183 15.5 198.5 c 128,-1,11
 31 214 31 214 54 214 c 2,12,-1
 232 214 l 2,13,14
 254 214 254 214 270 198.5 c 128,-1,15
 286 183 286 183 286 161 c 2,0,-1
286 446 m 2,16,-1
 286 339 l 2,17,18
 286 317 286 317 270 301.5 c 128,-1,19
 254 286 254 286 232 286 c 2,20,-1
 54 286 l 2,21,22
 32 286 32 286 16 301.5 c 128,-1,23
 0 317 0 317 0 339 c 2,24,-1
 0 446 l 2,25,26
 0 468 0 468 15.5 484 c 128,-1,27
 31 500 31 500 54 500 c 2,28,-1
 232 500 l 2,29,30
 254 500 254 500 270 484 c 128,-1,31
 286 468 286 468 286 446 c 2,16,-1
643 161 m 2,32,-1
 643 54 l 2,33,34
 643 32 643 32 627.5 16 c 128,-1,35
 612 0 612 0 589 0 c 2,36,-1
 411 0 l 2,37,38
 389 0 389 0 373 15.5 c 128,-1,39
 357 31 357 31 357 54 c 2,40,-1
 357 161 l 2,41,42
 357 183 357 183 372.5 198.5 c 128,-1,43
 388 214 388 214 411 214 c 2,44,-1
 589 214 l 2,45,46
 611 214 611 214 627 198.5 c 128,-1,47
 643 183 643 183 643 161 c 2,32,-1
286 732 m 2,48,-1
 286 625 l 2,49,50
 286 603 286 603 270 587 c 128,-1,51
 254 571 254 571 232 571 c 2,52,-1
 54 571 l 2,53,54
 32 571 32 571 16 587 c 128,-1,55
 0 603 0 603 0 625 c 2,56,-1
 0 732 l 2,57,58
 0 754 0 754 15.5 770 c 128,-1,59
 31 786 31 786 54 786 c 2,60,-1
 232 786 l 2,61,62
 254 786 254 786 270 770 c 128,-1,63
 286 754 286 754 286 732 c 2,48,-1
643 446 m 2,64,-1
 643 339 l 2,65,66
 643 317 643 317 627.5 301.5 c 128,-1,67
 612 286 612 286 589 286 c 2,68,-1
 411 286 l 2,69,70
 389 286 389 286 373 301.5 c 128,-1,71
 357 317 357 317 357 339 c 2,72,-1
 357 446 l 2,73,74
 357 468 357 468 372.5 484 c 128,-1,75
 388 500 388 500 411 500 c 2,76,-1
 589 500 l 2,77,78
 611 500 611 500 627 484 c 128,-1,79
 643 468 643 468 643 446 c 2,64,-1
1000 161 m 2,80,-1
 1000 54 l 2,81,82
 1000 32 1000 32 984.5 16 c 128,-1,83
 969 0 969 0 946 0 c 2,84,-1
 768 0 l 2,85,86
 746 0 746 0 730 15.5 c 128,-1,87
 714 31 714 31 714 54 c 2,88,-1
 714 161 l 2,89,90
 714 183 714 183 730 198.5 c 128,-1,91
 746 214 746 214 768 214 c 2,92,-1
 946 214 l 2,93,94
 968 214 968 214 984 198.5 c 128,-1,95
 1000 183 1000 183 1000 161 c 2,80,-1
643 732 m 2,96,-1
 643 625 l 2,97,98
 643 603 643 603 627.5 587 c 128,-1,99
 612 571 612 571 589 571 c 2,100,-1
 411 571 l 2,101,102
 389 571 389 571 373 587 c 128,-1,103
 357 603 357 603 357 625 c 2,104,-1
 357 732 l 2,105,106
 357 754 357 754 372.5 770 c 128,-1,107
 388 786 388 786 411 786 c 2,108,-1
 589 786 l 2,109,110
 611 786 611 786 627 770 c 128,-1,111
 643 754 643 754 643 732 c 2,96,-1
1000 446 m 2,112,-1
 1000 339 l 2,113,114
 1000 317 1000 317 984.5 301.5 c 128,-1,115
 969 286 969 286 946 286 c 2,116,-1
 768 286 l 2,117,118
 746 286 746 286 730 301.5 c 128,-1,119
 714 317 714 317 714 339 c 2,120,-1
 714 446 l 2,121,122
 714 468 714 468 730 484 c 128,-1,123
 746 500 746 500 768 500 c 2,124,-1
 946 500 l 2,125,126
 968 500 968 500 984 484 c 128,-1,127
 1000 468 1000 468 1000 446 c 2,112,-1
1000 732 m 2,128,-1
 1000 625 l 2,129,130
 1000 603 1000 603 984.5 587 c 128,-1,131
 969 571 969 571 946 571 c 2,132,-1
 768 571 l 2,133,134
 746 571 746 571 730 587 c 128,-1,135
 714 603 714 603 714 625 c 2,136,-1
 714 732 l 2,137,138
 714 754 714 754 730 770 c 128,-1,139
 746 786 746 786 768 786 c 2,140,-1
 946 786 l 2,141,142
 968 786 968 786 984 770 c 128,-1,143
 1000 754 1000 754 1000 732 c 2,128,-1
EndSplineSet
EndChar

StartChar: th_list
Encoding: 61451 61451 38
Width: 1000
Flags: W
LayerCount: 2
Fore
SplineSet
286 161 m 2,0,-1
 286 54 l 2,1,2
 286 32 286 32 270 16 c 128,-1,3
 254 0 254 0 232 0 c 2,4,-1
 54 0 l 2,5,6
 32 0 32 0 16 15.5 c 128,-1,7
 0 31 0 31 0 54 c 2,8,-1
 0 161 l 2,9,10
 0 183 0 183 15.5 198.5 c 128,-1,11
 31 214 31 214 54 214 c 2,12,-1
 232 214 l 2,13,14
 254 214 254 214 270 198.5 c 128,-1,15
 286 183 286 183 286 161 c 2,0,-1
286 446 m 2,16,-1
 286 339 l 2,17,18
 286 317 286 317 270 301.5 c 128,-1,19
 254 286 254 286 232 286 c 2,20,-1
 54 286 l 2,21,22
 32 286 32 286 16 301.5 c 128,-1,23
 0 317 0 317 0 339 c 2,24,-1
 0 446 l 2,25,26
 0 468 0 468 15.5 484 c 128,-1,27
 31 500 31 500 54 500 c 2,28,-1
 232 500 l 2,29,30
 254 500 254 500 270 484 c 128,-1,31
 286 468 286 468 286 446 c 2,16,-1
1000 161 m 2,32,-1
 1000 54 l 2,33,34
 1000 32 1000 32 984.5 16 c 128,-1,35
 969 0 969 0 946 0 c 2,36,-1
 411 0 l 2,37,38
 389 0 389 0 373 15.5 c 128,-1,39
 357 31 357 31 357 54 c 2,40,-1
 357 161 l 2,41,42
 357 183 357 183 372.5 198.5 c 128,-1,43
 388 214 388 214 411 214 c 2,44,-1
 946 214 l 2,45,46
 968 214 968 214 984 198.5 c 128,-1,47
 1000 183 1000 183 1000 161 c 2,32,-1
286 732 m 2,48,-1
 286 625 l 2,49,50
 286 603 286 603 270 587 c 128,-1,51
 254 571 254 571 232 571 c 2,52,-1
 54 571 l 2,53,54
 32 571 32 571 16 587 c 128,-1,55
 0 603 0 603 0 625 c 2,56,-1
 0 732 l 2,57,58
 0 754 0 754 15.5 770 c 128,-1,59
 31 786 31 786 54 786 c 2,60,-1
 232 786 l 2,61,62
 254 786 254 786 270 770 c 128,-1,63
 286 754 286 754 286 732 c 2,48,-1
1000 446 m 2,64,-1
 1000 339 l 2,65,66
 1000 317 1000 317 984.5 301.5 c 128,-1,67
 969 286 969 286 946 286 c 2,68,-1
 411 286 l 2,69,70
 389 286 389 286 373 301.5 c 128,-1,71
 357 317 357 317 357 339 c 2,72,-1
 357 446 l 2,73,74
 357 468 357 468 372.5 484 c 128,-1,75
 388 500 388 500 411 500 c 2,76,-1
 946 500 l 2,77,78
 968 500 968 500 984 484 c 128,-1,79
 1000 468 1000 468 1000 446 c 2,64,-1
1000 732 m 2,80,-1
 1000 625 l 2,81,82
 1000 603 1000 603 984.5 587 c 128,-1,83
 969 571 969 571 946 571 c 2,84,-1
 411 571 l 2,85,86
 389 571 389 571 373 587 c 128,-1,87
 357 603 357 603 357 625 c 2,88,-1
 357 732 l 2,89,90
 357 754 357 754 372.5 770 c 128,-1,91
 388 786 388 786 411 786 c 2,92,-1
 946 786 l 2,93,94
 968 786 968 786 984 770 c 128,-1,95
 1000 754 1000 754 1000 732 c 2,80,-1
EndSplineSet
EndChar

StartChar: ok
Encoding: 61452 61452 39
Width: 1000
Flags: W
LayerCount: 2
Fore
SplineSet
932 541.5 m 128,-1,1
 932 519 932 519 917 503 c 2,2,-1
 513 99 l 1,3,-1
 437 23 l 2,4,5
 421 7 421 7 399 7.5 c 128,-1,6
 377 8 377 8 361 23 c 2,7,-1
 285 99 l 1,8,-1
 83 301 l 2,9,10
 67 317 67 317 67.5 339.5 c 128,-1,11
 68 362 68 362 83 377 c 2,12,-1
 159 453 l 2,13,14
 175 469 175 469 197 469 c 128,-1,15
 219 469 219 469 235 453 c 2,16,-1
 399 289 l 1,17,-1
 765 655 l 2,18,19
 781 671 781 671 803 671 c 128,-1,20
 825 671 825 671 841 655 c 2,21,-1
 917 579 l 2,22,0
 932 564 932 564 932 541.5 c 128,-1,1
EndSplineSet
EndChar

StartChar: remove
Encoding: 61453 61453 40
Width: 785
Flags: W
LayerCount: 2
Fore
SplineSet
724 119.5 m 128,-1,1
 724 97 724 97 709 81 c 2,2,-1
 633 6 l 2,3,4
 617 -10 617 -10 595 -10 c 128,-1,5
 573 -10 573 -10 557 6 c 2,6,-1
 393 170 l 1,7,-1
 229 6 l 2,8,9
 213 -10 213 -10 191 -10 c 128,-1,10
 169 -10 169 -10 153 6 c 2,11,-1
 77 81 l 2,12,13
 61 97 61 97 61 119.5 c 128,-1,14
 61 142 61 142 77 157 c 2,15,-1
 241 321 l 1,16,-1
 77 485 l 2,17,18
 61 501 61 501 61 523.5 c 128,-1,19
 61 546 61 546 77 561 c 2,20,-1
 153 637 l 2,21,22
 169 653 169 653 191 653 c 128,-1,23
 213 653 213 653 229 637 c 2,24,-1
 393 473 l 1,25,-1
 557 637 l 2,26,27
 573 653 573 653 595 653 c 128,-1,28
 617 653 617 653 633 637 c 2,29,-1
 709 561 l 2,30,31
 725 545 725 545 724.5 523 c 128,-1,32
 724 501 724 501 709 485 c 2,33,-1
 545 321 l 1,34,-1
 709 157 l 2,35,0
 724 142 724 142 724 119.5 c 128,-1,1
EndSplineSet
EndChar

StartChar: zoom_in
Encoding: 61454 61454 41
Width: 928
Flags: W
LayerCount: 2
Fore
SplineSet
571 411 m 2,0,-1
 571 375 l 2,1,2
 571 368 571 368 566 362.5 c 128,-1,3
 561 357 561 357 554 357 c 2,4,-1
 429 357 l 1,5,-1
 429 232 l 2,6,7
 429 225 429 225 423.5 219.5 c 128,-1,8
 418 214 418 214 411 214 c 2,9,-1
 375 214 l 2,10,11
 368 214 368 214 362.5 219.5 c 128,-1,12
 357 225 357 225 357 232 c 2,13,-1
 357 357 l 1,14,-1
 232 357 l 2,15,16
 225 357 225 357 219.5 362.5 c 128,-1,17
 214 368 214 368 214 375 c 2,18,-1
 214 411 l 2,19,20
 214 418 214 418 219.5 423.5 c 128,-1,21
 225 429 225 429 232 429 c 2,22,-1
 357 429 l 1,23,-1
 357 554 l 2,24,25
 357 561 357 561 362.5 566 c 128,-1,26
 368 571 368 571 375 571 c 2,27,-1
 411 571 l 2,28,29
 418 571 418 571 423.5 566 c 128,-1,30
 429 561 429 561 429 554 c 2,31,-1
 429 429 l 1,32,-1
 554 429 l 2,33,34
 561 429 561 429 566 423.5 c 128,-1,35
 571 418 571 418 571 411 c 2,0,-1
643 393 m 128,-1,37
 643 496 643 496 569.5 569.5 c 128,-1,38
 496 643 496 643 393 643 c 128,-1,39
 290 643 290 643 216.5 569.5 c 128,-1,40
 143 496 143 496 143 393 c 128,-1,41
 143 290 143 290 216.5 216.5 c 128,-1,42
 290 143 290 143 393 143 c 128,-1,43
 496 143 496 143 569.5 216.5 c 128,-1,36
 643 290 643 290 643 393 c 128,-1,37
929 -71.5 m 128,-1,45
 929 -101 929 -101 908 -122 c 128,-1,46
 887 -143 887 -143 857 -143 c 128,-1,47
 827 -143 827 -143 807 -122 c 2,48,-1
 616 69 l 1,49,50
 516 0 516 0 393 0 c 0,51,52
 313 0 313 0 240 31 c 128,-1,53
 167 62 167 62 114.5 114.5 c 128,-1,54
 62 167 62 167 31 240 c 128,-1,55
 0 313 0 313 0 393 c 128,-1,56
 0 473 0 473 31 545.5 c 128,-1,57
 62 618 62 618 114.5 671 c 128,-1,58
 167 724 167 724 240 755 c 128,-1,59
 313 786 313 786 393 786 c 128,-1,60
 473 786 473 786 545.5 755 c 128,-1,61
 618 724 618 724 671 671 c 128,-1,62
 724 618 724 618 755 545.5 c 128,-1,63
 786 473 786 473 786 393 c 0,64,65
 786 270 786 270 717 170 c 1,66,-1
 908 -21 l 2,67,44
 929 -42 929 -42 929 -71.5 c 128,-1,45
EndSplineSet
EndChar

StartChar: zoom_out
Encoding: 61456 61456 42
Width: 928
Flags: W
LayerCount: 2
Fore
SplineSet
571 411 m 2,0,-1
 571 375 l 2,1,2
 571 368 571 368 566 362.5 c 128,-1,3
 561 357 561 357 554 357 c 2,4,-1
 232 357 l 2,5,6
 225 357 225 357 219.5 362.5 c 128,-1,7
 214 368 214 368 214 375 c 2,8,-1
 214 411 l 2,9,10
 214 418 214 418 219.5 423.5 c 128,-1,11
 225 429 225 429 232 429 c 2,12,-1
 554 429 l 2,13,14
 561 429 561 429 566 423.5 c 128,-1,15
 571 418 571 418 571 411 c 2,0,-1
643 393 m 128,-1,17
 643 496 643 496 569.5 569.5 c 128,-1,18
 496 643 496 643 393 643 c 128,-1,19
 290 643 290 643 216.5 569.5 c 128,-1,20
 143 496 143 496 143 393 c 128,-1,21
 143 290 143 290 216.5 216.5 c 128,-1,22
 290 143 290 143 393 143 c 128,-1,23
 496 143 496 143 569.5 216.5 c 128,-1,16
 643 290 643 290 643 393 c 128,-1,17
929 -71.5 m 128,-1,25
 929 -101 929 -101 908 -122 c 128,-1,26
 887 -143 887 -143 857 -143 c 128,-1,27
 827 -143 827 -143 807 -122 c 2,28,-1
 616 69 l 1,29,30
 516 0 516 0 393 0 c 0,31,32
 313 0 313 0 240 31 c 128,-1,33
 167 62 167 62 114.5 114.5 c 128,-1,34
 62 167 62 167 31 240 c 128,-1,35
 0 313 0 313 0 393 c 128,-1,36
 0 473 0 473 31 545.5 c 128,-1,37
 62 618 62 618 114.5 671 c 128,-1,38
 167 724 167 724 240 755 c 128,-1,39
 313 786 313 786 393 786 c 128,-1,40
 473 786 473 786 545.5 755 c 128,-1,41
 618 724 618 724 671 671 c 128,-1,42
 724 618 724 618 755 545.5 c 128,-1,43
 786 473 786 473 786 393 c 0,44,45
 786 270 786 270 717 170 c 1,46,-1
 908 -21 l 2,47,24
 929 -42 929 -42 929 -71.5 c 128,-1,25
EndSplineSet
EndChar

StartChar: off
Encoding: 61457 61457 43
Width: 857
Flags: W
LayerCount: 2
Fore
SplineSet
857 357 m 0,0,1
 857 270 857 270 823 191 c 128,-1,2
 789 112 789 112 731.5 54.5 c 128,-1,3
 674 -3 674 -3 595 -37 c 128,-1,4
 516 -71 516 -71 429 -71 c 128,-1,5
 342 -71 342 -71 262.5 -37 c 128,-1,6
 183 -3 183 -3 125.5 54.5 c 128,-1,7
 68 112 68 112 34 191 c 128,-1,8
 0 270 0 270 0 357 c 0,9,10
 0 459 0 459 45 548.5 c 128,-1,11
 90 638 90 638 171 699 c 0,12,13
 195 717 195 717 224.5 713 c 128,-1,14
 254 709 254 709 271 685 c 1,15,16
 289 662 289 662 285 632.5 c 128,-1,17
 281 603 281 603 257 585 c 0,18,19
 202 544 202 544 172.5 484.5 c 128,-1,20
 143 425 143 425 143 357 c 0,21,22
 143 299 143 299 165.5 246.5 c 128,-1,23
 188 194 188 194 226.5 155.5 c 128,-1,24
 265 117 265 117 318 94 c 128,-1,25
 371 71 371 71 429 71 c 128,-1,26
 487 71 487 71 539.5 94 c 128,-1,27
 592 117 592 117 630.5 155.5 c 128,-1,28
 669 194 669 194 691.5 246.5 c 128,-1,29
 714 299 714 299 714 357 c 0,30,31
 714 425 714 425 684.5 484.5 c 128,-1,32
 655 544 655 544 600 585 c 0,33,34
 577 603 577 603 572.5 632.5 c 128,-1,35
 568 662 568 662 586 685 c 1,36,37
 603 709 603 709 632.5 713 c 128,-1,38
 662 717 662 717 686 699 c 0,39,40
 767 638 767 638 812 548.5 c 128,-1,41
 857 459 857 459 857 357 c 0,0,1
500 786 m 2,42,-1
 500 429 l 2,43,44
 500 400 500 400 479 378.5 c 128,-1,45
 458 357 458 357 429 357 c 128,-1,46
 400 357 400 357 378.5 378.5 c 128,-1,47
 357 400 357 400 357 429 c 2,48,-1
 357 786 l 2,49,50
 357 815 357 815 378.5 836 c 128,-1,51
 400 857 400 857 429 857 c 128,-1,52
 458 857 458 857 479 836 c 128,-1,53
 500 815 500 815 500 786 c 2,42,-1
EndSplineSet
EndChar

StartChar: signal
Encoding: 61458 61458 44
Width: 1000
Flags: W
LayerCount: 2
Fore
SplineSet
143 54 m 2,0,-1
 143 -54 l 2,1,2
 143 -62 143 -62 138 -66.5 c 128,-1,3
 133 -71 133 -71 125 -71 c 2,4,-1
 18 -71 l 2,5,6
 10 -71 10 -71 5 -66 c 128,-1,7
 0 -61 0 -61 0 -54 c 2,8,-1
 0 54 l 2,9,10
 0 62 0 62 5 66.5 c 128,-1,11
 10 71 10 71 18 71 c 2,12,-1
 125 71 l 2,13,14
 133 71 133 71 138 66.5 c 128,-1,15
 143 62 143 62 143 54 c 2,0,-1
357 125 m 2,16,-1
 357 -54 l 2,17,18
 357 -62 357 -62 352 -66.5 c 128,-1,19
 347 -71 347 -71 339 -71 c 2,20,-1
 232 -71 l 2,21,22
 224 -71 224 -71 219 -66 c 128,-1,23
 214 -61 214 -61 214 -54 c 2,24,-1
 214 125 l 2,25,26
 214 133 214 133 219 138 c 128,-1,27
 224 143 224 143 232 143 c 2,28,-1
 339 143 l 2,29,30
 347 143 347 143 352 138 c 128,-1,31
 357 133 357 133 357 125 c 2,16,-1
571 268 m 2,32,-1
 571 -54 l 2,33,34
 571 -62 571 -62 566 -66.5 c 128,-1,35
 561 -71 561 -71 554 -71 c 2,36,-1
 446 -71 l 2,37,38
 438 -71 438 -71 433.5 -66 c 128,-1,39
 429 -61 429 -61 429 -54 c 2,40,-1
 429 268 l 2,41,42
 429 276 429 276 434 281 c 128,-1,43
 439 286 439 286 446 286 c 2,44,-1
 554 286 l 2,45,46
 562 286 562 286 566.5 281 c 128,-1,47
 571 276 571 276 571 268 c 2,32,-1
786 482 m 2,48,-1
 786 -54 l 2,49,50
 786 -62 786 -62 781 -66.5 c 128,-1,51
 776 -71 776 -71 768 -71 c 2,52,-1
 661 -71 l 2,53,54
 653 -71 653 -71 648 -66 c 128,-1,55
 643 -61 643 -61 643 -54 c 2,56,-1
 643 482 l 2,57,58
 643 490 643 490 648 495 c 128,-1,59
 653 500 653 500 661 500 c 2,60,-1
 768 500 l 2,61,62
 776 500 776 500 781 495 c 128,-1,63
 786 490 786 490 786 482 c 2,48,-1
1000 768 m 2,64,-1
 1000 -54 l 2,65,66
 1000 -62 1000 -62 995 -66.5 c 128,-1,67
 990 -71 990 -71 982 -71 c 2,68,-1
 875 -71 l 2,69,70
 867 -71 867 -71 862 -66 c 128,-1,71
 857 -61 857 -61 857 -54 c 2,72,-1
 857 768 l 2,73,74
 857 776 857 776 862 781 c 128,-1,75
 867 786 867 786 875 786 c 2,76,-1
 982 786 l 2,77,78
 990 786 990 786 995 781 c 128,-1,79
 1000 776 1000 776 1000 768 c 2,64,-1
EndSplineSet
EndChar

StartChar: cog
Encoding: 61459 61459 45
Width: 857
Flags: W
LayerCount: 2
Fore
SplineSet
571 357 m 128,-1,1
 571 416 571 416 529.5 458 c 128,-1,2
 488 500 488 500 428.5 500 c 128,-1,3
 369 500 369 500 327.5 458 c 128,-1,4
 286 416 286 416 286 357 c 128,-1,5
 286 298 286 298 327.5 256 c 128,-1,6
 369 214 369 214 428.5 214 c 128,-1,7
 488 214 488 214 529.5 256 c 128,-1,0
 571 298 571 298 571 357 c 128,-1,1
857 418 m 2,8,-1
 857 294 l 2,9,10
 857 287 857 287 852.5 281 c 128,-1,11
 848 275 848 275 842 274 c 2,12,-1
 738 258 l 1,13,14
 727 228 727 228 717 208 c 1,15,16
 737 180 737 180 776 131 c 0,17,18
 782 124 782 124 782 116.5 c 128,-1,19
 782 109 782 109 777 104 c 1,20,21
 762 83 762 83 721.5 43.5 c 128,-1,22
 681 4 681 4 669 4 c 0,23,24
 662 4 662 4 655 9 c 2,25,-1
 578 69 l 1,26,27
 553 56 553 56 527 48 c 1,28,29
 518 -28 518 -28 511 -56 c 0,30,31
 507 -72 507 -72 491 -71 c 1,32,-1
 367 -71 l 2,33,34
 359 -71 359 -71 353 -66.5 c 128,-1,35
 347 -62 347 -62 347 -55 c 1,36,-1
 331 48 l 1,37,38
 304 57 304 57 281 69 c 1,39,-1
 202 9 l 2,40,41
 196 4 196 4 188 4 c 128,-1,42
 180 4 180 4 174 10 c 0,43,44
 104 74 104 74 82 104 c 0,45,46
 78 110 78 110 78 117 c 128,-1,47
 78 124 78 124 83 129 c 1,48,49
 91 141 91 141 111 166.5 c 128,-1,50
 131 192 131 192 141 206 c 1,51,52
 126 234 126 234 118 261 c 1,53,-1
 16 276 l 2,54,55
 9 277 9 277 4.5 283 c 128,-1,56
 0 289 0 289 0 296 c 2,57,-1
 0 420 l 2,58,59
 0 427 0 427 4.5 433 c 128,-1,60
 9 439 9 439 15 440 c 2,61,-1
 119 456 l 1,62,63
 127 482 127 482 141 507 c 1,64,65
 119 539 119 539 81 584 c 0,66,67
 75 591 75 591 75 598 c 0,68,69
 75 604 75 604 80 610 c 0,70,71
 95 630 95 630 135.5 670 c 128,-1,72
 176 710 176 710 188 710 c 0,73,74
 195 710 195 710 203 705 c 2,75,-1
 280 645 l 1,76,77
 305 658 305 658 330 666 c 1,78,79
 339 742 339 742 347 770 c 0,80,81
 351 786 351 786 367 786 c 2,82,-1
 491 786 l 2,83,84
 499 786 499 786 504.5 781 c 128,-1,85
 510 776 510 776 511 769 c 2,86,-1
 526 666 l 1,87,88
 553 657 553 657 576 646 c 1,89,-1
 656 705 l 1,90,91
 661 710 661 710 669 710 c 0,92,93
 676 710 676 710 683 705 c 1,94,95
 755 639 755 639 775 610 c 1,96,97
 779 606 779 606 779 598 c 0,98,99
 779 591 779 591 775 585 c 0,100,101
 767 573 767 573 746.5 547.5 c 128,-1,102
 726 522 726 522 716 508 c 1,103,104
 731 480 731 480 739 454 c 1,105,-1
 841 438 l 2,106,107
 848 437 848 437 852.5 431 c 128,-1,108
 857 425 857 425 857 418 c 2,8,-1
EndSplineSet
EndChar

StartChar: trash
Encoding: 61460 61460 46
Width: 785
Flags: W
LayerCount: 2
Fore
SplineSet
286 446 m 2,0,-1
 286 125 l 2,1,2
 286 117 286 117 281 112 c 128,-1,3
 276 107 276 107 268 107 c 2,4,-1
 232 107 l 2,5,6
 224 107 224 107 219 112 c 128,-1,7
 214 117 214 117 214 125 c 2,8,-1
 214 446 l 2,9,10
 214 454 214 454 219 459 c 128,-1,11
 224 464 224 464 232 464 c 2,12,-1
 268 464 l 2,13,14
 276 464 276 464 281 459 c 128,-1,15
 286 454 286 454 286 446 c 2,0,-1
429 446 m 2,16,-1
 429 125 l 2,17,18
 429 117 429 117 424 112 c 128,-1,19
 419 107 419 107 411 107 c 2,20,-1
 375 107 l 2,21,22
 367 107 367 107 362 112 c 128,-1,23
 357 117 357 117 357 125 c 2,24,-1
 357 446 l 2,25,26
 357 454 357 454 362 459 c 128,-1,27
 367 464 367 464 375 464 c 2,28,-1
 411 464 l 2,29,30
 419 464 419 464 424 459 c 128,-1,31
 429 454 429 454 429 446 c 2,16,-1
571 446 m 2,32,-1
 571 125 l 2,33,34
 571 117 571 117 566 112 c 128,-1,35
 561 107 561 107 554 107 c 2,36,-1
 518 107 l 2,37,38
 510 107 510 107 505 112 c 128,-1,39
 500 117 500 117 500 125 c 2,40,-1
 500 446 l 2,41,42
 500 454 500 454 505 459 c 128,-1,43
 510 464 510 464 518 464 c 2,44,-1
 554 464 l 2,45,46
 562 464 562 464 566.5 459 c 128,-1,47
 571 454 571 454 571 446 c 2,32,-1
643 42 m 2,48,-1
 643 571 l 1,49,-1
 143 571 l 1,50,-1
 143 42 l 2,51,52
 143 30 143 30 147 19.5 c 128,-1,53
 151 9 151 9 155 4.5 c 128,-1,54
 159 0 159 0 161 0 c 2,55,-1
 625 0 l 2,56,57
 627 0 627 0 631 4.5 c 128,-1,58
 635 9 635 9 639 19.5 c 128,-1,59
 643 30 643 30 643 42 c 2,48,-1
268 643 m 1,60,-1
 518 643 l 1,61,-1
 491 708 l 1,62,63
 487 713 487 713 482 714 c 1,64,-1
 305 714 l 1,65,66
 299 713 299 713 295 708 c 1,67,-1
 268 643 l 1,60,-1
786 625 m 2,68,-1
 786 589 l 2,69,70
 786 581 786 581 781 576 c 128,-1,71
 776 571 776 571 768 571 c 2,72,-1
 714 571 l 1,73,-1
 714 42 l 2,74,75
 714 -4 714 -4 688 -37.5 c 128,-1,76
 662 -71 662 -71 625 -71 c 2,77,-1
 161 -71 l 2,78,79
 124 -71 124 -71 97.5 -38.5 c 128,-1,80
 71 -6 71 -6 71 40 c 2,81,-1
 71 571 l 1,82,-1
 18 571 l 2,83,84
 10 571 10 571 5 576 c 128,-1,85
 0 581 0 581 0 589 c 2,86,-1
 0 625 l 2,87,88
 0 633 0 633 5 638 c 128,-1,89
 10 643 10 643 18 643 c 2,90,-1
 190 643 l 1,91,-1
 229 736 l 2,92,93
 237 757 237 757 259 771.5 c 128,-1,94
 281 786 281 786 304 786 c 2,95,-1
 482 786 l 2,96,97
 504 786 504 786 526 771.5 c 128,-1,98
 548 757 548 757 556 736 c 2,99,-1
 595 643 l 1,100,-1
 768 643 l 2,101,102
 776 643 776 643 781 638 c 128,-1,103
 786 633 786 633 786 625 c 2,68,-1
EndSplineSet
EndChar

StartChar: home
Encoding: 61461 61461 47
Width: 928
Flags: W
LayerCount: 2
Fore
SplineSet
786 304 m 2,0,-1
 786 36 l 2,1,2
 786 21 786 21 775.5 10.5 c 128,-1,3
 765 0 765 0 750 0 c 2,4,-1
 536 0 l 1,5,-1
 536 214 l 1,6,-1
 393 214 l 1,7,-1
 393 0 l 1,8,-1
 179 0 l 2,9,10
 164 0 164 0 153.5 10.5 c 128,-1,11
 143 21 143 21 143 36 c 2,12,-1
 143 304 l 2,13,14
 143 305 143 305 143 305.5 c 128,-1,15
 143 306 143 306 143 307 c 2,16,-1
 464 571 l 1,17,-1
 785 307 l 2,18,19
 786 306 786 306 786 304 c 2,0,-1
910 342 m 2,20,-1
 876 301 l 2,21,22
 872 296 872 296 864 295 c 1,23,-1
 862 295 l 2,24,25
 855 295 855 295 850 299 c 2,26,-1
 464 621 l 1,27,-1
 78 299 l 1,28,29
 71 295 71 295 65 295 c 0,30,31
 58 296 58 296 53 301 c 2,32,-1
 18 342 l 2,33,34
 14 348 14 348 14.5 355.5 c 128,-1,35
 15 363 15 363 21 367 c 2,36,-1
 422 701 l 2,37,38
 440 716 440 716 464.5 716 c 128,-1,39
 489 716 489 716 507 701 c 2,40,-1
 643 588 l 1,41,-1
 643 696 l 2,42,43
 643 704 643 704 648 709 c 128,-1,44
 653 714 653 714 661 714 c 2,45,-1
 768 714 l 2,46,47
 776 714 776 714 781 709 c 128,-1,48
 786 704 786 704 786 696 c 2,49,-1
 786 469 l 1,50,-1
 908 367 l 2,51,52
 914 363 914 363 914 355.5 c 128,-1,53
 914 348 914 348 910 342 c 2,20,-1
EndSplineSet
EndChar

StartChar: file_alt
Encoding: 61462 61462 48
Width: 714
Flags: W
LayerCount: 2
Fore
SplineSet
71 0 m 1,0,-1
 643 0 l 1,1,-1
 643 429 l 1,2,-1
 411 429 l 2,3,4
 389 429 389 429 373 444.5 c 128,-1,5
 357 460 357 460 357 482 c 2,6,-1
 357 714 l 1,7,-1
 71 714 l 1,8,-1
 71 0 l 1,0,-1
429 500 m 1,9,-1
 638 500 l 1,10,11
 632 516 632 516 626 523 c 2,12,-1
 451 698 l 2,13,14
 444 705 444 705 429 710 c 1,15,-1
 429 500 l 1,9,-1
714 482 m 2,16,-1
 714 -18 l 2,17,18
 714 -40 714 -40 698.5 -55.5 c 128,-1,19
 683 -71 683 -71 661 -71 c 2,20,-1
 54 -71 l 2,21,22
 32 -71 32 -71 16 -55.5 c 128,-1,23
 0 -40 0 -40 0 -18 c 2,24,-1
 0 732 l 2,25,26
 0 754 0 754 15.5 770 c 128,-1,27
 31 786 31 786 54 786 c 2,28,-1
 411 786 l 2,29,30
 433 786 433 786 460 774.5 c 128,-1,31
 487 763 487 763 502 748 c 2,32,-1
 676 574 l 2,33,34
 692 558 692 558 703 531 c 128,-1,35
 714 504 714 504 714 482 c 2,16,-1
EndSplineSet
EndChar

StartChar: time
Encoding: 61463 61463 49
Width: 857
Flags: W
LayerCount: 2
Fore
SplineSet
500 554 m 2,0,-1
 500 304 l 2,1,2
 500 296 500 296 495 291 c 128,-1,3
 490 286 490 286 482 286 c 2,4,-1
 304 286 l 2,5,6
 296 286 296 286 291 291 c 128,-1,7
 286 296 286 296 286 304 c 2,8,-1
 286 339 l 2,9,10
 286 347 286 347 291 352 c 128,-1,11
 296 357 296 357 304 357 c 2,12,-1
 429 357 l 1,13,-1
 429 554 l 2,14,15
 429 562 429 562 434 566.5 c 128,-1,16
 439 571 439 571 446 571 c 2,17,-1
 482 571 l 2,18,19
 490 571 490 571 495 566.5 c 128,-1,20
 500 562 500 562 500 554 c 2,0,-1
732 357.5 m 128,-1,22
 732 440 732 440 691.5 509.5 c 128,-1,23
 651 579 651 579 581 620 c 128,-1,24
 511 661 511 661 428.5 661 c 128,-1,25
 346 661 346 661 276 620 c 128,-1,26
 206 579 206 579 165.5 509.5 c 128,-1,27
 125 440 125 440 125 357.5 c 128,-1,28
 125 275 125 275 165.5 205 c 128,-1,29
 206 135 206 135 276 94.5 c 128,-1,30
 346 54 346 54 428.5 54 c 128,-1,31
 511 54 511 54 581 94.5 c 128,-1,32
 651 135 651 135 691.5 205 c 128,-1,21
 732 275 732 275 732 357.5 c 128,-1,22
857 357.5 m 128,-1,34
 857 241 857 241 799.5 142.5 c 128,-1,35
 742 44 742 44 643.5 -13.5 c 128,-1,36
 545 -71 545 -71 428.5 -71 c 128,-1,37
 312 -71 312 -71 213.5 -13.5 c 128,-1,38
 115 44 115 44 57.5 142.5 c 128,-1,39
 0 241 0 241 0 357.5 c 128,-1,40
 0 474 0 474 57.5 572.5 c 128,-1,41
 115 671 115 671 213.5 728.5 c 128,-1,42
 312 786 312 786 428.5 786 c 128,-1,43
 545 786 545 786 643.5 728.5 c 128,-1,44
 742 671 742 671 799.5 572.5 c 128,-1,33
 857 474 857 474 857 357.5 c 128,-1,34
EndSplineSet
EndChar

StartChar: road
Encoding: 61464 61464 50
Width: 1071
Flags: W
LayerCount: 2
Fore
SplineSet
620 301 m 1,0,-1
 620 304 l 1,1,-1
 607 482 l 2,2,3
 606 489 606 489 600.5 494.5 c 128,-1,4
 595 500 595 500 588 500 c 2,5,-1
 484 500 l 2,6,7
 477 500 477 500 471 494.5 c 128,-1,8
 465 489 465 489 465 482 c 2,9,-1
 451 304 l 1,10,-1
 451 301 l 1,11,12
 450 294 450 294 455.5 290 c 128,-1,13
 461 286 461 286 468 286 c 2,14,-1
 604 286 l 2,15,16
 611 286 611 286 616 290 c 128,-1,17
 621 294 621 294 620 301 c 1,0,-1
1044 41 m 0,18,19
 1044 0 1044 0 1018 0 c 2,20,-1
 625 0 l 2,21,22
 632 0 632 0 637 5.5 c 128,-1,23
 642 11 642 11 642 18 c 2,24,-1
 631 161 l 2,25,26
 630 168 630 168 624.5 173.5 c 128,-1,27
 619 179 619 179 612 179 c 2,28,-1
 460 179 l 2,29,30
 453 179 453 179 447 173.5 c 128,-1,31
 441 168 441 168 441 161 c 2,32,-1
 430 18 l 2,33,34
 429 11 429 11 434 5.5 c 128,-1,35
 439 0 439 0 446 0 c 2,36,-1
 54 0 l 2,37,38
 28 0 28 0 28 41 c 0,39,40
 28 71 28 71 42 105 c 2,41,-1
 275 688 l 2,42,43
 279 699 279 699 289.5 706.5 c 128,-1,44
 300 714 300 714 311 714 c 2,45,-1
 500 714 l 2,46,47
 493 714 493 714 487.5 709 c 128,-1,48
 482 704 482 704 481 696 c 2,49,-1
 473 589 l 2,50,51
 472 581 472 581 477 576 c 128,-1,52
 482 571 482 571 489 571 c 2,53,-1
 582 571 l 2,54,55
 589 571 589 571 594 576 c 128,-1,56
 599 581 599 581 599 589 c 2,57,-1
 590 696 l 2,58,59
 589 703 589 703 584 708.5 c 128,-1,60
 579 714 579 714 571 714 c 2,61,-1
 761 714 l 2,62,63
 772 714 772 714 782 706.5 c 128,-1,64
 792 699 792 699 796 688 c 2,65,-1
 1029 105 l 1,66,67
 1044 71 1044 71 1044 41 c 0,18,19
EndSplineSet
EndChar

StartChar: download_alt
Encoding: 61465 61465 51
Width: 928
Flags: W
LayerCount: 2
Fore
SplineSet
714 107.5 m 128,-1,1
 714 122 714 122 703.5 132.5 c 128,-1,2
 693 143 693 143 678.5 143 c 128,-1,3
 664 143 664 143 653.5 132.5 c 128,-1,4
 643 122 643 122 643 107.5 c 128,-1,5
 643 93 643 93 653.5 82 c 128,-1,6
 664 71 664 71 678.5 71 c 128,-1,7
 693 71 693 71 703.5 82 c 128,-1,0
 714 93 714 93 714 107.5 c 128,-1,1
857 107.5 m 128,-1,9
 857 122 857 122 846.5 132.5 c 128,-1,10
 836 143 836 143 821.5 143 c 128,-1,11
 807 143 807 143 796.5 132.5 c 128,-1,12
 786 122 786 122 786 107.5 c 128,-1,13
 786 93 786 93 796.5 82 c 128,-1,14
 807 71 807 71 821.5 71 c 128,-1,15
 836 71 836 71 846.5 82 c 128,-1,8
 857 93 857 93 857 107.5 c 128,-1,9
929 232 m 2,16,-1
 929 54 l 2,17,18
 929 32 929 32 913 16 c 128,-1,19
 897 0 897 0 875 0 c 2,20,-1
 54 0 l 2,21,22
 32 0 32 0 16 15.5 c 128,-1,23
 0 31 0 31 0 54 c 2,24,-1
 0 232 l 2,25,26
 0 254 0 254 15.5 270 c 128,-1,27
 31 286 31 286 54 286 c 2,28,-1
 313 286 l 1,29,-1
 388 210 l 1,30,31
 420 179 420 179 464 179 c 128,-1,32
 508 179 508 179 540 210 c 2,33,-1
 616 286 l 1,34,-1
 875 286 l 2,35,36
 897 286 897 286 913 270 c 128,-1,37
 929 254 929 254 929 232 c 2,16,-1
747 550 m 0,38,39
 756 527 756 527 739 511 c 2,40,-1
 489 261 l 2,41,42
 479 250 479 250 464 250 c 128,-1,43
 449 250 449 250 439 261 c 2,44,-1
 189 511 l 2,45,46
 172 527 172 527 181 550 c 0,47,48
 190 572 190 572 214 571 c 1,49,-1
 357 571 l 1,50,-1
 357 821 l 2,51,52
 357 836 357 836 367.5 846.5 c 128,-1,53
 378 857 378 857 393 857 c 2,54,-1
 536 857 l 2,55,56
 551 857 551 857 561 846.5 c 128,-1,57
 571 836 571 836 571 821 c 2,58,-1
 571 571 l 1,59,-1
 714 571 l 1,60,61
 738 572 738 572 747 550 c 0,38,39
EndSplineSet
EndChar

StartChar: download
Encoding: 61466 61466 52
Width: 857
Flags: W
LayerCount: 2
Fore
SplineSet
625 339 m 0,0,1
 625 332 625 332 619 326 c 2,2,-1
 441 148 l 2,3,4
 435 143 435 143 428.5 143 c 128,-1,5
 422 143 422 143 416 148 c 2,6,-1
 237 326 l 2,7,8
 229 335 229 335 233 346 c 128,-1,9
 237 357 237 357 250 357 c 2,10,-1
 357 357 l 1,11,-1
 357 554 l 2,12,13
 357 562 357 562 362 566.5 c 128,-1,14
 367 571 367 571 375 571 c 2,15,-1
 482 571 l 2,16,17
 490 571 490 571 495 566 c 128,-1,18
 500 561 500 561 500 554 c 2,19,-1
 500 357 l 1,20,-1
 607 357 l 2,21,22
 615 357 615 357 620 352 c 128,-1,23
 625 347 625 347 625 339 c 0,0,1
428.5 661 m 128,-1,25
 346 661 346 661 276 620 c 128,-1,26
 206 579 206 579 165.5 509.5 c 128,-1,27
 125 440 125 440 125 357.5 c 128,-1,28
 125 275 125 275 165.5 205 c 128,-1,29
 206 135 206 135 276 94.5 c 128,-1,30
 346 54 346 54 428.5 54 c 128,-1,31
 511 54 511 54 581 94.5 c 128,-1,32
 651 135 651 135 691.5 205 c 128,-1,33
 732 275 732 275 732 357.5 c 128,-1,34
 732 440 732 440 691.5 509.5 c 128,-1,35
 651 579 651 579 581 620 c 128,-1,24
 511 661 511 661 428.5 661 c 128,-1,25
857 357.5 m 128,-1,37
 857 241 857 241 799.5 142.5 c 128,-1,38
 742 44 742 44 643.5 -13.5 c 128,-1,39
 545 -71 545 -71 428.5 -71 c 128,-1,40
 312 -71 312 -71 213.5 -13.5 c 128,-1,41
 115 44 115 44 57.5 142.5 c 128,-1,42
 0 241 0 241 0 357.5 c 128,-1,43
 0 474 0 474 57.5 572.5 c 128,-1,44
 115 671 115 671 213.5 728.5 c 128,-1,45
 312 786 312 786 428.5 786 c 128,-1,46
 545 786 545 786 643.5 728.5 c 128,-1,47
 742 671 742 671 799.5 572.5 c 128,-1,36
 857 474 857 474 857 357.5 c 128,-1,37
EndSplineSet
EndChar

StartChar: upload
Encoding: 61467 61467 53
Width: 857
Flags: W
LayerCount: 2
Fore
SplineSet
624 368 m 128,-1,1
 620 357 620 357 607 357 c 2,2,-1
 500 357 l 1,3,-1
 500 161 l 2,4,5
 500 153 500 153 495 148 c 128,-1,6
 490 143 490 143 482 143 c 2,7,-1
 375 143 l 2,8,9
 367 143 367 143 362 148 c 128,-1,10
 357 153 357 153 357 161 c 2,11,-1
 357 357 l 1,12,-1
 250 357 l 2,13,14
 242 357 242 357 237 362 c 128,-1,15
 232 367 232 367 232 375 c 0,16,17
 232 382 232 382 238 388 c 2,18,-1
 416 566 l 2,19,20
 422 571 422 571 428.5 571 c 128,-1,21
 435 571 435 571 441 566 c 2,22,-1
 620 388 l 2,23,0
 628 379 628 379 624 368 c 128,-1,1
428.5 661 m 128,-1,25
 346 661 346 661 276 620 c 128,-1,26
 206 579 206 579 165.5 509.5 c 128,-1,27
 125 440 125 440 125 357.5 c 128,-1,28
 125 275 125 275 165.5 205 c 128,-1,29
 206 135 206 135 276 94.5 c 128,-1,30
 346 54 346 54 428.5 54 c 128,-1,31
 511 54 511 54 581 94.5 c 128,-1,32
 651 135 651 135 691.5 205 c 128,-1,33
 732 275 732 275 732 357.5 c 128,-1,34
 732 440 732 440 691.5 509.5 c 128,-1,35
 651 579 651 579 581 620 c 128,-1,24
 511 661 511 661 428.5 661 c 128,-1,25
857 357.5 m 128,-1,37
 857 241 857 241 799.5 142.5 c 128,-1,38
 742 44 742 44 643.5 -13.5 c 128,-1,39
 545 -71 545 -71 428.5 -71 c 128,-1,40
 312 -71 312 -71 213.5 -13.5 c 128,-1,41
 115 44 115 44 57.5 142.5 c 128,-1,42
 0 241 0 241 0 357.5 c 128,-1,43
 0 474 0 474 57.5 572.5 c 128,-1,44
 115 671 115 671 213.5 728.5 c 128,-1,45
 312 786 312 786 428.5 786 c 128,-1,46
 545 786 545 786 643.5 728.5 c 128,-1,47
 742 671 742 671 799.5 572.5 c 128,-1,36
 857 474 857 474 857 357.5 c 128,-1,37
EndSplineSet
EndChar

StartChar: inbox
Encoding: 61468 61468 54
Width: 857
Flags: W
LayerCount: 2
Fore
SplineSet
571 321 m 1,0,-1
 747 321 l 1,1,2
 746 323 746 323 745.5 326 c 128,-1,3
 745 329 745 329 744 330 c 2,4,-1
 626 607 l 1,5,-1
 231 607 l 1,6,-1
 113 330 l 2,7,8
 112 329 112 329 111 326 c 128,-1,9
 110 323 110 323 110 321 c 1,10,-1
 286 321 l 1,11,-1
 339 214 l 1,12,-1
 518 214 l 1,13,-1
 571 321 l 1,0,-1
857 305 m 2,14,-1
 857 36 l 2,15,16
 857 21 857 21 846.5 10.5 c 128,-1,17
 836 0 836 0 821 0 c 2,18,-1
 36 0 l 2,19,20
 21 0 21 0 10.5 10.5 c 128,-1,21
 0 21 0 21 0 36 c 2,22,-1
 0 305 l 2,23,24
 0 340 0 340 14 373 c 2,25,-1
 147 681 l 2,26,27
 153 695 153 695 167.5 704.5 c 128,-1,28
 182 714 182 714 196 714 c 2,29,-1
 661 714 l 2,30,31
 676 714 676 714 690.5 704.5 c 128,-1,32
 705 695 705 695 710 681 c 2,33,-1
 843 373 l 2,34,35
 857 340 857 340 857 305 c 2,14,-1
EndSplineSet
EndChar

StartChar: play_circle
Encoding: 61469 61469 55
Width: 857
Flags: W
LayerCount: 2
Fore
SplineSet
661 357 m 128,-1,1
 661 336 661 336 643 326 c 2,2,-1
 339 148 l 2,3,4
 331 143 331 143 321 143 c 0,5,6
 312 143 312 143 304 147 c 0,7,8
 286 158 286 158 286 179 c 2,9,-1
 286 536 l 2,10,11
 286 557 286 557 304 567 c 128,-1,12
 322 577 322 577 339 566 c 2,13,-1
 643 388 l 2,14,0
 661 378 661 378 661 357 c 128,-1,1
732 357.5 m 128,-1,16
 732 440 732 440 691.5 509.5 c 128,-1,17
 651 579 651 579 581 620 c 128,-1,18
 511 661 511 661 428.5 661 c 128,-1,19
 346 661 346 661 276 620 c 128,-1,20
 206 579 206 579 165.5 509.5 c 128,-1,21
 125 440 125 440 125 357.5 c 128,-1,22
 125 275 125 275 165.5 205 c 128,-1,23
 206 135 206 135 276 94.5 c 128,-1,24
 346 54 346 54 428.5 54 c 128,-1,25
 511 54 511 54 581 94.5 c 128,-1,26
 651 135 651 135 691.5 205 c 128,-1,15
 732 275 732 275 732 357.5 c 128,-1,16
857 357.5 m 128,-1,28
 857 241 857 241 799.5 142.5 c 128,-1,29
 742 44 742 44 643.5 -13.5 c 128,-1,30
 545 -71 545 -71 428.5 -71 c 128,-1,31
 312 -71 312 -71 213.5 -13.5 c 128,-1,32
 115 44 115 44 57.5 142.5 c 128,-1,33
 0 241 0 241 0 357.5 c 128,-1,34
 0 474 0 474 57.5 572.5 c 128,-1,35
 115 671 115 671 213.5 728.5 c 128,-1,36
 312 786 312 786 428.5 786 c 128,-1,37
 545 786 545 786 643.5 728.5 c 128,-1,38
 742 671 742 671 799.5 572.5 c 128,-1,27
 857 474 857 474 857 357.5 c 128,-1,28
EndSplineSet
EndChar

StartChar: repeat
Encoding: 61470 61470 56
Width: 857
Flags: W
LayerCount: 2
Fore
SplineSet
857 714 m 2,0,-1
 857 464 l 2,1,2
 857 449 857 449 846.5 439 c 128,-1,3
 836 429 836 429 821 429 c 2,4,-1
 571 429 l 2,5,6
 548 429 548 429 539 451 c 128,-1,7
 530 473 530 473 546 489 c 2,8,-1
 623 566 l 1,9,10
 540 642 540 642 429 643 c 0,11,12
 371 643 371 643 318 620.5 c 128,-1,13
 265 598 265 598 226.5 559.5 c 128,-1,14
 188 521 188 521 165.5 468 c 128,-1,15
 143 415 143 415 143 357 c 128,-1,16
 143 299 143 299 165.5 246.5 c 128,-1,17
 188 194 188 194 226.5 155.5 c 128,-1,18
 265 117 265 117 318 94 c 128,-1,19
 371 71 371 71 429 71 c 0,20,21
 495 71 495 71 554 100 c 128,-1,22
 613 129 613 129 654 182 c 0,23,24
 658 188 658 188 667 189 c 0,25,26
 675 189 675 189 681 184 c 2,27,-1
 757 107 l 2,28,29
 762 103 762 103 762.5 96 c 128,-1,30
 763 89 763 89 758 83 c 0,31,32
 697 9 697 9 611 -31 c 128,-1,33
 525 -71 525 -71 429 -71 c 0,34,35
 342 -71 342 -71 262.5 -37 c 128,-1,36
 183 -3 183 -3 125.5 54.5 c 128,-1,37
 68 112 68 112 34 191 c 128,-1,38
 0 270 0 270 0 357 c 128,-1,39
 0 444 0 444 34 523.5 c 128,-1,40
 68 603 68 603 125.5 660.5 c 128,-1,41
 183 718 183 718 262.5 752 c 128,-1,42
 342 786 342 786 429 786 c 0,43,44
 511 786 511 786 587.5 755 c 128,-1,45
 664 724 664 724 724 667 c 1,46,-1
 796 739 l 2,47,48
 812 756 812 756 835 747 c 1,49,50
 857 737 857 737 857 714 c 2,0,-1
EndSplineSet
EndChar

StartChar: refresh
Encoding: 61473 61473 57
Width: 857
Flags: W
LayerCount: 2
Fore
SplineSet
843 268 m 0,0,1
 843 265 843 265 843 264 c 0,2,3
 807 114 807 114 693 21.5 c 128,-1,4
 579 -71 579 -71 426 -71 c 0,5,6
 345 -71 345 -71 269 -40.5 c 128,-1,7
 193 -10 193 -10 133 47 c 1,8,-1
 61 -25 l 2,9,10
 50 -36 50 -36 35.5 -36 c 128,-1,11
 21 -36 21 -36 10.5 -25.5 c 128,-1,12
 0 -15 0 -15 0 0 c 2,13,-1
 0 250 l 2,14,15
 0 265 0 265 10.5 275.5 c 128,-1,16
 21 286 21 286 36 286 c 2,17,-1
 286 286 l 2,18,19
 301 286 301 286 311 275.5 c 128,-1,20
 321 265 321 265 321 250 c 128,-1,21
 321 235 321 235 311 225 c 2,22,-1
 234 148 l 1,23,24
 274 111 274 111 324 91 c 128,-1,25
 374 71 374 71 429 71 c 0,26,27
 504 71 504 71 568.5 107.5 c 128,-1,28
 633 144 633 144 672 208 c 0,29,30
 678 217 678 217 701 273 c 1,31,32
 705 286 705 286 718 286 c 2,33,-1
 825 286 l 2,34,35
 832 286 832 286 837.5 280.5 c 128,-1,36
 843 275 843 275 843 268 c 0,0,1
857 714 m 2,37,-1
 857 464 l 2,38,39
 857 449 857 449 846.5 439 c 128,-1,40
 836 429 836 429 821 429 c 2,41,-1
 571 429 l 2,42,43
 556 429 556 429 546 439.5 c 128,-1,44
 536 450 536 450 536 464.5 c 128,-1,45
 536 479 536 479 546 489 c 2,46,-1
 623 566 l 1,47,48
 540 642 540 642 429 643 c 0,49,50
 354 643 354 643 289 606.5 c 128,-1,51
 224 570 224 570 185 507 c 0,52,53
 179 498 179 498 156 441 c 1,54,55
 152 428 152 428 139 429 c 1,56,-1
 28 429 l 2,57,58
 21 429 21 429 15.5 434 c 128,-1,59
 10 439 10 439 10 446 c 2,60,-1
 10 450 l 1,61,62
 46 600 46 600 160.5 693 c 128,-1,63
 275 786 275 786 429 786 c 0,64,65
 510 786 510 786 587 755 c 128,-1,66
 664 724 664 724 724 667 c 1,67,-1
 796 739 l 2,68,69
 807 750 807 750 821.5 750 c 128,-1,70
 836 750 836 750 846.5 739.5 c 128,-1,71
 857 729 857 729 857 714 c 2,37,-1
EndSplineSet
EndChar

StartChar: list_alt
Encoding: 61474 61474 58
Width: 1000
Flags: W
LayerCount: 2
Fore
SplineSet
214 196 m 2,0,-1
 214 161 l 2,1,2
 214 154 214 154 209 148.5 c 128,-1,3
 204 143 204 143 196 143 c 2,4,-1
 161 143 l 2,5,6
 154 143 154 143 148.5 148 c 128,-1,7
 143 153 143 153 143 161 c 2,8,-1
 143 196 l 2,9,10
 143 203 143 203 148 208.5 c 128,-1,11
 153 214 153 214 161 214 c 2,12,-1
 196 214 l 2,13,14
 203 214 203 214 208.5 208.5 c 128,-1,15
 214 203 214 203 214 196 c 2,0,-1
214 339 m 2,16,-1
 214 304 l 2,17,18
 214 297 214 297 209 291.5 c 128,-1,19
 204 286 204 286 196 286 c 2,20,-1
 161 286 l 2,21,22
 154 286 154 286 148.5 291 c 128,-1,23
 143 296 143 296 143 304 c 2,24,-1
 143 339 l 2,25,26
 143 346 143 346 148 351.5 c 128,-1,27
 153 357 153 357 161 357 c 2,28,-1
 196 357 l 2,29,30
 203 357 203 357 208.5 351.5 c 128,-1,31
 214 346 214 346 214 339 c 2,16,-1
214 482 m 2,32,-1
 214 446 l 2,33,34
 214 439 214 439 209 434 c 128,-1,35
 204 429 204 429 196 429 c 2,36,-1
 161 429 l 2,37,38
 154 429 154 429 148.5 434 c 128,-1,39
 143 439 143 439 143 446 c 2,40,-1
 143 482 l 2,41,42
 143 489 143 489 148 494.5 c 128,-1,43
 153 500 153 500 161 500 c 2,44,-1
 196 500 l 2,45,46
 203 500 203 500 208.5 494.5 c 128,-1,47
 214 489 214 489 214 482 c 2,32,-1
857 196 m 2,48,-1
 857 161 l 2,49,50
 857 154 857 154 852 148.5 c 128,-1,51
 847 143 847 143 839 143 c 2,52,-1
 304 143 l 2,53,54
 297 143 297 143 291.5 148 c 128,-1,55
 286 153 286 153 286 161 c 2,56,-1
 286 196 l 2,57,58
 286 203 286 203 291 208.5 c 128,-1,59
 296 214 296 214 304 214 c 2,60,-1
 839 214 l 2,61,62
 846 214 846 214 851.5 208.5 c 128,-1,63
 857 203 857 203 857 196 c 2,48,-1
857 339 m 2,64,-1
 857 304 l 2,65,66
 857 297 857 297 852 291.5 c 128,-1,67
 847 286 847 286 839 286 c 2,68,-1
 304 286 l 2,69,70
 297 286 297 286 291.5 291 c 128,-1,71
 286 296 286 296 286 304 c 2,72,-1
 286 339 l 2,73,74
 286 346 286 346 291 351.5 c 128,-1,75
 296 357 296 357 304 357 c 2,76,-1
 839 357 l 2,77,78
 846 357 846 357 851.5 351.5 c 128,-1,79
 857 346 857 346 857 339 c 2,64,-1
857 482 m 2,80,-1
 857 446 l 2,81,82
 857 439 857 439 852 434 c 128,-1,83
 847 429 847 429 839 429 c 2,84,-1
 304 429 l 2,85,86
 297 429 297 429 291.5 434 c 128,-1,87
 286 439 286 439 286 446 c 2,88,-1
 286 482 l 2,89,90
 286 489 286 489 291 494.5 c 128,-1,91
 296 500 296 500 304 500 c 2,92,-1
 839 500 l 2,93,94
 846 500 846 500 851.5 494.5 c 128,-1,95
 857 489 857 489 857 482 c 2,80,-1
929 89 m 2,96,-1
 929 554 l 2,97,98
 929 561 929 561 923.5 566 c 128,-1,99
 918 571 918 571 911 571 c 2,100,-1
 89 571 l 2,101,102
 82 571 82 571 76.5 566 c 128,-1,103
 71 561 71 561 71 554 c 2,104,-1
 71 89 l 2,105,106
 71 82 71 82 76.5 76.5 c 128,-1,107
 82 71 82 71 89 71 c 2,108,-1
 911 71 l 2,109,110
 918 71 918 71 923.5 76.5 c 128,-1,111
 929 82 929 82 929 89 c 2,96,-1
1000 696 m 2,112,-1
 1000 89 l 2,113,114
 1000 52 1000 52 974 26 c 128,-1,115
 948 0 948 0 911 0 c 2,116,-1
 89 0 l 2,117,118
 52 0 52 0 26 26 c 128,-1,119
 0 52 0 52 0 89 c 2,120,-1
 0 696 l 2,121,122
 0 733 0 733 26 759.5 c 128,-1,123
 52 786 52 786 89 786 c 2,124,-1
 911 786 l 2,125,126
 948 786 948 786 974 759.5 c 128,-1,127
 1000 733 1000 733 1000 696 c 2,112,-1
EndSplineSet
EndChar

StartChar: lock
Encoding: 61475 61475 59
Width: 642
Flags: W
LayerCount: 2
Fore
SplineSet
179 429 m 1,0,-1
 464 429 l 1,1,-1
 464 536 l 2,2,3
 464 595 464 595 422.5 637 c 128,-1,4
 381 679 381 679 321.5 679 c 128,-1,5
 262 679 262 679 220.5 637 c 128,-1,6
 179 595 179 595 179 536 c 2,7,-1
 179 429 l 1,0,-1
643 375 m 2,8,-1
 643 54 l 2,9,10
 643 32 643 32 627.5 16 c 128,-1,11
 612 0 612 0 589 0 c 2,12,-1
 54 0 l 2,13,14
 32 0 32 0 16 15.5 c 128,-1,15
 0 31 0 31 0 54 c 2,16,-1
 0 375 l 2,17,18
 0 397 0 397 15.5 413 c 128,-1,19
 31 429 31 429 54 429 c 2,20,-1
 71 429 l 1,21,-1
 71 536 l 2,22,23
 71 639 71 639 145 712.5 c 128,-1,24
 219 786 219 786 321.5 786 c 128,-1,25
 424 786 424 786 497.5 712 c 128,-1,26
 571 638 571 638 571 536 c 2,27,-1
 571 429 l 1,28,-1
 589 429 l 2,29,30
 611 429 611 429 627 413 c 128,-1,31
 643 397 643 397 643 375 c 2,8,-1
EndSplineSet
EndChar

StartChar: flag
Encoding: 61476 61476 60
Width: 1000
Flags: W
LayerCount: 2
Fore
SplineSet
179 714 m 0,0,1
 179 674 179 674 143 653 c 1,2,-1
 143 -54 l 2,3,4
 143 -61 143 -61 137.5 -66 c 128,-1,5
 132 -71 132 -71 125 -71 c 2,6,-1
 89 -71 l 2,7,8
 82 -71 82 -71 76.5 -66 c 128,-1,9
 71 -61 71 -61 71 -54 c 2,10,-1
 71 653 l 1,11,12
 35 674 35 674 36 714 c 0,13,14
 36 744 36 744 57 765 c 128,-1,15
 78 786 78 786 107.5 786 c 128,-1,16
 137 786 137 786 158 765 c 128,-1,17
 179 744 179 744 179 714 c 0,0,1
1000 679 m 2,18,-1
 1000 253 l 2,19,20
 1000 239 1000 239 993 231.5 c 128,-1,21
 986 224 986 224 971 216 c 0,22,23
 851 151 851 151 765 151 c 0,24,25
 731 151 731 151 696 163.5 c 128,-1,26
 661 176 661 176 635.5 190.5 c 128,-1,27
 610 205 610 205 571 217 c 128,-1,28
 532 229 532 229 492 229 c 0,29,30
 385 229 385 229 233 148 c 0,31,32
 224 143 224 143 214 143 c 0,33,34
 199 143 199 143 189 153.5 c 128,-1,35
 179 164 179 164 179 179 c 2,36,-1
 179 593 l 2,37,38
 179 611 179 611 196 623 c 0,39,40
 208 631 208 631 240 647 c 0,41,42
 372 714 372 714 475 714 c 0,43,44
 535 714 535 714 586.5 698 c 128,-1,45
 638 682 638 682 709 649 c 1,46,47
 730 638 730 638 758 638 c 0,48,49
 788 638 788 638 823.5 650 c 128,-1,50
 859 662 859 662 885 676.5 c 128,-1,51
 911 691 911 691 934 702.5 c 128,-1,52
 957 714 957 714 964 714 c 0,53,54
 979 714 979 714 989.5 704 c 128,-1,55
 1000 694 1000 694 1000 679 c 2,18,-1
EndSplineSet
EndChar

StartChar: headphones
Encoding: 61477 61477 61
Width: 928
Flags: W
LayerCount: 2
Fore
SplineSet
929 363 m 0,0,1
 929 270 929 270 895 188 c 1,2,-1
 884 160 l 1,3,-1
 781 142 l 1,4,5
 769 96 769 96 730.5 66 c 128,-1,6
 692 36 692 36 643 36 c 1,7,-1
 643 18 l 2,8,9
 643 10 643 10 638 5 c 128,-1,10
 633 0 633 0 625 0 c 2,11,-1
 589 0 l 2,12,13
 581 0 581 0 576 5 c 128,-1,14
 571 10 571 10 571 18 c 2,15,-1
 571 339 l 2,16,17
 571 347 571 347 576 352 c 128,-1,18
 581 357 581 357 589 357 c 2,19,-1
 625 357 l 2,20,21
 633 357 633 357 638 352 c 128,-1,22
 643 347 643 347 643 339 c 2,23,-1
 643 321 l 1,24,25
 683 321 683 321 715.5 301.5 c 128,-1,26
 748 282 748 282 767 248 c 1,27,-1
 805 255 l 1,28,29
 821 308 821 308 821 363 c 0,30,31
 821 446 821 446 772 519 c 128,-1,32
 723 592 723 592 640 635.5 c 128,-1,33
 557 679 557 679 464 679 c 128,-1,34
 371 679 371 679 288 635.5 c 128,-1,35
 205 592 205 592 156 518.5 c 128,-1,36
 107 445 107 445 107 363 c 0,37,38
 107 308 107 308 123 255 c 1,39,-1
 161 248 l 1,40,41
 180 281 180 281 213 301 c 128,-1,42
 246 321 246 321 286 321 c 1,43,-1
 286 339 l 2,44,45
 286 347 286 347 291 352 c 128,-1,46
 296 357 296 357 304 357 c 2,47,-1
 339 357 l 2,48,49
 347 357 347 357 352 352 c 128,-1,50
 357 347 357 347 357 339 c 2,51,-1
 357 18 l 2,52,53
 357 10 357 10 352 5 c 128,-1,54
 347 0 347 0 339 0 c 2,55,-1
 304 0 l 2,56,57
 296 0 296 0 291 5 c 128,-1,58
 286 10 286 10 286 18 c 2,59,-1
 286 36 l 1,60,61
 237 36 237 36 198.5 65.5 c 128,-1,62
 160 95 160 95 148 142 c 1,63,-1
 45 160 l 1,64,-1
 33 188 l 1,65,66
 0 271 0 271 0 363 c 0,67,68
 0 447 0 447 37.5 525 c 128,-1,69
 75 603 75 603 137.5 660.5 c 128,-1,70
 200 718 200 718 286 752 c 128,-1,71
 372 786 372 786 464.5 786 c 128,-1,72
 557 786 557 786 643 752 c 128,-1,73
 729 718 729 718 791.5 660.5 c 128,-1,74
 854 603 854 603 891.5 525 c 128,-1,75
 929 447 929 447 929 363 c 0,0,1
EndSplineSet
EndChar

StartChar: volume_off
Encoding: 61478 61478 62
Width: 428
Flags: W
LayerCount: 2
Fore
SplineSet
429 661 m 2,0,-1
 429 54 l 2,1,2
 429 39 429 39 418 28.5 c 128,-1,3
 407 18 407 18 392.5 18 c 128,-1,4
 378 18 378 18 368 28 c 2,5,-1
 182 214 l 1,6,-1
 36 214 l 2,7,8
 21 214 21 214 10.5 224.5 c 128,-1,9
 0 235 0 235 0 250 c 2,10,-1
 0 464 l 2,11,12
 0 479 0 479 10.5 489.5 c 128,-1,13
 21 500 21 500 36 500 c 2,14,-1
 182 500 l 1,15,-1
 368 686 l 2,16,17
 379 697 379 697 393 696.5 c 128,-1,18
 407 696 407 696 418 686 c 128,-1,19
 429 676 429 676 429 661 c 2,0,-1
EndSplineSet
EndChar

StartChar: volume_down
Encoding: 61479 61479 63
Width: 642
Flags: W
LayerCount: 2
Fore
SplineSet
429 661 m 2,0,-1
 429 54 l 2,1,2
 429 39 429 39 418 28.5 c 128,-1,3
 407 18 407 18 392.5 18 c 128,-1,4
 378 18 378 18 368 28 c 2,5,-1
 182 214 l 1,6,-1
 36 214 l 2,7,8
 21 214 21 214 10.5 224.5 c 128,-1,9
 0 235 0 235 0 250 c 2,10,-1
 0 464 l 2,11,12
 0 479 0 479 10.5 489.5 c 128,-1,13
 21 500 21 500 36 500 c 2,14,-1
 182 500 l 1,15,-1
 368 686 l 2,16,17
 379 697 379 697 393 696.5 c 128,-1,18
 407 696 407 696 418 686 c 128,-1,19
 429 676 429 676 429 661 c 2,0,-1
643 357.5 m 128,-1,21
 643 315 643 315 619 278.5 c 128,-1,22
 595 242 595 242 556 226 c 0,23,24
 550 223 550 223 542 223 c 0,25,26
 527 223 527 223 517 233.5 c 128,-1,27
 507 244 507 244 507 259 c 0,28,29
 507 271 507 271 513.5 279 c 128,-1,30
 520 287 520 287 529.5 293 c 128,-1,31
 539 299 539 299 548.5 305.5 c 128,-1,32
 558 312 558 312 564.5 325 c 128,-1,33
 571 338 571 338 571 357 c 128,-1,34
 571 376 571 376 564.5 389 c 128,-1,35
 558 402 558 402 548.5 409 c 128,-1,36
 539 416 539 416 529.5 421.5 c 128,-1,37
 520 427 520 427 513.5 435.5 c 128,-1,38
 507 444 507 444 507 455 c 0,39,40
 507 470 507 470 517.5 480.5 c 128,-1,41
 528 491 528 491 542 491 c 0,42,43
 550 491 550 491 556 488 c 0,44,45
 595 473 595 473 619 436.5 c 128,-1,20
 643 400 643 400 643 357.5 c 128,-1,21
EndSplineSet
EndChar

StartChar: volume_up
Encoding: 61480 61480 64
Width: 928
Flags: W
LayerCount: 2
Fore
SplineSet
429 661 m 2,0,-1
 429 54 l 2,1,2
 429 39 429 39 418 28.5 c 128,-1,3
 407 18 407 18 392.5 18 c 128,-1,4
 378 18 378 18 368 28 c 2,5,-1
 182 214 l 1,6,-1
 36 214 l 2,7,8
 21 214 21 214 10.5 224.5 c 128,-1,9
 0 235 0 235 0 250 c 2,10,-1
 0 464 l 2,11,12
 0 479 0 479 10.5 489.5 c 128,-1,13
 21 500 21 500 36 500 c 2,14,-1
 182 500 l 1,15,-1
 368 686 l 2,16,17
 379 697 379 697 393 696.5 c 128,-1,18
 407 696 407 696 418 686 c 128,-1,19
 429 676 429 676 429 661 c 2,0,-1
643 357.5 m 128,-1,21
 643 315 643 315 619 278.5 c 128,-1,22
 595 242 595 242 556 226 c 0,23,24
 550 223 550 223 542 223 c 0,25,26
 527 223 527 223 517 233.5 c 128,-1,27
 507 244 507 244 507 259 c 0,28,29
 507 271 507 271 513.5 279 c 128,-1,30
 520 287 520 287 529.5 293 c 128,-1,31
 539 299 539 299 548.5 305.5 c 128,-1,32
 558 312 558 312 564.5 325 c 128,-1,33
 571 338 571 338 571 357 c 128,-1,34
 571 376 571 376 564.5 389 c 128,-1,35
 558 402 558 402 548.5 409 c 128,-1,36
 539 416 539 416 529.5 421.5 c 128,-1,37
 520 427 520 427 513.5 435.5 c 128,-1,38
 507 444 507 444 507 455 c 0,39,40
 507 470 507 470 517.5 480.5 c 128,-1,41
 528 491 528 491 542 491 c 0,42,43
 550 491 550 491 556 488 c 0,44,45
 595 473 595 473 619 436.5 c 128,-1,20
 643 400 643 400 643 357.5 c 128,-1,21
786 357.5 m 128,-1,47
 786 272 786 272 738.5 199.5 c 128,-1,48
 691 127 691 127 613 94 c 0,49,50
 606 91 606 91 599 92 c 1,51,52
 584 92 584 92 573 102.5 c 128,-1,53
 562 113 562 113 562 127 c 0,54,55
 562 149 562 149 584 160 c 0,56,57
 615 176 615 176 627 185 c 0,58,59
 668 215 668 215 691 260.5 c 128,-1,60
 714 306 714 306 714 357 c 128,-1,61
 714 408 714 408 691 453.5 c 128,-1,62
 668 499 668 499 627 530 c 0,63,64
 616 538 616 538 584 554 c 0,65,66
 562 565 562 565 562 587 c 0,67,68
 562 602 562 602 573 612.5 c 128,-1,69
 584 623 584 623 598 623 c 0,70,71
 605 623 605 623 613 620 c 0,72,73
 691 587 691 587 738.5 515 c 128,-1,46
 786 443 786 443 786 357.5 c 128,-1,47
929 357 m 128,-1,75
 929 229 929 229 858 121.5 c 128,-1,76
 787 14 787 14 669 -37 c 0,77,78
 662 -40 662 -40 655 -40 c 0,79,80
 640 -40 640 -40 629.5 -29 c 128,-1,81
 619 -18 619 -18 619 -4 c 0,82,83
 619 16 619 16 641 29 c 0,84,85
 645 31 645 31 653.5 35 c 128,-1,86
 662 39 662 39 666 41 c 0,87,88
 692 55 692 55 711 69 c 0,89,90
 780 120 780 120 818.5 196 c 128,-1,91
 857 272 857 272 857 357.5 c 128,-1,92
 857 443 857 443 818.5 518.5 c 128,-1,93
 780 594 780 594 711 645 c 0,94,95
 691 660 691 660 666 674 c 0,96,97
 662 676 662 676 653.5 679.5 c 128,-1,98
 645 683 645 683 641 685 c 0,99,100
 619 698 619 698 619 718 c 0,101,102
 619 733 619 733 629.5 743.5 c 128,-1,103
 640 754 640 754 655 754 c 0,104,105
 662 754 662 754 669 751 c 0,106,107
 787 700 787 700 858 592.5 c 128,-1,74
 929 485 929 485 929 357 c 128,-1,75
EndSplineSet
EndChar

StartChar: qrcode
Encoding: 61481 61481 65
Width: 785
Flags: W
LayerCount: 2
Fore
SplineSet
214 214 m 1,0,-1
 214 143 l 1,1,-1
 143 143 l 1,2,-1
 143 214 l 1,3,-1
 214 214 l 1,0,-1
214 643 m 1,4,-1
 214 571 l 1,5,-1
 143 571 l 1,6,-1
 143 643 l 1,7,-1
 214 643 l 1,4,-1
643 643 m 1,8,-1
 643 571 l 1,9,-1
 571 571 l 1,10,-1
 571 643 l 1,11,-1
 643 643 l 1,8,-1
71 72 m 1,12,-1
 286 72 l 1,13,-1
 286 286 l 1,14,-1
 71 286 l 1,15,-1
 71 72 l 1,12,-1
71 500 m 1,16,-1
 286 500 l 1,17,-1
 286 714 l 1,18,-1
 71 714 l 1,19,-1
 71 500 l 1,16,-1
500 500 m 1,20,-1
 714 500 l 1,21,-1
 714 714 l 1,22,-1
 500 714 l 1,23,-1
 500 500 l 1,20,-1
357 357 m 1,24,-1
 357 0 l 1,25,-1
 0 0 l 1,26,-1
 0 357 l 1,27,-1
 357 357 l 1,24,-1
643 71 m 1,28,-1
 643 0 l 1,29,-1
 571 0 l 1,30,-1
 571 71 l 1,31,-1
 643 71 l 1,28,-1
786 71 m 1,32,-1
 786 0 l 1,33,-1
 714 0 l 1,34,-1
 714 71 l 1,35,-1
 786 71 l 1,32,-1
786 357 m 1,36,-1
 786 143 l 1,37,-1
 571 143 l 1,38,-1
 571 214 l 1,39,-1
 500 214 l 1,40,-1
 500 0 l 1,41,-1
 429 0 l 1,42,-1
 429 357 l 1,43,-1
 643 357 l 1,44,-1
 643 286 l 1,45,-1
 714 286 l 1,46,-1
 714 357 l 1,47,-1
 786 357 l 1,36,-1
357 786 m 1,48,-1
 357 429 l 1,49,-1
 0 429 l 1,50,-1
 0 786 l 1,51,-1
 357 786 l 1,48,-1
786 786 m 1,52,-1
 786 429 l 1,53,-1
 429 429 l 1,54,-1
 429 786 l 1,55,-1
 786 786 l 1,52,-1
EndSplineSet
EndChar

StartChar: barcode
Encoding: 61482 61482 66
Width: 1000
Flags: W
LayerCount: 2
Fore
SplineSet
35 0 m 1,0,-1
 0 0 l 1,1,-1
 0 786 l 1,2,-1
 35 786 l 1,3,-1
 35 0 l 1,0,-1
70 1 m 1,4,-1
 52 1 l 1,5,-1
 52 786 l 1,6,-1
 70 786 l 1,7,-1
 70 1 l 1,4,-1
123 1 m 1,8,-1
 105 1 l 1,9,-1
 105 786 l 1,10,-1
 123 786 l 1,11,-1
 123 1 l 1,8,-1
210 1 m 1,12,-1
 193 1 l 1,13,-1
 193 786 l 1,14,-1
 210 786 l 1,15,-1
 210 1 l 1,12,-1
298 1 m 1,16,-1
 263 1 l 1,17,-1
 263 786 l 1,18,-1
 298 786 l 1,19,-1
 298 1 l 1,16,-1
368 1 m 1,20,-1
 351 1 l 1,21,-1
 351 786 l 1,22,-1
 368 786 l 1,23,-1
 368 1 l 1,20,-1
403 1 m 1,24,-1
 386 1 l 1,25,-1
 386 786 l 1,26,-1
 403 786 l 1,27,-1
 403 1 l 1,24,-1
439 1 m 1,28,-1
 421 1 l 1,29,-1
 421 786 l 1,30,-1
 439 786 l 1,31,-1
 439 1 l 1,28,-1
526 1 m 1,32,-1
 491 1 l 1,33,-1
 491 786 l 1,34,-1
 526 786 l 1,35,-1
 526 1 l 1,32,-1
614 1 m 1,36,-1
 579 1 l 1,37,-1
 579 786 l 1,38,-1
 614 786 l 1,39,-1
 614 1 l 1,36,-1
684 1 m 1,40,-1
 649 1 l 1,41,-1
 649 786 l 1,42,-1
 684 786 l 1,43,-1
 684 1 l 1,40,-1
754 1 m 1,44,-1
 719 1 l 1,45,-1
 719 786 l 1,46,-1
 754 786 l 1,47,-1
 754 1 l 1,44,-1
807 1 m 1,48,-1
 772 1 l 1,49,-1
 772 786 l 1,50,-1
 807 786 l 1,51,-1
 807 1 l 1,48,-1
912 1 m 1,52,-1
 860 1 l 1,53,-1
 860 786 l 1,54,-1
 912 786 l 1,55,-1
 912 1 l 1,52,-1
948 1 m 1,56,-1
 930 1 l 1,57,-1
 930 786 l 1,58,-1
 948 786 l 1,59,-1
 948 1 l 1,56,-1
1000 0 m 1,60,-1
 965 0 l 1,61,-1
 965 786 l 1,62,-1
 1000 786 l 1,63,-1
 1000 0 l 1,60,-1
EndSplineSet
EndChar

StartChar: tag
Encoding: 61483 61483 67
Width: 857
Flags: W
LayerCount: 2
Fore
SplineSet
250 607.5 m 128,-1,1
 250 637 250 637 229 658 c 128,-1,2
 208 679 208 679 178.5 679 c 128,-1,3
 149 679 149 679 128 658 c 128,-1,4
 107 637 107 637 107 607.5 c 128,-1,5
 107 578 107 578 128 557 c 128,-1,6
 149 536 149 536 178.5 536 c 128,-1,7
 208 536 208 536 229 557 c 128,-1,0
 250 578 250 578 250 607.5 c 128,-1,1
845 286 m 0,8,9
 845 256 845 256 825 235 c 2,10,-1
 551 -39 l 2,11,12
 529 -60 529 -60 500 -60 c 0,13,14
 470 -60 470 -60 450 -39 c 2,15,-1
 51 360 l 2,16,17
 30 381 30 381 15 417 c 128,-1,18
 0 453 0 453 0 482 c 2,19,-1
 0 714 l 2,20,21
 0 743 0 743 21 764.5 c 128,-1,22
 42 786 42 786 71 786 c 2,23,-1
 304 786 l 2,24,25
 334 786 334 786 369.5 771 c 128,-1,26
 405 756 405 756 426 735 c 2,27,-1
 825 336 l 2,28,29
 845 315 845 315 845 286 c 0,8,9
EndSplineSet
EndChar

StartChar: tags
Encoding: 61484 61484 68
Width: 1071
Flags: W
LayerCount: 2
Fore
SplineSet
250 607.5 m 128,-1,1
 250 637 250 637 229 658 c 128,-1,2
 208 679 208 679 178.5 679 c 128,-1,3
 149 679 149 679 128 658 c 128,-1,4
 107 637 107 637 107 607.5 c 128,-1,5
 107 578 107 578 128 557 c 128,-1,6
 149 536 149 536 178.5 536 c 128,-1,7
 208 536 208 536 229 557 c 128,-1,0
 250 578 250 578 250 607.5 c 128,-1,1
845 286 m 0,8,9
 845 256 845 256 825 235 c 2,10,-1
 551 -39 l 2,11,12
 529 -60 529 -60 500 -60 c 0,13,14
 470 -60 470 -60 450 -39 c 2,15,-1
 51 360 l 2,16,17
 30 381 30 381 15 417 c 128,-1,18
 0 453 0 453 0 482 c 2,19,-1
 0 714 l 2,20,21
 0 743 0 743 21 764.5 c 128,-1,22
 42 786 42 786 71 786 c 2,23,-1
 304 786 l 2,24,25
 334 786 334 786 369.5 771 c 128,-1,26
 405 756 405 756 426 735 c 2,27,-1
 825 336 l 2,28,29
 845 315 845 315 845 286 c 0,8,9
1060 286 m 0,30,31
 1060 256 1060 256 1039 235 c 2,32,-1
 765 -39 l 2,33,34
 743 -60 743 -60 714 -60 c 0,35,36
 694 -60 694 -60 681.5 -52 c 128,-1,37
 669 -44 669 -44 652 -27 c 1,38,-1
 914 235 l 2,39,40
 935 256 935 256 935 286 c 0,41,42
 935 315 935 315 914 336 c 2,43,-1
 515 735 l 2,44,45
 494 756 494 756 458 771 c 128,-1,46
 422 786 422 786 393 786 c 2,47,-1
 518 786 l 2,48,49
 548 786 548 786 583.5 771 c 128,-1,50
 619 756 619 756 640 735 c 2,51,-1
 1039 336 l 2,52,53
 1060 315 1060 315 1060 286 c 0,30,31
EndSplineSet
EndChar

StartChar: book
Encoding: 61485 61485 69
Width: 928
Flags: W
LayerCount: 2
Fore
SplineSet
915 590 m 0,0,1
 937 558 937 558 925 518 c 2,2,-1
 771 13 l 2,3,4
 760 -23 760 -23 728 -47 c 128,-1,5
 696 -71 696 -71 660 -71 c 2,6,-1
 145 -71 l 2,7,8
 102 -71 102 -71 62 -41.5 c 128,-1,9
 22 -12 22 -12 7 32 c 0,10,11
 -6 69 -6 69 6 103 c 0,12,13
 6 105 6 105 7.5 118 c 128,-1,14
 9 131 9 131 9 138 c 1,15,16
 10 142 10 142 8 150 c 128,-1,17
 6 158 6 158 6 161 c 0,18,19
 7 167 7 167 10.5 173 c 128,-1,20
 14 179 14 179 20 186.5 c 128,-1,21
 26 194 26 194 29 199 c 0,22,23
 42 220 42 220 54 250 c 128,-1,24
 66 280 66 280 71 301 c 0,25,26
 73 307 73 307 71.5 318 c 128,-1,27
 70 329 70 329 71 334 c 0,28,29
 73 340 73 340 80.5 349.5 c 128,-1,30
 88 359 88 359 90 362 c 0,31,32
 102 382 102 382 113.5 413.5 c 128,-1,33
 125 445 125 445 127 464 c 0,34,35
 128 469 128 469 126 481.5 c 128,-1,36
 124 494 124 494 126 497 c 1,37,38
 128 504 128 504 138 514 c 128,-1,39
 148 524 148 524 151 527 c 0,40,41
 162 542 162 542 175 574.5 c 128,-1,42
 188 607 188 607 190 628 c 0,43,44
 191 632 191 632 188.5 642 c 128,-1,45
 186 652 186 652 187 657 c 0,46,47
 188 661 188 661 192 666.5 c 128,-1,48
 196 672 196 672 202 679.5 c 128,-1,49
 208 687 208 687 211 691 c 0,50,51
 215 698 215 698 220 708.5 c 128,-1,52
 225 719 225 719 229 728 c 128,-1,53
 233 737 233 737 238 748 c 128,-1,54
 243 759 243 759 248.5 766 c 128,-1,55
 254 773 254 773 263.5 779 c 128,-1,56
 273 785 273 785 284 785.5 c 128,-1,57
 295 786 295 786 310 782 c 1,58,-1
 310 781 l 1,59,60
 331 786 331 786 338 786 c 2,61,-1
 763 786 l 2,62,63
 804 786 804 786 826.5 754.5 c 128,-1,64
 849 723 849 723 836 682 c 2,65,-1
 684 176 l 2,66,67
 664 110 664 110 644 90.5 c 128,-1,68
 624 71 624 71 572 71 c 2,69,-1
 87 71 l 2,70,71
 72 71 72 71 66 63 c 0,72,73
 60 54 60 54 65 39 c 0,74,75
 78 0 78 0 146 0 c 2,76,-1
 661 0 l 2,77,78
 677 0 677 0 692 8.5 c 128,-1,79
 707 17 707 17 711 32 c 2,80,-1
 879 583 l 2,81,82
 883 595 883 595 882 614 c 1,83,84
 903 606 903 606 915 590 c 0,0,1
321 589 m 2,85,86
 319 582 319 582 322 576.5 c 128,-1,87
 325 571 325 571 333 571 c 2,88,-1
 672 571 l 2,89,90
 679 571 679 571 686.5 576.5 c 128,-1,91
 694 582 694 582 696 589 c 2,92,-1
 708 625 l 2,93,94
 710 632 710 632 706.5 637.5 c 128,-1,95
 703 643 703 643 695 643 c 2,96,-1
 356 643 l 2,97,98
 349 643 349 643 342 637.5 c 128,-1,99
 335 632 335 632 333 625 c 2,100,-1
 321 589 l 2,85,86
275 446 m 2,101,102
 273 439 273 439 276 434 c 128,-1,103
 279 429 279 429 287 429 c 2,104,-1
 626 429 l 2,105,106
 633 429 633 429 640 434 c 128,-1,107
 647 439 647 439 650 446 c 2,108,-1
 661 482 l 2,109,110
 663 489 663 489 660 494.5 c 128,-1,111
 657 500 657 500 649 500 c 2,112,-1
 310 500 l 2,113,114
 303 500 303 500 296 494.5 c 128,-1,115
 289 489 289 489 286 482 c 2,116,-1
 275 446 l 2,101,102
EndSplineSet
EndChar

StartChar: bookmark
Encoding: 61486 61486 70
Width: 714
Flags: W
LayerCount: 2
Fore
SplineSet
650 786 m 2,0,1
 663 786 663 786 674 781 c 0,2,3
 692 774 692 774 703 758 c 128,-1,4
 714 742 714 742 714 723 c 2,5,-1
 714 4 l 2,6,7
 714 -15 714 -15 703.5 -30.5 c 128,-1,8
 693 -46 693 -46 674 -54 c 0,9,10
 663 -58 663 -58 650 -58 c 0,11,12
 623 -58 623 -58 603 -40 c 2,13,-1
 357 196 l 1,14,-1
 111 -40 l 2,15,16
 91 -58 91 -58 65 -59 c 0,17,18
 52 -59 52 -59 40 -54 c 0,19,20
 22 -47 22 -47 11 -31 c 128,-1,21
 0 -15 0 -15 0 4 c 2,22,-1
 0 723 l 2,23,24
 0 742 0 742 11 757.5 c 128,-1,25
 22 773 22 773 40 781 c 0,26,27
 52 786 52 786 65 786 c 2,28,-1
 650 786 l 2,0,1
EndSplineSet
EndChar

StartChar: print
Encoding: 61487 61487 71
Width: 928
Flags: W
LayerCount: 2
Fore
SplineSet
214 0 m 1,0,-1
 714 0 l 1,1,-1
 714 143 l 1,2,-1
 214 143 l 1,3,-1
 214 0 l 1,0,-1
214 357 m 1,4,-1
 714 357 l 1,5,-1
 714 571 l 1,6,-1
 625 571 l 2,7,8
 603 571 603 571 587 587 c 128,-1,9
 571 603 571 603 571 625 c 2,10,-1
 571 714 l 1,11,-1
 214 714 l 1,12,-1
 214 357 l 1,4,-1
857 321.5 m 128,-1,14
 857 336 857 336 846.5 346.5 c 128,-1,15
 836 357 836 357 821.5 357 c 128,-1,16
 807 357 807 357 796.5 346.5 c 128,-1,17
 786 336 786 336 786 321.5 c 128,-1,18
 786 307 786 307 796.5 296.5 c 128,-1,19
 807 286 807 286 821.5 286 c 128,-1,20
 836 286 836 286 846.5 296.5 c 128,-1,13
 857 307 857 307 857 321.5 c 128,-1,14
929 321 m 2,21,-1
 929 89 l 2,22,23
 929 82 929 82 923.5 76.5 c 128,-1,24
 918 71 918 71 911 71 c 2,25,-1
 786 71 l 1,26,-1
 786 -18 l 2,27,28
 786 -40 786 -40 770 -55.5 c 128,-1,29
 754 -71 754 -71 732 -71 c 2,30,-1
 196 -71 l 2,31,32
 174 -71 174 -71 158.5 -55.5 c 128,-1,33
 143 -40 143 -40 143 -18 c 2,34,-1
 143 71 l 1,35,-1
 18 71 l 2,36,37
 11 71 11 71 5.5 76.5 c 128,-1,38
 0 82 0 82 0 89 c 2,39,-1
 0 321 l 2,40,41
 0 365 0 365 31.5 397 c 128,-1,42
 63 429 63 429 107 429 c 2,43,-1
 143 429 l 1,44,-1
 143 732 l 2,45,46
 143 754 143 754 158.5 770 c 128,-1,47
 174 786 174 786 196 786 c 2,48,-1
 571 786 l 2,49,50
 593 786 593 786 620 774.5 c 128,-1,51
 647 763 647 763 663 748 c 2,52,-1
 748 663 l 2,53,54
 764 647 764 647 775 620.5 c 128,-1,55
 786 594 786 594 786 571 c 2,56,-1
 786 429 l 1,57,-1
 821 429 l 2,58,59
 865 429 865 429 897 397 c 128,-1,60
 929 365 929 365 929 321 c 2,21,-1
EndSplineSet
EndChar

StartChar: camera
Encoding: 61488 61488 72
Width: 1071
Flags: W
LayerCount: 2
Fore
SplineSet
535.5 482 m 128,-1,1
 602 482 602 482 649 435 c 128,-1,2
 696 388 696 388 696 321.5 c 128,-1,3
 696 255 696 255 649 208 c 128,-1,4
 602 161 602 161 535.5 161 c 128,-1,5
 469 161 469 161 422 208 c 128,-1,6
 375 255 375 255 375 321.5 c 128,-1,7
 375 388 375 388 422 435 c 128,-1,0
 469 482 469 482 535.5 482 c 128,-1,1
929 714 m 2,8,9
 988 714 988 714 1029.5 672.5 c 128,-1,10
 1071 631 1071 631 1071 571 c 2,11,-1
 1071 71 l 2,12,13
 1071 12 1071 12 1029.5 -29.5 c 128,-1,14
 988 -71 988 -71 929 -71 c 2,15,-1
 143 -71 l 2,16,17
 84 -71 84 -71 42 -29.5 c 128,-1,18
 0 12 0 12 0 71 c 2,19,-1
 0 571 l 2,20,21
 0 630 0 630 42 672 c 128,-1,22
 84 714 84 714 143 714 c 2,23,-1
 268 714 l 1,24,-1
 296 790 l 2,25,26
 307 817 307 817 335 837 c 128,-1,27
 363 857 363 857 393 857 c 2,28,-1
 679 857 l 2,29,30
 709 857 709 857 737 837.5 c 128,-1,31
 765 818 765 818 775 790 c 2,32,-1
 804 714 l 1,33,-1
 929 714 l 2,8,9
535.5 71 m 128,-1,35
 639 71 639 71 712.5 144.5 c 128,-1,36
 786 218 786 218 786 321.5 c 128,-1,37
 786 425 786 425 712.5 498 c 128,-1,38
 639 571 639 571 535.5 571 c 128,-1,39
 432 571 432 571 359 498 c 128,-1,40
 286 425 286 425 286 321.5 c 128,-1,41
 286 218 286 218 359 144.5 c 128,-1,34
 432 71 432 71 535.5 71 c 128,-1,35
EndSplineSet
EndChar

StartChar: font
Encoding: 61489 61489 73
Width: 928
Flags: W
LayerCount: 2
Fore
SplineSet
405 545 m 1,0,-1
 310 294 l 1,1,2
 351 293 351 293 395.5 292.5 c 128,-1,3
 440 292 440 292 461.5 292 c 128,-1,4
 483 292 483 292 491 292 c 2,5,-1
 507 293 l 1,6,7
 489 346 489 346 456 427 c 1,8,9
 427 501 427 501 405 545 c 1,0,-1
12 -71 m 2,10,-1
 0 -71 l 1,11,-1
 1 -27 l 1,12,13
 13 -23 13 -23 46 -17 c 0,14,15
 96 -8 96 -8 107 0 c 0,16,17
 118 9 118 9 134 38 c 1,18,-1
 266 382 l 1,19,-1
 422 786 l 1,20,-1
 464 786 l 1,21,-1
 494 786 l 1,22,-1
 500 774 l 1,23,-1
 614 506 l 2,24,25
 671 371 671 371 684 340 c 0,26,27
 706 283 706 283 737 209 c 1,28,29
 752 177 752 177 773 118 c 0,30,31
 786 81 786 81 810 35 c 1,32,33
 822 8 822 8 829 3 c 1,34,35
 841 -8 841 -8 868 -10 c 1,36,37
 894 -13 894 -13 925 -25 c 1,38,39
 928 -47 928 -47 929 -57 c 0,40,41
 929 -65 929 -65 928 -71 c 1,42,43
 883 -71 883 -71 821 -67 c 1,44,45
 769 -62 769 -62 715 -62 c 0,46,47
 671 -62 671 -62 640 -64 c 2,48,-1
 528 -70 l 1,49,-1
 496 -71 l 1,50,51
 496 -46 496 -46 498 -27 c 1,52,-1
 571 -12 l 2,53,54
 602 -5 602 -5 609 1 c 0,55,56
 616 8 616 8 616 16.5 c 128,-1,57
 616 25 616 25 613 34 c 2,58,-1
 586 98 l 1,59,-1
 535 225 l 1,60,-1
 284 226 l 1,61,62
 268 190 268 190 226 73 c 0,63,64
 213 37 213 37 213 26 c 0,65,66
 213 9 213 9 223 2 c 0,67,68
 238 -10 238 -10 280 -16 c 0,69,70
 282 -16 282 -16 288 -17 c 128,-1,71
 294 -18 294 -18 304.5 -19.5 c 128,-1,72
 315 -21 315 -21 327 -23 c 1,73,74
 328 -39 328 -39 328 -55 c 0,75,76
 328 -64 328 -64 326 -70 c 1,77,78
 289 -70 289 -70 132 -59 c 1,79,-1
 105 -64 l 1,80,81
 60 -71 60 -71 12 -71 c 2,10,-1
EndSplineSet
EndChar

StartChar: bold
Encoding: 61490 61490 74
Width: 785
Flags: W
LayerCount: 2
Fore
SplineSet
310 8 m 1,0,1
 352 -10 352 -10 388 -9 c 1,2,3
 461 -9 461 -9 508.5 13.5 c 128,-1,4
 556 36 556 36 576 76 c 1,5,6
 597 115 597 115 598 177 c 1,7,8
 598 241 598 241 575 278 c 0,9,10
 543 330 543 330 496 348 c 0,11,12
 451 366 451 366 358 366 c 0,13,14
 317 366 317 366 302 360 c 1,15,-1
 302 280 l 1,16,-1
 301 184 l 1,17,-1
 303 33 l 2,18,19
 303 24 303 24 310 8 c 1,0,1
302 425 m 1,20,21
 326 421 326 421 363 421 c 0,22,23
 461 421 461 421 510.5 457 c 128,-1,24
 560 493 560 493 560 582 c 0,25,26
 560 644 560 644 512 686 c 0,27,28
 465 728 465 728 370 728 c 0,29,30
 341 728 341 728 297 721 c 1,31,32
 297 696 297 696 299 678 c 0,33,34
 303 610 303 610 302 522 c 2,35,-1
 301 468 l 2,36,37
 301 444 301 444 302 425 c 1,20,21
0 -71 m 1,38,-1
 1 -19 l 1,39,40
 26 -14 26 -14 39 -12 c 0,41,42
 82 -5 82 -5 108 5 c 1,43,44
 117 20 117 20 119 33 c 0,45,46
 124 70 124 70 124 142 c 2,47,-1
 123 419 l 1,48,49
 120 562 120 562 118 645 c 0,50,51
 117 694 117 694 112 705 c 0,52,53
 111 707 111 707 105 712 c 0,54,55
 95 719 95 719 67 720 c 0,56,57
 50 721 50 721 3 728 c 1,58,-1
 1 774 l 1,59,-1
 146 777 l 1,60,-1
 358 785 l 1,61,-1
 383 785 l 2,62,63
 386 785 386 785 391 785.5 c 128,-1,64
 396 786 396 786 399 786 c 0,65,66
 400 786 400 786 411 785.5 c 128,-1,67
 422 785 422 785 434 785 c 2,68,-1
 475 785 l 2,69,70
 524 785 524 785 581 770 c 0,71,72
 605 763 605 763 635 748 c 0,73,74
 667 732 667 732 692 706 c 128,-1,75
 717 680 717 680 728.5 648 c 128,-1,76
 740 616 740 616 740 580 c 0,77,78
 740 541 740 541 722 508.5 c 128,-1,79
 704 476 704 476 669 450 c 0,80,81
 654 439 654 439 585 407 c 1,82,83
 684 384 684 384 734 325 c 0,84,85
 785 266 785 266 786 194 c 0,86,87
 786 152 786 152 770 104 c 0,88,89
 758 69 758 69 730 39 c 0,90,91
 693 -1 693 -1 652 -22 c 0,92,93
 611 -42 611 -42 539 -55 c 0,94,95
 493 -63 493 -63 428 -61 c 2,96,-1
 318 -59 l 2,97,98
 271 -58 271 -58 152 -65 c 0,99,100
 133 -67 133 -67 0 -71 c 1,38,-1
EndSplineSet
EndChar

StartChar: italic
Encoding: 61491 61491 75
Width: 571
Flags: W
LayerCount: 2
Fore
SplineSet
0 -70 m 1,0,-1
 9 -23 l 1,1,2
 11 -22 11 -22 52 -12 c 0,3,4
 94 -1 94 -1 117 10 c 1,5,6
 133 31 133 31 140 66 c 2,7,-1
 155 144 l 1,8,-1
 186 294 l 1,9,-1
 193 329 l 2,10,11
 197 354 197 354 202.5 376.5 c 128,-1,12
 208 399 208 399 211.5 414 c 128,-1,13
 215 429 215 429 218.5 440 c 128,-1,14
 222 451 222 451 224 457 c 2,15,-1
 225 463 l 1,16,-1
 242 551 l 1,17,-1
 251 586 l 1,18,-1
 263 661 l 1,19,-1
 267 689 l 1,20,-1
 267 710 l 1,21,22
 244 722 244 722 187 726 c 0,23,24
 171 727 171 727 166 728 c 1,25,-1
 176 786 l 1,26,-1
 353 778 l 2,27,28
 375 777 375 777 394 777 c 0,29,30
 431 777 431 777 513 782 c 0,31,32
 531 783 531 783 551 784 c 2,33,-1
 571 786 l 1,34,35
 570 775 570 775 568 765 c 0,36,37
 564 749 564 749 561 736 c 1,38,39
 530 725 530 725 500 719 c 1,40,41
 464 710 464 710 444 701 c 1,42,43
 437 684 437 684 430 652 c 0,44,45
 425 627 425 627 423 607 c 1,46,47
 398 496 398 496 386 436 c 2,48,-1
 352 262 l 1,49,-1
 331 174 l 1,50,-1
 307 43 l 1,51,-1
 300 18 l 2,52,53
 299 14 299 14 301 3 c 1,54,55
 337 -5 337 -5 367 -9 c 0,56,57
 387 -12 387 -12 404 -15 c 1,58,59
 403 -31 403 -31 400 -47 c 0,60,61
 396 -64 396 -64 395 -70 c 1,62,63
 385 -70 385 -70 382 -70 c 0,64,65
 369 -71 369 -71 359 -71 c 0,66,67
 354 -71 354 -71 343 -70 c 0,68,69
 332 -68 332 -68 262 -60 c 1,70,-1
 152 -59 l 2,71,72
 129 -58 129 -58 55 -65 c 0,73,74
 13 -69 13 -69 0 -70 c 1,0,-1
EndSplineSet
EndChar

StartChar: text_height
Encoding: 61492 61492 76
Width: 1000
Flags: W
LayerCount: 2
Fore
SplineSet
45 785 m 1,0,-1
 75 770 l 1,1,2
 86 767 86 767 193 767 c 2,3,-1
 266 767 l 1,4,-1
 276 769 l 1,5,-1
 340 770 l 1,6,-1
 460 769 l 1,7,-1
 624 769 l 1,8,-1
 643 768 l 2,9,10
 651 767 651 767 658.5 771.5 c 128,-1,11
 666 776 666 776 670 781 c 2,12,-1
 674 785 l 1,13,-1
 698 786 l 2,14,15
 706 786 706 786 713 785 c 1,16,17
 713 770 713 770 713 726.5 c 128,-1,18
 713 683 713 683 714 653 c 1,19,-1
 714 598 l 1,20,-1
 714 565 l 2,21,22
 714 547 714 547 711 537 c 1,23,24
 689 529 689 529 674 527 c 1,25,26
 660 551 660 551 643 598 c 0,27,28
 639 611 639 611 635 633 c 128,-1,29
 631 655 631 655 628.5 670 c 128,-1,30
 626 685 626 685 625 686 c 0,31,32
 618 694 618 694 610 696 c 0,33,34
 606 697 606 697 586 697.5 c 128,-1,35
 566 698 566 698 528.5 697 c 128,-1,36
 491 696 491 696 467 696 c 0,37,38
 448 696 448 696 429 694 c 1,39,40
 423 640 423 640 425 618 c 1,41,-1
 425 533 l 1,42,-1
 425 348 l 1,43,-1
 427 147 l 1,44,-1
 426 65 l 2,45,46
 425 39 425 39 432 18 c 1,47,48
 459 4 459 4 482 0 c 0,49,50
 483 0 483 0 492 -3 c 128,-1,51
 501 -6 501 -6 516.5 -10.5 c 128,-1,52
 532 -15 532 -15 541 -17 c 0,53,54
 558 -21 558 -21 569 -27 c 1,55,56
 572 -52 572 -52 571 -55 c 1,57,58
 571 -61 571 -61 570 -71 c 1,59,60
 562 -72 562 -72 551 -71 c 1,61,62
 490 -71 490 -71 446 -66 c 0,63,64
 406 -62 406 -62 314 -61 c 0,65,66
 265 -61 265 -61 184 -69 c 0,67,68
 157 -71 157 -71 145 -71 c 1,69,70
 144 -59 144 -59 143 -57 c 1,71,-1
 143 -42 l 1,72,-1
 143 -37 l 1,73,74
 155 -19 155 -19 187 -10 c 0,75,76
 265 11 265 11 276 18 c 1,77,78
 281 30 281 30 282 49 c 0,79,80
 286 156 286 156 286 291 c 1,81,-1
 283 530 l 2,82,83
 282 565 282 565 282.5 596 c 128,-1,84
 283 627 283 627 283 653 c 128,-1,85
 283 679 283 679 282 685 c 128,-1,86
 281 691 281 691 278 693 c 0,87,88
 275 696 275 696 271 696 c 0,89,90
 250 699 250 699 188 700 c 0,91,92
 164 700 164 700 132 692.5 c 128,-1,93
 100 685 100 685 92 679 c 0,94,95
 85 674 85 674 79.5 660.5 c 128,-1,96
 74 647 74 647 67 618.5 c 128,-1,97
 60 590 60 590 54 571 c 0,98,99
 51 560 51 560 43 553 c 128,-1,100
 35 546 35 546 31 546 c 1,101,102
 6 561 6 561 0 571 c 1,103,-1
 0 737 l 1,104,-1
 0 785 l 1,105,-1
 45 785 l 1,0,-1
973 71 m 2,106,107
 991 71 991 71 996.5 61 c 128,-1,108
 1002 51 1002 51 991 36 c 2,109,-1
 920 -54 l 2,110,111
 909 -69 909 -69 893 -69 c 128,-1,112
 877 -69 877 -69 866 -54 c 2,113,-1
 795 36 l 2,114,115
 784 51 784 51 789 61 c 128,-1,116
 794 71 794 71 812 71 c 2,117,-1
 857 71 l 1,118,-1
 857 643 l 1,119,-1
 812 643 l 2,120,121
 794 643 794 643 789 653.5 c 128,-1,122
 784 664 784 664 795 678 c 2,123,-1
 866 768 l 2,124,125
 877 783 877 783 893 783 c 128,-1,126
 909 783 909 783 920 768 c 2,127,-1
 991 678 l 2,128,129
 1002 663 1002 663 997 653 c 128,-1,130
 992 643 992 643 973 643 c 2,131,-1
 929 643 l 1,132,-1
 929 71 l 1,133,-1
 973 71 l 2,106,107
EndSplineSet
EndChar

StartChar: text_width
Encoding: 61493 61493 77
Width: 857
Flags: W
LayerCount: 2
Fore
SplineSet
45 785 m 1,0,-1
 75 770 l 1,1,2
 86 767 86 767 193 767 c 2,3,-1
 266 767 l 1,4,-1
 276 769 l 1,5,-1
 340 770 l 1,6,-1
 589 769 l 1,7,-1
 767 769 l 1,8,-1
 786 768 l 2,9,10
 794 767 794 767 801.5 771.5 c 128,-1,11
 809 776 809 776 813 781 c 2,12,-1
 817 785 l 1,13,-1
 840 786 l 2,14,15
 848 786 848 786 856 785 c 1,16,17
 856 770 856 770 856 726.5 c 128,-1,18
 856 683 856 683 857 653 c 1,19,-1
 857 598 l 1,20,-1
 857 565 l 2,21,22
 857 547 857 547 854 537 c 1,23,24
 832 529 832 529 816 527 c 1,25,26
 802 551 802 551 786 598 c 0,27,28
 782 611 782 611 777.5 633 c 128,-1,29
 773 655 773 655 771 670 c 128,-1,30
 769 685 769 685 768 686 c 0,31,32
 761 694 761 694 753 696 c 0,33,34
 749 697 749 697 720 697.5 c 128,-1,35
 691 698 691 698 642.5 697 c 128,-1,36
 594 696 594 696 571 696 c 0,37,38
 519 696 519 696 501 694 c 1,39,40
 495 640 495 640 496 618 c 2,41,-1
 497 533 l 1,42,-1
 497 562 l 1,43,-1
 498 362 l 1,44,-1
 498 280 l 1,45,46
 497 254 497 254 504 232 c 1,47,48
 531 218 531 218 554 214 c 0,49,50
 555 214 555 214 564 211.5 c 128,-1,51
 573 209 573 209 588.5 204.5 c 128,-1,52
 604 200 604 200 612 198 c 0,53,54
 629 194 629 194 640 188 c 1,55,56
 643 163 643 163 643 160 c 0,57,58
 643 154 643 154 641 143 c 1,59,60
 633 142 633 142 622 143 c 1,61,62
 561 143 561 143 518 148 c 0,63,64
 478 152 478 152 385 153 c 0,65,66
 339 153 339 153 255 146 c 0,67,68
 230 143 230 143 216 143 c 1,69,70
 215 155 215 155 215 157 c 2,71,-1
 214 172 l 1,72,-1
 214 177 l 1,73,74
 226 195 226 195 258 204 c 0,75,76
 336 225 336 225 347 232 c 1,77,78
 352 244 352 244 354 263 c 1,79,80
 357 339 357 339 357 505 c 1,81,-1
 354 530 l 1,82,83
 354 678 354 678 353 685 c 0,84,85
 352 691 352 691 350 693 c 0,86,87
 347 696 347 696 342 696 c 0,88,89
 321 699 321 699 259 700 c 0,90,91
 231 700 231 700 165 692 c 128,-1,92
 99 684 99 684 92 679 c 128,-1,93
 85 674 85 674 79.5 660.5 c 128,-1,94
 74 647 74 647 67 618.5 c 128,-1,95
 60 590 60 590 54 571 c 0,96,97
 51 560 51 560 43 553 c 128,-1,98
 35 546 35 546 31 546 c 1,99,100
 6 561 6 561 0 571 c 1,101,-1
 0 737 l 1,102,-1
 0 785 l 1,103,-1
 45 785 l 1,0,-1
840 63 m 2,104,105
 855 52 855 52 854.5 36 c 128,-1,106
 854 20 854 20 840 8 c 2,107,-1
 749 -62 l 2,108,109
 734 -73 734 -73 724 -68 c 128,-1,110
 714 -63 714 -63 714 -45 c 2,111,-1
 714 0 l 1,112,-1
 143 0 l 1,113,-1
 143 -45 l 2,114,115
 143 -63 143 -63 132.5 -68 c 128,-1,116
 122 -73 122 -73 108 -62 c 2,117,-1
 17 8 l 2,118,119
 2 19 2 19 2.5 35.5 c 128,-1,120
 3 52 3 52 17 63 c 2,121,-1
 108 133 l 2,122,123
 123 144 123 144 133 139 c 128,-1,124
 143 134 143 134 143 116 c 2,125,-1
 143 71 l 1,126,-1
 714 71 l 1,127,-1
 714 116 l 2,128,129
 714 134 714 134 724.5 139.5 c 128,-1,130
 735 145 735 145 749 133 c 2,131,-1
 840 63 l 2,104,105
EndSplineSet
EndChar

StartChar: align_left
Encoding: 61494 61494 78
Width: 1000
Flags: W
LayerCount: 2
Fore
SplineSet
1000 107 m 2,0,-1
 1000 36 l 2,1,2
 1000 21 1000 21 989.5 10.5 c 128,-1,3
 979 0 979 0 964 0 c 2,4,-1
 36 0 l 2,5,6
 21 0 21 0 10.5 10.5 c 128,-1,7
 0 21 0 21 0 36 c 2,8,-1
 0 107 l 2,9,10
 0 122 0 122 10.5 132.5 c 128,-1,11
 21 143 21 143 36 143 c 2,12,-1
 964 143 l 2,13,14
 979 143 979 143 989.5 132.5 c 128,-1,15
 1000 122 1000 122 1000 107 c 2,0,-1
786 321 m 2,16,-1
 786 250 l 2,17,18
 786 235 786 235 775.5 224.5 c 128,-1,19
 765 214 765 214 750 214 c 2,20,-1
 36 214 l 2,21,22
 21 214 21 214 10.5 224.5 c 128,-1,23
 0 235 0 235 0 250 c 2,24,-1
 0 321 l 2,25,26
 0 336 0 336 10.5 346.5 c 128,-1,27
 21 357 21 357 36 357 c 2,28,-1
 750 357 l 2,29,30
 765 357 765 357 775.5 346.5 c 128,-1,31
 786 336 786 336 786 321 c 2,16,-1
929 536 m 2,32,-1
 929 464 l 2,33,34
 929 449 929 449 918 439 c 128,-1,35
 907 429 907 429 893 429 c 2,36,-1
 36 429 l 2,37,38
 21 429 21 429 10.5 439.5 c 128,-1,39
 0 450 0 450 0 464 c 2,40,-1
 0 536 l 2,41,42
 0 551 0 551 10.5 561 c 128,-1,43
 21 571 21 571 36 571 c 2,44,-1
 893 571 l 2,45,46
 908 571 908 571 918.5 561 c 128,-1,47
 929 551 929 551 929 536 c 2,32,-1
714 750 m 2,48,-1
 714 679 l 2,49,50
 714 664 714 664 703.5 653.5 c 128,-1,51
 693 643 693 643 679 643 c 2,52,-1
 36 643 l 2,53,54
 21 643 21 643 10.5 653.5 c 128,-1,55
 0 664 0 664 0 679 c 2,56,-1
 0 750 l 2,57,58
 0 765 0 765 10.5 775.5 c 128,-1,59
 21 786 21 786 36 786 c 2,60,-1
 679 786 l 2,61,62
 694 786 694 786 704 775.5 c 128,-1,63
 714 765 714 765 714 750 c 2,48,-1
EndSplineSet
EndChar

StartChar: align_center
Encoding: 61495 61495 79
Width: 1000
Flags: W
LayerCount: 2
Fore
SplineSet
1000 107 m 2,0,-1
 1000 36 l 2,1,2
 1000 21 1000 21 989.5 10.5 c 128,-1,3
 979 0 979 0 964 0 c 2,4,-1
 36 0 l 2,5,6
 21 0 21 0 10.5 10.5 c 128,-1,7
 0 21 0 21 0 36 c 2,8,-1
 0 107 l 2,9,10
 0 122 0 122 10.5 132.5 c 128,-1,11
 21 143 21 143 36 143 c 2,12,-1
 964 143 l 2,13,14
 979 143 979 143 989.5 132.5 c 128,-1,15
 1000 122 1000 122 1000 107 c 2,0,-1
786 321 m 2,16,-1
 786 250 l 2,17,18
 786 235 786 235 775.5 224.5 c 128,-1,19
 765 214 765 214 750 214 c 2,20,-1
 250 214 l 2,21,22
 235 214 235 214 224.5 224.5 c 128,-1,23
 214 235 214 235 214 250 c 2,24,-1
 214 321 l 2,25,26
 214 336 214 336 224.5 346.5 c 128,-1,27
 235 357 235 357 250 357 c 2,28,-1
 750 357 l 2,29,30
 765 357 765 357 775.5 346.5 c 128,-1,31
 786 336 786 336 786 321 c 2,16,-1
929 536 m 2,32,-1
 929 464 l 2,33,34
 929 449 929 449 918 439 c 128,-1,35
 907 429 907 429 893 429 c 2,36,-1
 107 429 l 2,37,38
 92 429 92 429 81.5 439.5 c 128,-1,39
 71 450 71 450 71 464 c 2,40,-1
 71 536 l 2,41,42
 71 551 71 551 82 561 c 128,-1,43
 93 571 93 571 107 571 c 2,44,-1
 893 571 l 2,45,46
 908 571 908 571 918.5 561 c 128,-1,47
 929 551 929 551 929 536 c 2,32,-1
714 750 m 2,48,-1
 714 679 l 2,49,50
 714 664 714 664 703.5 653.5 c 128,-1,51
 693 643 693 643 679 643 c 2,52,-1
 321 643 l 2,53,54
 306 643 306 643 296 653.5 c 128,-1,55
 286 664 286 664 286 679 c 2,56,-1
 286 750 l 2,57,58
 286 765 286 765 296.5 775.5 c 128,-1,59
 307 786 307 786 321 786 c 2,60,-1
 679 786 l 2,61,62
 694 786 694 786 704 775.5 c 128,-1,63
 714 765 714 765 714 750 c 2,48,-1
EndSplineSet
EndChar

StartChar: align_right
Encoding: 61496 61496 80
Width: 1000
Flags: W
LayerCount: 2
Fore
SplineSet
1000 107 m 2,0,-1
 1000 36 l 2,1,2
 1000 21 1000 21 989.5 10.5 c 128,-1,3
 979 0 979 0 964 0 c 2,4,-1
 36 0 l 2,5,6
 21 0 21 0 10.5 10.5 c 128,-1,7
 0 21 0 21 0 36 c 2,8,-1
 0 107 l 2,9,10
 0 122 0 122 10.5 132.5 c 128,-1,11
 21 143 21 143 36 143 c 2,12,-1
 964 143 l 2,13,14
 979 143 979 143 989.5 132.5 c 128,-1,15
 1000 122 1000 122 1000 107 c 2,0,-1
1000 321 m 2,16,-1
 1000 250 l 2,17,18
 1000 235 1000 235 989.5 224.5 c 128,-1,19
 979 214 979 214 964 214 c 2,20,-1
 250 214 l 2,21,22
 235 214 235 214 224.5 224.5 c 128,-1,23
 214 235 214 235 214 250 c 2,24,-1
 214 321 l 2,25,26
 214 336 214 336 224.5 346.5 c 128,-1,27
 235 357 235 357 250 357 c 2,28,-1
 964 357 l 2,29,30
 979 357 979 357 989.5 346.5 c 128,-1,31
 1000 336 1000 336 1000 321 c 2,16,-1
1000 536 m 2,32,-1
 1000 464 l 2,33,34
 1000 449 1000 449 989.5 439 c 128,-1,35
 979 429 979 429 964 429 c 2,36,-1
 107 429 l 2,37,38
 92 429 92 429 81.5 439.5 c 128,-1,39
 71 450 71 450 71 464 c 2,40,-1
 71 536 l 2,41,42
 71 551 71 551 82 561 c 128,-1,43
 93 571 93 571 107 571 c 2,44,-1
 964 571 l 2,45,46
 979 571 979 571 989.5 561 c 128,-1,47
 1000 551 1000 551 1000 536 c 2,32,-1
1000 750 m 2,48,-1
 1000 679 l 2,49,50
 1000 664 1000 664 989.5 653.5 c 128,-1,51
 979 643 979 643 964 643 c 2,52,-1
 321 643 l 2,53,54
 306 643 306 643 296 653.5 c 128,-1,55
 286 664 286 664 286 679 c 2,56,-1
 286 750 l 2,57,58
 286 765 286 765 296.5 775.5 c 128,-1,59
 307 786 307 786 321 786 c 2,60,-1
 964 786 l 2,61,62
 979 786 979 786 989.5 775.5 c 128,-1,63
 1000 765 1000 765 1000 750 c 2,48,-1
EndSplineSet
EndChar

StartChar: align_justify
Encoding: 61497 61497 81
Width: 1000
Flags: W
LayerCount: 2
Fore
SplineSet
1000 107 m 2,0,-1
 1000 36 l 2,1,2
 1000 21 1000 21 989.5 10.5 c 128,-1,3
 979 0 979 0 964 0 c 2,4,-1
 36 0 l 2,5,6
 21 0 21 0 10.5 10.5 c 128,-1,7
 0 21 0 21 0 36 c 2,8,-1
 0 107 l 2,9,10
 0 122 0 122 10.5 132.5 c 128,-1,11
 21 143 21 143 36 143 c 2,12,-1
 964 143 l 2,13,14
 979 143 979 143 989.5 132.5 c 128,-1,15
 1000 122 1000 122 1000 107 c 2,0,-1
1000 321 m 2,16,-1
 1000 250 l 2,17,18
 1000 235 1000 235 989.5 224.5 c 128,-1,19
 979 214 979 214 964 214 c 2,20,-1
 36 214 l 2,21,22
 21 214 21 214 10.5 224.5 c 128,-1,23
 0 235 0 235 0 250 c 2,24,-1
 0 321 l 2,25,26
 0 336 0 336 10.5 346.5 c 128,-1,27
 21 357 21 357 36 357 c 2,28,-1
 964 357 l 2,29,30
 979 357 979 357 989.5 346.5 c 128,-1,31
 1000 336 1000 336 1000 321 c 2,16,-1
1000 536 m 2,32,-1
 1000 464 l 2,33,34
 1000 449 1000 449 989.5 439 c 128,-1,35
 979 429 979 429 964 429 c 2,36,-1
 36 429 l 2,37,38
 21 429 21 429 10.5 439.5 c 128,-1,39
 0 450 0 450 0 464 c 2,40,-1
 0 536 l 2,41,42
 0 551 0 551 10.5 561 c 128,-1,43
 21 571 21 571 36 571 c 2,44,-1
 964 571 l 2,45,46
 979 571 979 571 989.5 561 c 128,-1,47
 1000 551 1000 551 1000 536 c 2,32,-1
1000 750 m 2,48,-1
 1000 679 l 2,49,50
 1000 664 1000 664 989.5 653.5 c 128,-1,51
 979 643 979 643 964 643 c 2,52,-1
 36 643 l 2,53,54
 21 643 21 643 10.5 653.5 c 128,-1,55
 0 664 0 664 0 679 c 2,56,-1
 0 750 l 2,57,58
 0 765 0 765 10.5 775.5 c 128,-1,59
 21 786 21 786 36 786 c 2,60,-1
 964 786 l 2,61,62
 979 786 979 786 989.5 775.5 c 128,-1,63
 1000 765 1000 765 1000 750 c 2,48,-1
EndSplineSet
EndChar

StartChar: list
Encoding: 61498 61498 82
Width: 1000
Flags: W
LayerCount: 2
Fore
SplineSet
143 125 m 2,0,-1
 143 18 l 2,1,2
 143 11 143 11 137.5 5.5 c 128,-1,3
 132 0 132 0 125 0 c 2,4,-1
 18 0 l 2,5,6
 11 0 11 0 5.5 5.5 c 128,-1,7
 0 11 0 11 0 18 c 2,8,-1
 0 125 l 2,9,10
 0 132 0 132 5.5 137.5 c 128,-1,11
 11 143 11 143 18 143 c 2,12,-1
 125 143 l 2,13,14
 132 143 132 143 137.5 137.5 c 128,-1,15
 143 132 143 132 143 125 c 2,0,-1
143 339 m 2,16,-1
 143 232 l 2,17,18
 143 225 143 225 137.5 219.5 c 128,-1,19
 132 214 132 214 125 214 c 2,20,-1
 18 214 l 2,21,22
 11 214 11 214 5.5 219.5 c 128,-1,23
 0 225 0 225 0 232 c 2,24,-1
 0 339 l 2,25,26
 0 346 0 346 5.5 351.5 c 128,-1,27
 11 357 11 357 18 357 c 2,28,-1
 125 357 l 2,29,30
 132 357 132 357 137.5 351.5 c 128,-1,31
 143 346 143 346 143 339 c 2,16,-1
143 554 m 2,32,-1
 143 446 l 2,33,34
 143 439 143 439 137.5 434 c 128,-1,35
 132 429 132 429 125 429 c 2,36,-1
 18 429 l 2,37,38
 11 429 11 429 5.5 434 c 128,-1,39
 0 439 0 439 0 446 c 2,40,-1
 0 554 l 2,41,42
 0 561 0 561 5.5 566 c 128,-1,43
 11 571 11 571 18 571 c 2,44,-1
 125 571 l 2,45,46
 132 571 132 571 137.5 566 c 128,-1,47
 143 561 143 561 143 554 c 2,32,-1
1000 125 m 2,48,-1
 1000 18 l 2,49,50
 1000 11 1000 11 994.5 5.5 c 128,-1,51
 989 0 989 0 982 0 c 2,52,-1
 232 0 l 2,53,54
 225 0 225 0 219.5 5.5 c 128,-1,55
 214 11 214 11 214 18 c 2,56,-1
 214 125 l 2,57,58
 214 132 214 132 219.5 137.5 c 128,-1,59
 225 143 225 143 232 143 c 2,60,-1
 982 143 l 2,61,62
 989 143 989 143 994.5 137.5 c 128,-1,63
 1000 132 1000 132 1000 125 c 2,48,-1
143 768 m 2,64,-1
 143 661 l 2,65,66
 143 654 143 654 137.5 648.5 c 128,-1,67
 132 643 132 643 125 643 c 2,68,-1
 18 643 l 2,69,70
 11 643 11 643 5.5 648 c 128,-1,71
 0 653 0 653 0 661 c 2,72,-1
 0 768 l 2,73,74
 0 775 0 775 5.5 780.5 c 128,-1,75
 11 786 11 786 18 786 c 2,76,-1
 125 786 l 2,77,78
 132 786 132 786 137.5 780.5 c 128,-1,79
 143 775 143 775 143 768 c 2,64,-1
1000 339 m 2,80,-1
 1000 232 l 2,81,82
 1000 225 1000 225 994.5 219.5 c 128,-1,83
 989 214 989 214 982 214 c 2,84,-1
 232 214 l 2,85,86
 225 214 225 214 219.5 219.5 c 128,-1,87
 214 225 214 225 214 232 c 2,88,-1
 214 339 l 2,89,90
 214 346 214 346 219.5 351.5 c 128,-1,91
 225 357 225 357 232 357 c 2,92,-1
 982 357 l 2,93,94
 989 357 989 357 994.5 351.5 c 128,-1,95
 1000 346 1000 346 1000 339 c 2,80,-1
1000 554 m 2,96,-1
 1000 446 l 2,97,98
 1000 439 1000 439 994.5 434 c 128,-1,99
 989 429 989 429 982 429 c 2,100,-1
 232 429 l 2,101,102
 225 429 225 429 219.5 434 c 128,-1,103
 214 439 214 439 214 446 c 2,104,-1
 214 554 l 2,105,106
 214 561 214 561 219.5 566 c 128,-1,107
 225 571 225 571 232 571 c 2,108,-1
 982 571 l 2,109,110
 989 571 989 571 994.5 566 c 128,-1,111
 1000 561 1000 561 1000 554 c 2,96,-1
1000 768 m 2,112,-1
 1000 661 l 2,113,114
 1000 654 1000 654 994.5 648.5 c 128,-1,115
 989 643 989 643 982 643 c 2,116,-1
 232 643 l 2,117,118
 225 643 225 643 219.5 648 c 128,-1,119
 214 653 214 653 214 661 c 2,120,-1
 214 768 l 2,121,122
 214 775 214 775 219.5 780.5 c 128,-1,123
 225 786 225 786 232 786 c 2,124,-1
 982 786 l 2,125,126
 989 786 989 786 994.5 780.5 c 128,-1,127
 1000 775 1000 775 1000 768 c 2,112,-1
EndSplineSet
EndChar

StartChar: indent_left
Encoding: 61499 61499 83
Width: 1000
Flags: W
LayerCount: 2
Fore
SplineSet
214 554 m 2,0,-1
 214 232 l 2,1,2
 214 225 214 225 209 219.5 c 128,-1,3
 204 214 204 214 196 214 c 128,-1,4
 188 214 188 214 184 219 c 2,5,-1
 23 380 l 2,6,7
 18 385 18 385 18 393 c 128,-1,8
 18 401 18 401 23 406 c 2,9,-1
 184 566 l 2,10,11
 189 571 189 571 196 571 c 128,-1,12
 203 571 203 571 208.5 566 c 128,-1,13
 214 561 214 561 214 554 c 2,0,-1
1000 125 m 2,14,-1
 1000 18 l 2,15,16
 1000 11 1000 11 994.5 5.5 c 128,-1,17
 989 0 989 0 982 0 c 2,18,-1
 18 0 l 2,19,20
 11 0 11 0 5.5 5.5 c 128,-1,21
 0 11 0 11 0 18 c 2,22,-1
 0 125 l 2,23,24
 0 132 0 132 5.5 137.5 c 128,-1,25
 11 143 11 143 18 143 c 2,26,-1
 982 143 l 2,27,28
 989 143 989 143 994.5 137.5 c 128,-1,29
 1000 132 1000 132 1000 125 c 2,14,-1
1000 339 m 2,30,-1
 1000 232 l 2,31,32
 1000 225 1000 225 994.5 219.5 c 128,-1,33
 989 214 989 214 982 214 c 2,34,-1
 375 214 l 2,35,36
 368 214 368 214 362.5 219.5 c 128,-1,37
 357 225 357 225 357 232 c 2,38,-1
 357 339 l 2,39,40
 357 346 357 346 362.5 351.5 c 128,-1,41
 368 357 368 357 375 357 c 2,42,-1
 982 357 l 2,43,44
 989 357 989 357 994.5 351.5 c 128,-1,45
 1000 346 1000 346 1000 339 c 2,30,-1
1000 554 m 2,46,-1
 1000 446 l 2,47,48
 1000 439 1000 439 994.5 434 c 128,-1,49
 989 429 989 429 982 429 c 2,50,-1
 375 429 l 2,51,52
 368 429 368 429 362.5 434 c 128,-1,53
 357 439 357 439 357 446 c 2,54,-1
 357 554 l 2,55,56
 357 561 357 561 362.5 566 c 128,-1,57
 368 571 368 571 375 571 c 2,58,-1
 982 571 l 2,59,60
 989 571 989 571 994.5 566 c 128,-1,61
 1000 561 1000 561 1000 554 c 2,46,-1
1000 768 m 2,62,-1
 1000 661 l 2,63,64
 1000 654 1000 654 994.5 648.5 c 128,-1,65
 989 643 989 643 982 643 c 2,66,-1
 18 643 l 2,67,68
 11 643 11 643 5.5 648 c 128,-1,69
 0 653 0 653 0 661 c 2,70,-1
 0 768 l 2,71,72
 0 775 0 775 5.5 780.5 c 128,-1,73
 11 786 11 786 18 786 c 2,74,-1
 982 786 l 2,75,76
 989 786 989 786 994.5 780.5 c 128,-1,77
 1000 775 1000 775 1000 768 c 2,62,-1
EndSplineSet
EndChar

StartChar: indent_right
Encoding: 61500 61500 84
Width: 1000
Flags: W
LayerCount: 2
Fore
SplineSet
196 393 m 128,-1,1
 196 385 196 385 191 380 c 2,2,-1
 31 219 l 2,3,4
 26 214 26 214 18 214 c 0,5,6
 11 214 11 214 5.5 219.5 c 128,-1,7
 0 225 0 225 0 232 c 2,8,-1
 0 554 l 2,9,10
 0 561 0 561 5.5 566 c 128,-1,11
 11 571 11 571 18 571 c 0,12,13
 26 571 26 571 31 566 c 2,14,-1
 191 406 l 2,15,0
 196 401 196 401 196 393 c 128,-1,1
1000 125 m 2,16,-1
 1000 18 l 2,17,18
 1000 11 1000 11 994.5 5.5 c 128,-1,19
 989 0 989 0 982 0 c 2,20,-1
 18 0 l 2,21,22
 11 0 11 0 5.5 5.5 c 128,-1,23
 0 11 0 11 0 18 c 2,24,-1
 0 125 l 2,25,26
 0 132 0 132 5.5 137.5 c 128,-1,27
 11 143 11 143 18 143 c 2,28,-1
 982 143 l 2,29,30
 989 143 989 143 994.5 137.5 c 128,-1,31
 1000 132 1000 132 1000 125 c 2,16,-1
1000 339 m 2,32,-1
 1000 232 l 2,33,34
 1000 225 1000 225 994.5 219.5 c 128,-1,35
 989 214 989 214 982 214 c 2,36,-1
 375 214 l 2,37,38
 368 214 368 214 362.5 219.5 c 128,-1,39
 357 225 357 225 357 232 c 2,40,-1
 357 339 l 2,41,42
 357 346 357 346 362.5 351.5 c 128,-1,43
 368 357 368 357 375 357 c 2,44,-1
 982 357 l 2,45,46
 989 357 989 357 994.5 351.5 c 128,-1,47
 1000 346 1000 346 1000 339 c 2,32,-1
1000 554 m 2,48,-1
 1000 446 l 2,49,50
 1000 439 1000 439 994.5 434 c 128,-1,51
 989 429 989 429 982 429 c 2,52,-1
 375 429 l 2,53,54
 368 429 368 429 362.5 434 c 128,-1,55
 357 439 357 439 357 446 c 2,56,-1
 357 554 l 2,57,58
 357 561 357 561 362.5 566 c 128,-1,59
 368 571 368 571 375 571 c 2,60,-1
 982 571 l 2,61,62
 989 571 989 571 994.5 566 c 128,-1,63
 1000 561 1000 561 1000 554 c 2,48,-1
1000 768 m 2,64,-1
 1000 661 l 2,65,66
 1000 654 1000 654 994.5 648.5 c 128,-1,67
 989 643 989 643 982 643 c 2,68,-1
 18 643 l 2,69,70
 11 643 11 643 5.5 648 c 128,-1,71
 0 653 0 653 0 661 c 2,72,-1
 0 768 l 2,73,74
 0 775 0 775 5.5 780.5 c 128,-1,75
 11 786 11 786 18 786 c 2,76,-1
 982 786 l 2,77,78
 989 786 989 786 994.5 780.5 c 128,-1,79
 1000 775 1000 775 1000 768 c 2,64,-1
EndSplineSet
EndChar

StartChar: facetime_video
Encoding: 61501 61501 85
Width: 1000
Flags: W
LayerCount: 2
Fore
SplineSet
1000 661 m 2,0,-1
 1000 54 l 2,1,2
 1000 31 1000 31 978 21 c 0,3,4
 971 18 971 18 964 18 c 0,5,6
 949 18 949 18 939 28 c 2,7,-1
 714 253 l 1,8,-1
 714 161 l 2,9,10
 714 95 714 95 667 47.5 c 128,-1,11
 620 0 620 0 554 0 c 2,12,-1
 161 0 l 2,13,14
 95 0 95 0 47.5 47 c 128,-1,15
 0 94 0 94 0 161 c 2,16,-1
 0 554 l 2,17,18
 0 620 0 620 47 667 c 128,-1,19
 94 714 94 714 161 714 c 2,20,-1
 554 714 l 2,21,22
 620 714 620 714 667 667 c 128,-1,23
 714 620 714 620 714 554 c 2,24,-1
 714 461 l 1,25,-1
 939 686 l 2,26,27
 949 697 949 697 964 696 c 0,28,29
 971 696 971 696 978 694 c 1,30,31
 1000 684 1000 684 1000 661 c 2,0,-1
EndSplineSet
EndChar

StartChar: picture
Encoding: 61502 61502 86
Width: 1071
Flags: W
LayerCount: 2
Fore
SplineSet
357 535.5 m 128,-1,1
 357 491 357 491 326 460 c 128,-1,2
 295 429 295 429 250 429 c 128,-1,3
 205 429 205 429 174 460 c 128,-1,4
 143 491 143 491 143 535.5 c 128,-1,5
 143 580 143 580 174 611.5 c 128,-1,6
 205 643 205 643 250 643 c 128,-1,7
 295 643 295 643 326 611.5 c 128,-1,0
 357 580 357 580 357 535.5 c 128,-1,1
929 321 m 1,8,-1
 929 71 l 1,9,-1
 143 71 l 1,10,-1
 143 179 l 1,11,-1
 321 357 l 1,12,-1
 411 268 l 1,13,-1
 696 554 l 1,14,-1
 929 321 l 1,8,-1
982 714 m 2,15,-1
 89 714 l 2,16,17
 82 714 82 714 76.5 709 c 128,-1,18
 71 704 71 704 71 696 c 2,19,-1
 71 18 l 2,20,21
 71 11 71 11 76.5 5.5 c 128,-1,22
 82 0 82 0 89 0 c 2,23,-1
 982 0 l 2,24,25
 989 0 989 0 994.5 5.5 c 128,-1,26
 1000 11 1000 11 1000 18 c 2,27,-1
 1000 696 l 2,28,29
 1000 703 1000 703 994.5 708.5 c 128,-1,30
 989 714 989 714 982 714 c 2,15,-1
1071 696 m 2,31,-1
 1071 18 l 2,32,33
 1071 -19 1071 -19 1045 -45 c 128,-1,34
 1019 -71 1019 -71 982 -71 c 2,35,-1
 89 -71 l 2,36,37
 52 -71 52 -71 26 -45 c 128,-1,38
 0 -19 0 -19 0 18 c 2,39,-1
 0 696 l 2,40,41
 0 733 0 733 26 759.5 c 128,-1,42
 52 786 52 786 89 786 c 2,43,-1
 982 786 l 2,44,45
 1019 786 1019 786 1045 759.5 c 128,-1,46
 1071 733 1071 733 1071 696 c 2,31,-1
EndSplineSet
EndChar

StartChar: pencil
Encoding: 61504 61504 87
Width: 857
Flags: W
LayerCount: 2
Fore
SplineSet
203 0 m 1,0,-1
 253 51 l 1,1,-1
 122 182 l 1,2,-1
 71 131 l 1,3,-1
 71 71 l 1,4,-1
 143 71 l 1,5,-1
 143 0 l 1,6,-1
 203 0 l 1,0,-1
494 518 m 0,7,8
 494 530 494 530 482 530 c 0,9,10
 476 530 476 530 473 526 c 2,11,-1
 170 224 l 2,12,13
 166 220 166 220 166 214 c 0,14,15
 166 202 166 202 179 202 c 0,16,17
 185 202 185 202 188 206 c 2,18,-1
 491 508 l 2,19,20
 494 512 494 512 494 518 c 0,7,8
464 625 m 1,21,-1
 696 393 l 1,22,-1
 232 -71 l 1,23,-1
 0 -71 l 1,24,-1
 0 161 l 1,25,-1
 464 625 l 1,21,-1
845 571 m 0,26,27
 845 541 845 541 825 521 c 2,28,-1
 732 429 l 1,29,-1
 500 661 l 1,30,-1
 593 753 l 2,31,32
 613 774 613 774 643 774 c 128,-1,33
 673 774 673 774 694 753 c 2,34,-1
 825 622 l 1,35,36
 845 600 845 600 845 571 c 0,26,27
EndSplineSet
EndChar

StartChar: map_marker
Encoding: 61505 61505 88
Width: 571
Flags: W
LayerCount: 2
Fore
SplineSet
429 500 m 128,-1,1
 429 559 429 559 387 601 c 128,-1,2
 345 643 345 643 286 643 c 128,-1,3
 227 643 227 643 185 601 c 128,-1,4
 143 559 143 559 143 500 c 128,-1,5
 143 441 143 441 185 399 c 128,-1,6
 227 357 227 357 286 357 c 128,-1,7
 345 357 345 357 387 399 c 128,-1,0
 429 441 429 441 429 500 c 128,-1,1
571 500 m 0,8,9
 571 439 571 439 553 400 c 2,10,-1
 350 -32 l 2,11,12
 341 -50 341 -50 323.5 -60.5 c 128,-1,13
 306 -71 306 -71 286 -71 c 128,-1,14
 266 -71 266 -71 248 -60.5 c 128,-1,15
 230 -50 230 -50 222 -32 c 2,16,-1
 18 400 l 2,17,18
 0 439 0 439 0 500 c 0,19,20
 0 618 0 618 83.5 702 c 128,-1,21
 167 786 167 786 285.5 786 c 128,-1,22
 404 786 404 786 487.5 702 c 128,-1,23
 571 618 571 618 571 500 c 0,8,9
EndSplineSet
EndChar

StartChar: adjust
Encoding: 61506 61506 89
Width: 857
Flags: WO
LayerCount: 2
Fore
SplineSet
787 38.3 m 152,-1,0
 788.5 41.3 788.5 41.3 784 117.8 c 156,-1,0
779.5 194.3 m 25,1,-1
 511 209.3 l 24,2,-1
 779.5 194.3 l 25,1,-1
512.5 209.3 m 25,3,-1
 509.5 539.573 l 24,4,-1
 512.5 209.3 l 25,3,-1
785.5 35.3 m 25,5,-1
 332.5 36.8 l 24,6,-1
 785.5 35.3 l 25,5,-1
329.5 35.3 m 25,7,-1
 335.5 538.866 l 24,8,-1
 329.5 35.3 l 25,7,-1
71.5 764.3 m 25,9,-1
 803.5 761.3 l 25,10,-1
 806.5 542.3 l 17,11,-1
 509.5 539.845 l 0,12,-1
 338.5 538.432 l 0,13,-1
 80.5 536.3 l 9,14,-1
 71.5 764.3 l 25,9,-1
429 54 m 1,15,-1
EndSplineSet
EndChar

StartChar: tint
Encoding: 61507 61507 90
Width: 571
Flags: W
LayerCount: 2
Fore
SplineSet
286 214 m 0,0,1
 286 234 286 234 275 253 c 0,2,3
 274 254 274 254 266 265.5 c 128,-1,4
 258 277 258 277 252 286.5 c 128,-1,5
 246 296 246 296 238 311 c 128,-1,6
 230 326 230 326 226 339 c 0,7,8
 224 348 224 348 214.5 348 c 128,-1,9
 205 348 205 348 203 339 c 0,10,11
 199 326 199 326 191 311 c 128,-1,12
 183 296 183 296 177 286.5 c 128,-1,13
 171 277 171 277 163 265 c 128,-1,14
 155 253 155 253 154 253 c 0,15,16
 143 235 143 235 143 214 c 0,17,18
 143 184 143 184 164 163.5 c 128,-1,19
 185 143 185 143 214.5 143 c 128,-1,20
 244 143 244 143 265 163.5 c 128,-1,21
 286 184 286 184 286 214 c 0,0,1
571 286 m 0,22,23
 571 168 571 168 487.5 84 c 128,-1,24
 404 0 404 0 285.5 0 c 128,-1,25
 167 0 167 0 83.5 83.5 c 128,-1,26
 0 167 0 167 0 286 c 0,27,28
 0 367 0 367 45 439 c 0,29,30
 48 444 48 444 80 489.5 c 128,-1,31
 112 535 112 535 136.5 574 c 128,-1,32
 161 613 161 613 192 673.5 c 128,-1,33
 223 734 223 734 238 786 c 0,34,35
 243 803 243 803 257 812 c 128,-1,36
 271 821 271 821 285.5 821 c 128,-1,37
 300 821 300 821 314.5 811.5 c 128,-1,38
 329 802 329 802 333 786 c 0,39,40
 349 734 349 734 379.5 673.5 c 128,-1,41
 410 613 410 613 435 574 c 128,-1,42
 460 535 460 535 491.5 489.5 c 128,-1,43
 523 444 523 444 526 439 c 0,44,45
 571 369 571 369 571 286 c 0,22,23
EndSplineSet
EndChar

StartChar: edit
Encoding: 61508 61508 91
Width: 1000
Flags: W
LayerCount: 2
Fore
SplineSet
496 196 m 1,0,-1
 560 261 l 1,1,-1
 475 346 l 1,2,-1
 411 281 l 1,3,-1
 411 250 l 1,4,-1
 464 250 l 1,5,-1
 464 196 l 1,6,-1
 496 196 l 1,0,-1
741 598 m 128,-1,8
 732 607 732 607 723 598 c 2,9,-1
 527 402 l 2,10,11
 518 393 518 393 527 384 c 128,-1,12
 536 375 536 375 545 384 c 2,13,-1
 741 580 l 2,14,7
 750 589 750 589 741 598 c 128,-1,8
786 267 m 2,15,-1
 786 161 l 2,16,17
 786 95 786 95 738.5 47.5 c 128,-1,18
 691 0 691 0 625 0 c 2,19,-1
 161 0 l 2,20,21
 95 0 95 0 47.5 47 c 128,-1,22
 0 94 0 94 0 161 c 2,23,-1
 0 625 l 2,24,25
 0 691 0 691 47 738.5 c 128,-1,26
 94 786 94 786 161 786 c 2,27,-1
 625 786 l 2,28,29
 660 786 660 786 690 772 c 0,30,31
 698 768 698 768 700 759 c 128,-1,32
 702 750 702 750 695 743 c 2,33,-1
 668 715 l 2,34,35
 660 707 660 707 650 711 c 1,36,37
 637 714 637 714 625 714 c 2,38,-1
 161 714 l 2,39,40
 124 714 124 714 97.5 688 c 128,-1,41
 71 662 71 662 71 625 c 2,42,-1
 71 161 l 2,43,44
 71 124 71 124 97.5 97.5 c 128,-1,45
 124 71 124 71 161 71 c 2,46,-1
 625 71 l 2,47,48
 662 71 662 71 688 97.5 c 128,-1,49
 714 124 714 124 714 161 c 2,50,-1
 714 231 l 2,51,52
 714 238 714 238 719 243 c 2,53,-1
 755 279 l 2,54,55
 763 287 763 287 774.5 283 c 128,-1,56
 786 279 786 279 786 267 c 2,15,-1
732 679 m 1,57,-1
 893 518 l 1,58,-1
 518 143 l 1,59,-1
 357 143 l 1,60,-1
 357 304 l 1,61,-1
 732 679 l 1,57,-1
980 605 m 2,62,-1
 929 554 l 1,63,-1
 768 714 l 1,64,-1
 819 766 l 2,65,66
 835 782 835 782 857 781.5 c 128,-1,67
 879 781 879 781 895 766 c 2,68,-1
 980 681 l 2,69,70
 996 665 996 665 996 643 c 128,-1,71
 996 621 996 621 980 605 c 2,62,-1
EndSplineSet
EndChar

StartChar: share
Encoding: 61509 61509 92
Width: 928
Flags: W
LayerCount: 2
Fore
SplineSet
786 305 m 2,0,-1
 786 161 l 2,1,2
 786 95 786 95 738.5 47.5 c 128,-1,3
 691 0 691 0 625 0 c 2,4,-1
 161 0 l 2,5,6
 95 0 95 0 47.5 47 c 128,-1,7
 0 94 0 94 0 161 c 2,8,-1
 0 625 l 2,9,10
 0 691 0 691 47 738.5 c 128,-1,11
 94 786 94 786 161 786 c 2,12,-1
 303 786 l 1,13,-1
 303 786 l 1,14,15
 310 786 310 786 315.5 780.5 c 128,-1,16
 321 775 321 775 321 768 c 0,17,18
 321 753 321 753 306 750 c 1,19,20
 263 735 263 735 232 717 c 1,21,22
 226 715 226 715 223 714 c 1,23,-1
 161 714 l 2,24,25
 124 714 124 714 97.5 688 c 128,-1,26
 71 662 71 662 71 625 c 2,27,-1
 71 161 l 2,28,29
 71 124 71 124 97.5 97.5 c 128,-1,30
 124 71 124 71 161 71 c 2,31,-1
 625 71 l 2,32,33
 662 71 662 71 688 97.5 c 128,-1,34
 714 124 714 124 714 161 c 2,35,-1
 714 280 l 2,36,37
 714 291 714 291 724 296 c 0,38,39
 740 303 740 303 754 317 c 0,40,41
 763 326 763 326 774 321 c 0,42,43
 786 316 786 316 786 305 c 2,0,-1
918 582 m 2,44,-1
 704 368 l 2,45,46
 694 357 694 357 679 357 c 0,47,48
 672 357 672 357 665 360 c 0,49,50
 643 369 643 369 643 393 c 2,51,-1
 643 500 l 1,52,-1
 554 500 l 2,53,54
 374 500 374 500 309 427 c 1,55,56
 243 351 243 351 268 163 c 0,57,58
 270 150 270 150 257 144 c 0,59,60
 253 143 253 143 250 143 c 0,61,62
 241 143 241 143 235 150 c 0,63,64
 229 158 229 158 223.5 167.5 c 128,-1,65
 218 177 218 177 202 205.5 c 128,-1,66
 186 234 186 234 174 261 c 128,-1,67
 162 288 162 288 152.5 325 c 128,-1,68
 143 362 143 362 143 393 c 0,69,70
 143 420 143 420 145 443.5 c 128,-1,71
 147 467 147 467 152.5 494 c 128,-1,72
 158 521 158 521 168 543 c 128,-1,73
 178 565 178 565 194.5 588.5 c 128,-1,74
 211 612 211 612 232.5 630 c 128,-1,75
 254 648 254 648 285 664 c 128,-1,76
 316 680 316 680 354.5 691 c 128,-1,77
 393 702 393 702 443.5 708 c 128,-1,78
 494 714 494 714 554 714 c 2,79,-1
 643 714 l 1,80,-1
 643 821 l 2,81,82
 643 844 643 844 665 854 c 0,83,84
 672 857 672 857 679 857 c 0,85,86
 694 857 694 857 704 847 c 2,87,-1
 918 632 l 2,88,89
 929 621 929 621 929 607 c 128,-1,90
 929 593 929 593 918 582 c 2,44,-1
EndSplineSet
EndChar

StartChar: check
Encoding: 61510 61510 93
Width: 928
Flags: W
LayerCount: 2
Fore
SplineSet
786 338 m 2,0,-1
 786 161 l 2,1,2
 786 95 786 95 738.5 47.5 c 128,-1,3
 691 0 691 0 625 0 c 2,4,-1
 161 0 l 2,5,6
 95 0 95 0 47.5 47 c 128,-1,7
 0 94 0 94 0 161 c 2,8,-1
 0 625 l 2,9,10
 0 691 0 691 47 738.5 c 128,-1,11
 94 786 94 786 161 786 c 2,12,-1
 625 786 l 2,13,14
 660 786 660 786 690 772 c 0,15,16
 698 768 698 768 700 759 c 128,-1,17
 702 750 702 750 695 743 c 2,18,-1
 668 715 l 2,19,20
 662 709 662 709 655 710 c 0,21,22
 653 710 653 710 650 711 c 0,23,24
 637 714 637 714 625 714 c 2,25,-1
 161 714 l 2,26,27
 124 714 124 714 97.5 688 c 128,-1,28
 71 662 71 662 71 625 c 2,29,-1
 71 161 l 2,30,31
 71 124 71 124 97.5 97.5 c 128,-1,32
 124 71 124 71 161 71 c 2,33,-1
 625 71 l 2,34,35
 662 71 662 71 688 97.5 c 128,-1,36
 714 124 714 124 714 161 c 2,37,-1
 714 302 l 2,38,39
 714 309 714 309 719 315 c 2,40,-1
 755 350 l 2,41,42
 761 356 761 356 768 356 c 0,43,44
 771 356 771 356 775 354 c 0,45,46
 786 350 786 350 786 338 c 2,0,-1
915 611 m 2,47,-1
 460 157 l 2,48,49
 447 144 447 144 428.5 143.5 c 128,-1,50
 410 143 410 143 397 157 c 2,51,-1
 157 397 l 2,52,53
 144 410 144 410 143.5 428.5 c 128,-1,54
 143 447 143 447 157 460 c 2,55,-1
 218 522 l 2,56,57
 231 535 231 535 249.5 535 c 128,-1,58
 268 535 268 535 282 522 c 2,59,-1
 429 375 l 1,60,-1
 790 736 l 2,61,62
 803 749 803 749 821.5 749 c 128,-1,63
 840 749 840 749 853 736 c 2,64,-1
 915 675 l 2,65,66
 928 662 928 662 928 643 c 128,-1,67
 928 624 928 624 915 611 c 2,47,-1
EndSplineSet
EndChar

StartChar: move
Encoding: 61511 61511 94
Width: 1000
Flags: W
LayerCount: 2
Fore
SplineSet
1000 357.5 m 128,-1,1
 1000 343 1000 343 989 332 c 2,2,-1
 847 189 l 2,3,4
 836 178 836 178 821.5 178.5 c 128,-1,5
 807 179 807 179 796.5 189.5 c 128,-1,6
 786 200 786 200 786 214 c 2,7,-1
 786 286 l 1,8,-1
 571 286 l 1,9,-1
 571 71 l 1,10,-1
 643 71 l 2,11,12
 658 71 658 71 668.5 60.5 c 128,-1,13
 679 50 679 50 679 35.5 c 128,-1,14
 679 21 679 21 668 11 c 2,15,-1
 525 -132 l 2,16,17
 514 -143 514 -143 499.5 -143 c 128,-1,18
 485 -143 485 -143 475 -132 c 2,19,-1
 332 11 l 2,20,21
 321 22 321 22 321 36 c 128,-1,22
 321 50 321 50 332 60.5 c 128,-1,23
 343 71 343 71 357 71 c 2,24,-1
 429 71 l 1,25,-1
 429 286 l 1,26,-1
 214 286 l 1,27,-1
 214 214 l 2,28,29
 214 199 214 199 203.5 189 c 128,-1,30
 193 179 193 179 178.5 179 c 128,-1,31
 164 179 164 179 153 189 c 2,32,-1
 11 332 l 2,33,34
 0 343 0 343 0 357.5 c 128,-1,35
 0 372 0 372 11 382 c 2,36,-1
 153 525 l 2,37,38
 164 536 164 536 178.5 536 c 128,-1,39
 193 536 193 536 203.5 525.5 c 128,-1,40
 214 515 214 515 214 500 c 2,41,-1
 214 429 l 1,42,-1
 429 429 l 1,43,-1
 429 643 l 1,44,-1
 357 643 l 2,45,46
 342 643 342 643 331.5 653.5 c 128,-1,47
 321 664 321 664 321 678.5 c 128,-1,48
 321 693 321 693 332 704 c 2,49,-1
 475 847 l 2,50,51
 486 858 486 858 500.5 857.5 c 128,-1,52
 515 857 515 857 525 847 c 2,53,-1
 668 704 l 2,54,55
 679 693 679 693 679 678.5 c 128,-1,56
 679 664 679 664 668 653.5 c 128,-1,57
 657 643 657 643 643 643 c 2,58,-1
 571 643 l 1,59,-1
 571 429 l 1,60,-1
 786 429 l 1,61,-1
 786 500 l 2,62,63
 786 515 786 515 796.5 525.5 c 128,-1,64
 807 536 807 536 821.5 536 c 128,-1,65
 836 536 836 536 847 525 c 2,66,-1
 989 382 l 2,67,0
 1000 372 1000 372 1000 357.5 c 128,-1,1
EndSplineSet
EndChar

StartChar: step_backward
Encoding: 61512 61512 95
Width: 571
Flags: W
LayerCount: 2
Fore
SplineSet
546 778 m 2,0,1
 557 789 557 789 564 785.5 c 128,-1,2
 571 782 571 782 571 768 c 2,3,-1
 571 -54 l 2,4,5
 571 -69 571 -69 564 -72 c 128,-1,6
 557 -75 557 -75 546 -64 c 2,7,-1
 150 332 l 2,8,9
 145 337 145 337 143 343 c 1,10,-1
 143 -36 l 2,11,12
 143 -51 143 -51 132.5 -61 c 128,-1,13
 122 -71 122 -71 107 -71 c 2,14,-1
 36 -71 l 2,15,16
 21 -71 21 -71 10.5 -60.5 c 128,-1,17
 0 -50 0 -50 0 -36 c 2,18,-1
 0 750 l 2,19,20
 0 765 0 765 10.5 775.5 c 128,-1,21
 21 786 21 786 36 786 c 2,22,-1
 107 786 l 2,23,24
 122 786 122 786 132.5 775.5 c 128,-1,25
 143 765 143 765 143 750 c 2,26,-1
 143 372 l 1,27,28
 145 378 145 378 150 382 c 2,29,-1
 546 778 l 2,0,1
EndSplineSet
EndChar

StartChar: fast_backward
Encoding: 61513 61513 96
Width: 1000
Flags: W
LayerCount: 2
Fore
SplineSet
975 778 m 2,0,1
 986 789 986 789 993 785.5 c 128,-1,2
 1000 782 1000 782 1000 768 c 2,3,-1
 1000 -54 l 2,4,5
 1000 -69 1000 -69 992.5 -72 c 128,-1,6
 985 -75 985 -75 975 -64 c 2,7,-1
 579 332 l 2,8,9
 574 337 574 337 571 343 c 1,10,-1
 571 -54 l 2,11,12
 571 -69 571 -69 564 -72 c 128,-1,13
 557 -75 557 -75 546 -64 c 2,14,-1
 150 332 l 2,15,16
 145 337 145 337 143 343 c 1,17,-1
 143 -36 l 2,18,19
 143 -51 143 -51 132.5 -61 c 128,-1,20
 122 -71 122 -71 107 -71 c 2,21,-1
 36 -71 l 2,22,23
 21 -71 21 -71 10.5 -60.5 c 128,-1,24
 0 -50 0 -50 0 -36 c 2,25,-1
 0 750 l 2,26,27
 0 765 0 765 10.5 775.5 c 128,-1,28
 21 786 21 786 36 786 c 2,29,-1
 107 786 l 2,30,31
 122 786 122 786 132.5 775.5 c 128,-1,32
 143 765 143 765 143 750 c 2,33,-1
 143 372 l 1,34,35
 145 378 145 378 150 382 c 2,36,-1
 546 778 l 2,37,38
 557 789 557 789 564 785.5 c 128,-1,39
 571 782 571 782 571 768 c 2,40,-1
 571 372 l 1,41,42
 573 378 573 378 579 382 c 1,43,-1
 975 778 l 2,0,1
EndSplineSet
EndChar

StartChar: backward
Encoding: 61514 61514 97
Width: 928
Flags: W
LayerCount: 2
Fore
SplineSet
903 778 m 2,0,1
 914 789 914 789 921.5 785.5 c 128,-1,2
 929 782 929 782 929 768 c 2,3,-1
 929 -54 l 2,4,5
 929 -69 929 -69 921.5 -72 c 128,-1,6
 914 -75 914 -75 903 -64 c 2,7,-1
 507 332 l 2,8,9
 503 337 503 337 500 343 c 1,10,-1
 500 -54 l 2,11,12
 500 -69 500 -69 492.5 -72 c 128,-1,13
 485 -75 485 -75 475 -64 c 2,14,-1
 79 332 l 2,15,16
 68 343 68 343 68 357.5 c 128,-1,17
 68 372 68 372 79 382 c 2,18,-1
 475 778 l 2,19,20
 486 789 486 789 493 785.5 c 128,-1,21
 500 782 500 782 500 768 c 2,22,-1
 500 372 l 1,23,24
 503 378 503 378 507 382 c 2,25,-1
 903 778 l 2,0,1
EndSplineSet
EndChar

StartChar: play
Encoding: 61515 61515 98
Width: 785
Flags: W
LayerCount: 2
Fore
SplineSet
772 340 m 2,0,-1
 31 -72 l 2,1,2
 18 -79 18 -79 9 -73.5 c 128,-1,3
 0 -68 0 -68 0 -54 c 2,4,-1
 0 768 l 2,5,6
 0 783 0 783 9 788.5 c 128,-1,7
 18 794 18 794 31 786 c 2,8,-1
 772 374 l 2,9,10
 785 367 785 367 785 357 c 128,-1,11
 785 347 785 347 772 340 c 2,0,-1
EndSplineSet
EndChar

StartChar: pause
Encoding: 61516 61516 99
Width: 857
Flags: W
LayerCount: 2
Fore
SplineSet
857 750 m 2,0,-1
 857 -36 l 2,1,2
 857 -51 857 -51 846.5 -61 c 128,-1,3
 836 -71 836 -71 821 -71 c 2,4,-1
 536 -71 l 2,5,6
 521 -71 521 -71 510.5 -60.5 c 128,-1,7
 500 -50 500 -50 500 -36 c 2,8,-1
 500 750 l 2,9,10
 500 765 500 765 510.5 775.5 c 128,-1,11
 521 786 521 786 536 786 c 2,12,-1
 821 786 l 2,13,14
 836 786 836 786 846.5 775.5 c 128,-1,15
 857 765 857 765 857 750 c 2,0,-1
357 750 m 2,16,-1
 357 -36 l 2,17,18
 357 -51 357 -51 346.5 -61 c 128,-1,19
 336 -71 336 -71 321 -71 c 2,20,-1
 36 -71 l 2,21,22
 21 -71 21 -71 10.5 -60.5 c 128,-1,23
 0 -50 0 -50 0 -36 c 2,24,-1
 0 750 l 2,25,26
 0 765 0 765 10.5 775.5 c 128,-1,27
 21 786 21 786 36 786 c 2,28,-1
 321 786 l 2,29,30
 336 786 336 786 346.5 775.5 c 128,-1,31
 357 765 357 765 357 750 c 2,16,-1
EndSplineSet
EndChar

StartChar: stop
Encoding: 61517 61517 100
Width: 857
Flags: W
LayerCount: 2
Fore
SplineSet
857 750 m 2,0,-1
 857 -36 l 2,1,2
 857 -51 857 -51 846.5 -61 c 128,-1,3
 836 -71 836 -71 821 -71 c 2,4,-1
 36 -71 l 2,5,6
 21 -71 21 -71 10.5 -60.5 c 128,-1,7
 0 -50 0 -50 0 -36 c 2,8,-1
 0 750 l 2,9,10
 0 765 0 765 10.5 775.5 c 128,-1,11
 21 786 21 786 36 786 c 2,12,-1
 821 786 l 2,13,14
 836 786 836 786 846.5 775.5 c 128,-1,15
 857 765 857 765 857 750 c 2,0,-1
EndSplineSet
EndChar

StartChar: forward
Encoding: 61518 61518 101
Width: 928
Flags: W
LayerCount: 2
Fore
SplineSet
25 -64 m 2,0,1
 14 -75 14 -75 7 -71.5 c 128,-1,2
 0 -68 0 -68 0 -54 c 2,3,-1
 0 768 l 2,4,5
 0 783 0 783 7.5 786 c 128,-1,6
 15 789 15 789 25 778 c 2,7,-1
 421 382 l 2,8,9
 425 378 425 378 429 372 c 1,10,-1
 429 768 l 2,11,12
 429 783 429 783 436 786 c 128,-1,13
 443 789 443 789 454 778 c 2,14,-1
 850 382 l 2,15,16
 861 371 861 371 860.5 357 c 128,-1,17
 860 343 860 343 850 332 c 2,18,-1
 454 -64 l 2,19,20
 443 -75 443 -75 436 -71.5 c 128,-1,21
 429 -68 429 -68 429 -54 c 2,22,-1
 429 343 l 1,23,24
 426 337 426 337 421 332 c 2,25,-1
 25 -64 l 2,0,1
EndSplineSet
EndChar

StartChar: fast_forward
Encoding: 61520 61520 102
Width: 1000
Flags: W
LayerCount: 2
Fore
SplineSet
25 -64 m 2,0,1
 14 -75 14 -75 7 -71.5 c 128,-1,2
 0 -68 0 -68 0 -54 c 2,3,-1
 0 768 l 2,4,5
 0 783 0 783 7.5 786 c 128,-1,6
 15 789 15 789 25 778 c 2,7,-1
 421 382 l 2,8,9
 425 378 425 378 429 372 c 1,10,-1
 429 768 l 2,11,12
 429 783 429 783 436 786 c 128,-1,13
 443 789 443 789 454 778 c 2,14,-1
 850 382 l 2,15,16
 854 378 854 378 857 372 c 1,17,-1
 857 750 l 2,18,19
 857 765 857 765 867.5 775.5 c 128,-1,20
 878 786 878 786 893 786 c 2,21,-1
 964 786 l 2,22,23
 979 786 979 786 989.5 775.5 c 128,-1,24
 1000 765 1000 765 1000 750 c 2,25,-1
 1000 -36 l 2,26,27
 1000 -51 1000 -51 989.5 -61 c 128,-1,28
 979 -71 979 -71 964 -71 c 2,29,-1
 893 -71 l 2,30,31
 878 -71 878 -71 867.5 -60.5 c 128,-1,32
 857 -50 857 -50 857 -36 c 2,33,-1
 857 343 l 1,34,35
 854 337 854 337 850 332 c 2,36,-1
 454 -64 l 2,37,38
 443 -75 443 -75 436 -71.5 c 128,-1,39
 429 -68 429 -68 429 -54 c 2,40,-1
 429 343 l 1,41,42
 426 337 426 337 421 332 c 2,43,-1
 25 -64 l 2,0,1
EndSplineSet
EndChar

StartChar: step_forward
Encoding: 61521 61521 103
Width: 571
Flags: W
LayerCount: 2
Fore
SplineSet
25 -64 m 2,0,1
 14 -75 14 -75 7 -71.5 c 128,-1,2
 0 -68 0 -68 0 -54 c 2,3,-1
 0 768 l 2,4,5
 0 783 0 783 7.5 786 c 128,-1,6
 15 789 15 789 25 778 c 2,7,-1
 421 382 l 2,8,9
 425 378 425 378 429 372 c 1,10,-1
 429 750 l 2,11,12
 429 765 429 765 439.5 775.5 c 128,-1,13
 450 786 450 786 464 786 c 2,14,-1
 536 786 l 2,15,16
 551 786 551 786 561 775.5 c 128,-1,17
 571 765 571 765 571 750 c 2,18,-1
 571 -36 l 2,19,20
 571 -51 571 -51 560.5 -61 c 128,-1,21
 550 -71 550 -71 536 -71 c 2,22,-1
 464 -71 l 2,23,24
 449 -71 449 -71 439 -60.5 c 128,-1,25
 429 -50 429 -50 429 -36 c 2,26,-1
 429 343 l 1,27,28
 426 337 426 337 421 332 c 2,29,-1
 25 -64 l 2,0,1
EndSplineSet
EndChar

StartChar: eject
Encoding: 61522 61522 104
Width: 858
Flags: W
LayerCount: 2
Fore
SplineSet
8 311 m 2,0,-1
 404 707 l 2,1,2
 415 718 415 718 429.5 718 c 128,-1,3
 444 718 444 718 454 707 c 2,4,-1
 850 311 l 2,5,6
 861 300 861 300 857.5 293 c 128,-1,7
 854 286 854 286 840 286 c 2,8,-1
 18 286 l 2,9,10
 3 286 3 286 0 293 c 128,-1,11
 -3 300 -3 300 8 311 c 2,0,-1
822 0 m 2,12,-1
 36 0 l 2,13,14
 21 0 21 0 11 10.5 c 128,-1,15
 1 21 1 21 1 36 c 2,16,-1
 1 179 l 2,17,18
 1 194 1 194 11.5 204 c 128,-1,19
 22 214 22 214 36 214 c 2,20,-1
 822 214 l 2,21,22
 837 214 837 214 847.5 203.5 c 128,-1,23
 858 193 858 193 858 179 c 2,24,-1
 858 36 l 2,25,26
 858 21 858 21 847.5 10.5 c 128,-1,27
 837 0 837 0 822 0 c 2,12,-1
EndSplineSet
EndChar

StartChar: chevron_left
Encoding: 61523 61523 105
Width: 642
Flags: W
LayerCount: 2
Fore
SplineSet
414 -21 m 2,0,-1
 50 343 l 2,1,2
 29 364 29 364 29.5 393.5 c 128,-1,3
 30 423 30 423 50 444 c 2,4,-1
 414 807 l 2,5,6
 435 828 435 828 464.5 828 c 128,-1,7
 494 828 494 828 515 807 c 2,8,-1
 557 765 l 2,9,10
 578 744 578 744 578 714.5 c 128,-1,11
 578 685 578 685 557 664 c 2,12,-1
 286 393 l 1,13,-1
 557 122 l 2,14,15
 578 101 578 101 578 71.5 c 128,-1,16
 578 42 578 42 557 21 c 2,17,-1
 515 -21 l 2,18,19
 494 -42 494 -42 464.5 -42 c 128,-1,20
 435 -42 435 -42 414 -21 c 2,0,-1
EndSplineSet
EndChar

StartChar: chevron_right
Encoding: 61524 61524 106
Width: 642
Flags: W
LayerCount: 2
Fore
SplineSet
613 393 m 0,0,1
 613 364 613 364 593 342 c 1,2,-1
 229 -21 l 2,3,4
 208 -42 208 -42 178.5 -42 c 128,-1,5
 149 -42 149 -42 128 -21 c 2,6,-1
 86 21 l 2,7,8
 65 43 65 43 65 71 c 0,9,10
 65 101 65 101 86 122 c 2,11,-1
 357 393 l 1,12,-1
 86 664 l 2,13,14
 65 686 65 686 65 714 c 0,15,16
 65 744 65 744 86 765 c 2,17,-1
 128 806 l 1,18,19
 148 827 148 827 178.5 827.5 c 128,-1,20
 209 828 209 828 229 806 c 1,21,-1
 593 443 l 2,22,23
 613 423 613 423 613 393 c 0,0,1
EndSplineSet
EndChar

StartChar: plus_sign
Encoding: 61525 61525 107
Width: 857
Flags: W
LayerCount: 2
Fore
SplineSet
679 321 m 2,0,-1
 679 393 l 2,1,2
 679 408 679 408 668 418.5 c 128,-1,3
 657 429 657 429 643 429 c 2,4,-1
 500 429 l 1,5,-1
 500 571 l 2,6,7
 500 586 500 586 489.5 596.5 c 128,-1,8
 479 607 479 607 464 607 c 2,9,-1
 393 607 l 2,10,11
 378 607 378 607 367.5 596.5 c 128,-1,12
 357 586 357 586 357 571 c 2,13,-1
 357 429 l 1,14,-1
 214 429 l 2,15,16
 199 429 199 429 189 418 c 128,-1,17
 179 407 179 407 179 393 c 2,18,-1
 179 321 l 2,19,20
 179 306 179 306 189.5 296 c 128,-1,21
 200 286 200 286 214 286 c 2,22,-1
 357 286 l 1,23,-1
 357 143 l 2,24,25
 357 128 357 128 367.5 117.5 c 128,-1,26
 378 107 378 107 393 107 c 2,27,-1
 464 107 l 2,28,29
 479 107 479 107 489.5 117.5 c 128,-1,30
 500 128 500 128 500 143 c 2,31,-1
 500 286 l 1,32,-1
 643 286 l 2,33,34
 658 286 658 286 668.5 296 c 128,-1,35
 679 306 679 306 679 321 c 2,0,-1
857 357.5 m 128,-1,37
 857 241 857 241 799.5 142.5 c 128,-1,38
 742 44 742 44 643.5 -13.5 c 128,-1,39
 545 -71 545 -71 428.5 -71 c 128,-1,40
 312 -71 312 -71 213.5 -13.5 c 128,-1,41
 115 44 115 44 57.5 142.5 c 128,-1,42
 0 241 0 241 0 357.5 c 128,-1,43
 0 474 0 474 57.5 572.5 c 128,-1,44
 115 671 115 671 213.5 728.5 c 128,-1,45
 312 786 312 786 428.5 786 c 128,-1,46
 545 786 545 786 643.5 728.5 c 128,-1,47
 742 671 742 671 799.5 572.5 c 128,-1,36
 857 474 857 474 857 357.5 c 128,-1,37
EndSplineSet
EndChar

StartChar: minus_sign
Encoding: 61526 61526 108
Width: 857
Flags: W
LayerCount: 2
Fore
SplineSet
679 321 m 2,0,-1
 679 393 l 2,1,2
 679 408 679 408 668 418.5 c 128,-1,3
 657 429 657 429 643 429 c 2,4,-1
 214 429 l 2,5,6
 199 429 199 429 189 418 c 128,-1,7
 179 407 179 407 179 393 c 2,8,-1
 179 321 l 2,9,10
 179 306 179 306 189.5 296 c 128,-1,11
 200 286 200 286 214 286 c 2,12,-1
 643 286 l 2,13,14
 658 286 658 286 668.5 296 c 128,-1,15
 679 306 679 306 679 321 c 2,0,-1
857 357.5 m 128,-1,17
 857 241 857 241 799.5 142.5 c 128,-1,18
 742 44 742 44 643.5 -13.5 c 128,-1,19
 545 -71 545 -71 428.5 -71 c 128,-1,20
 312 -71 312 -71 213.5 -13.5 c 128,-1,21
 115 44 115 44 57.5 142.5 c 128,-1,22
 0 241 0 241 0 357.5 c 128,-1,23
 0 474 0 474 57.5 572.5 c 128,-1,24
 115 671 115 671 213.5 728.5 c 128,-1,25
 312 786 312 786 428.5 786 c 128,-1,26
 545 786 545 786 643.5 728.5 c 128,-1,27
 742 671 742 671 799.5 572.5 c 128,-1,16
 857 474 857 474 857 357.5 c 128,-1,17
EndSplineSet
EndChar

StartChar: remove_sign
Encoding: 61527 61527 109
Width: 857
Flags: W
LayerCount: 2
Fore
SplineSet
641 231 m 128,-1,1
 641 246 641 246 631 256 c 2,2,-1
 530 357 l 1,3,-1
 631 458 l 2,4,5
 642 469 642 469 641 483 c 1,6,7
 641 498 641 498 631 509 c 2,8,-1
 580 559 l 2,9,10
 569 570 569 570 555 570 c 0,11,12
 540 570 540 570 530 559 c 2,13,-1
 429 458 l 1,14,-1
 328 559 l 2,15,16
 317 570 317 570 302 570 c 128,-1,17
 287 570 287 570 277 559 c 2,18,-1
 227 509 l 2,19,20
 216 498 216 498 216 483 c 128,-1,21
 216 468 216 468 227 458 c 2,22,-1
 328 357 l 1,23,-1
 227 256 l 2,24,25
 216 245 216 245 216 231 c 0,26,27
 216 216 216 216 227 205 c 2,28,-1
 277 155 l 2,29,30
 288 144 288 144 302 145 c 1,31,32
 317 145 317 145 328 155 c 2,33,-1
 429 256 l 1,34,-1
 530 155 l 2,35,36
 541 144 541 144 555 145 c 1,37,38
 570 145 570 145 580 155 c 2,39,-1
 631 205 l 2,40,0
 641 216 641 216 641 231 c 128,-1,1
857 357.5 m 128,-1,42
 857 241 857 241 799.5 142.5 c 128,-1,43
 742 44 742 44 643.5 -13.5 c 128,-1,44
 545 -71 545 -71 428.5 -71 c 128,-1,45
 312 -71 312 -71 213.5 -13.5 c 128,-1,46
 115 44 115 44 57.5 142.5 c 128,-1,47
 0 241 0 241 0 357.5 c 128,-1,48
 0 474 0 474 57.5 572.5 c 128,-1,49
 115 671 115 671 213.5 728.5 c 128,-1,50
 312 786 312 786 428.5 786 c 128,-1,51
 545 786 545 786 643.5 728.5 c 128,-1,52
 742 671 742 671 799.5 572.5 c 128,-1,41
 857 474 857 474 857 357.5 c 128,-1,42
EndSplineSet
EndChar

StartChar: ok_sign
Encoding: 61528 61528 110
Width: 857
Flags: W
LayerCount: 2
Fore
SplineSet
717 448 m 0,0,1
 717 464 717 464 706 473 c 1,2,-1
 656 523 l 2,3,4
 645 534 645 534 630.5 534 c 128,-1,5
 616 534 616 534 605 523 c 2,6,-1
 378 296 l 1,7,-1
 252 422 l 2,8,9
 241 433 241 433 226.5 433 c 128,-1,10
 212 433 212 433 201 422 c 2,11,-1
 151 372 l 2,12,13
 141 362 141 362 141 347 c 128,-1,14
 141 332 141 332 151 321 c 2,15,-1
 353 119 l 2,16,17
 364 108 364 108 378 109 c 1,18,19
 393 109 393 109 403 119 c 2,20,-1
 706 422 l 2,21,22
 717 433 717 433 717 448 c 0,0,1
857 357.5 m 128,-1,24
 857 241 857 241 799.5 142.5 c 128,-1,25
 742 44 742 44 643.5 -13.5 c 128,-1,26
 545 -71 545 -71 428.5 -71 c 128,-1,27
 312 -71 312 -71 213.5 -13.5 c 128,-1,28
 115 44 115 44 57.5 142.5 c 128,-1,29
 0 241 0 241 0 357.5 c 128,-1,30
 0 474 0 474 57.5 572.5 c 128,-1,31
 115 671 115 671 213.5 728.5 c 128,-1,32
 312 786 312 786 428.5 786 c 128,-1,33
 545 786 545 786 643.5 728.5 c 128,-1,34
 742 671 742 671 799.5 572.5 c 128,-1,23
 857 474 857 474 857 357.5 c 128,-1,24
EndSplineSet
EndChar

StartChar: question_sign
Encoding: 61529 61529 111
Width: 857
Flags: W
LayerCount: 2
Fore
SplineSet
500 89 m 2,0,-1
 500 196 l 2,1,2
 500 204 500 204 495 209 c 128,-1,3
 490 214 490 214 482 214 c 2,4,-1
 375 214 l 2,5,6
 367 214 367 214 362 209 c 128,-1,7
 357 204 357 204 357 196 c 2,8,-1
 357 89 l 2,9,10
 357 81 357 81 362 76 c 128,-1,11
 367 71 367 71 375 71 c 2,12,-1
 482 71 l 2,13,14
 490 71 490 71 495 76 c 128,-1,15
 500 81 500 81 500 89 c 2,0,-1
643 464 m 0,16,17
 643 513 643 513 612 555 c 128,-1,18
 581 597 581 597 534.5 620 c 128,-1,19
 488 643 488 643 440 643 c 0,20,21
 304 643 304 643 233 524 c 0,22,23
 225 511 225 511 237 501 c 2,24,-1
 311 445 l 2,25,26
 315 442 315 442 321 441 c 1,27,28
 330 441 330 441 335 448 c 0,29,30
 365 486 365 486 383 499 c 0,31,32
 402 512 402 512 431 513 c 0,33,34
 458 513 458 513 479 498.5 c 128,-1,35
 500 484 500 484 500 465 c 0,36,37
 500 444 500 444 489 431.5 c 128,-1,38
 478 419 478 419 451 406 c 0,39,40
 416 390 416 390 386.5 357.5 c 128,-1,41
 357 325 357 325 357 288 c 2,42,-1
 357 268 l 2,43,44
 357 260 357 260 362 255 c 128,-1,45
 367 250 367 250 375 250 c 2,46,-1
 482 250 l 2,47,48
 490 250 490 250 495 255 c 128,-1,49
 500 260 500 260 500 268 c 0,50,51
 500 279 500 279 512 295.5 c 128,-1,52
 524 312 524 312 542 323 c 0,53,54
 560 333 560 333 569.5 339 c 128,-1,55
 579 345 579 345 595.5 358.5 c 128,-1,56
 612 372 612 372 620.5 385 c 128,-1,57
 629 398 629 398 636 418.5 c 128,-1,58
 643 439 643 439 643 464 c 0,16,17
857 357.5 m 128,-1,60
 857 241 857 241 799.5 142.5 c 128,-1,61
 742 44 742 44 643.5 -13.5 c 128,-1,62
 545 -71 545 -71 428.5 -71 c 128,-1,63
 312 -71 312 -71 213.5 -13.5 c 128,-1,64
 115 44 115 44 57.5 142.5 c 128,-1,65
 0 241 0 241 0 357.5 c 128,-1,66
 0 474 0 474 57.5 572.5 c 128,-1,67
 115 671 115 671 213.5 728.5 c 128,-1,68
 312 786 312 786 428.5 786 c 128,-1,69
 545 786 545 786 643.5 728.5 c 128,-1,70
 742 671 742 671 799.5 572.5 c 128,-1,59
 857 474 857 474 857 357.5 c 128,-1,60
EndSplineSet
EndChar

StartChar: info_sign
Encoding: 61530 61530 112
Width: 857
Flags: W
LayerCount: 2
Fore
SplineSet
571 89 m 2,0,-1
 571 179 l 2,1,2
 571 187 571 187 566 191.5 c 128,-1,3
 561 196 561 196 554 196 c 2,4,-1
 500 196 l 1,5,-1
 500 482 l 2,6,7
 500 490 500 490 495 495 c 128,-1,8
 490 500 490 500 482 500 c 2,9,-1
 304 500 l 2,10,11
 296 500 296 500 291 495 c 128,-1,12
 286 490 286 490 286 482 c 2,13,-1
 286 393 l 2,14,15
 286 385 286 385 291 380 c 128,-1,16
 296 375 296 375 304 375 c 2,17,-1
 357 375 l 1,18,-1
 357 196 l 1,19,-1
 304 196 l 2,20,21
 296 196 296 196 291 191 c 128,-1,22
 286 186 286 186 286 179 c 2,23,-1
 286 89 l 2,24,25
 286 81 286 81 291 76 c 128,-1,26
 296 71 296 71 304 71 c 2,27,-1
 554 71 l 2,28,29
 562 71 562 71 566.5 76 c 128,-1,30
 571 81 571 81 571 89 c 2,0,-1
500 589 m 2,31,-1
 500 679 l 2,32,33
 500 687 500 687 495 691.5 c 128,-1,34
 490 696 490 696 482 696 c 2,35,-1
 375 696 l 2,36,37
 367 696 367 696 362 691 c 128,-1,38
 357 686 357 686 357 679 c 2,39,-1
 357 589 l 2,40,41
 357 581 357 581 362 576 c 128,-1,42
 367 571 367 571 375 571 c 2,43,-1
 482 571 l 2,44,45
 490 571 490 571 495 576 c 128,-1,46
 500 581 500 581 500 589 c 2,31,-1
857 357.5 m 128,-1,48
 857 241 857 241 799.5 142.5 c 128,-1,49
 742 44 742 44 643.5 -13.5 c 128,-1,50
 545 -71 545 -71 428.5 -71 c 128,-1,51
 312 -71 312 -71 213.5 -13.5 c 128,-1,52
 115 44 115 44 57.5 142.5 c 128,-1,53
 0 241 0 241 0 357.5 c 128,-1,54
 0 474 0 474 57.5 572.5 c 128,-1,55
 115 671 115 671 213.5 728.5 c 128,-1,56
 312 786 312 786 428.5 786 c 128,-1,57
 545 786 545 786 643.5 728.5 c 128,-1,58
 742 671 742 671 799.5 572.5 c 128,-1,47
 857 474 857 474 857 357.5 c 128,-1,48
EndSplineSet
EndChar

StartChar: screenshot
Encoding: 61531 61531 113
Width: 857
Flags: W
LayerCount: 2
Fore
SplineSet
668 286 m 1,0,-1
 607 286 l 2,1,2
 592 286 592 286 581.5 296.5 c 128,-1,3
 571 307 571 307 571 321 c 2,4,-1
 571 393 l 2,5,6
 571 408 571 408 582 418.5 c 128,-1,7
 593 429 593 429 607 429 c 2,8,-1
 668 429 l 1,9,10
 650 489 650 489 605 534 c 128,-1,11
 560 579 560 579 500 597 c 1,12,-1
 500 536 l 2,13,14
 500 521 500 521 489.5 510.5 c 128,-1,15
 479 500 479 500 464 500 c 2,16,-1
 393 500 l 2,17,18
 378 500 378 500 367.5 510.5 c 128,-1,19
 357 521 357 521 357 536 c 2,20,-1
 357 597 l 1,21,22
 297 579 297 579 252 534 c 128,-1,23
 207 489 207 489 189 429 c 1,24,-1
 250 429 l 2,25,26
 265 429 265 429 275.5 418 c 128,-1,27
 286 407 286 407 286 393 c 2,28,-1
 286 321 l 2,29,30
 286 306 286 306 275.5 296 c 128,-1,31
 265 286 265 286 250 286 c 2,32,-1
 189 286 l 1,33,34
 207 226 207 226 252 181 c 128,-1,35
 297 136 297 136 357 118 c 1,36,-1
 357 179 l 2,37,38
 357 194 357 194 367.5 204 c 128,-1,39
 378 214 378 214 393 214 c 2,40,-1
 464 214 l 2,41,42
 479 214 479 214 489.5 203.5 c 128,-1,43
 500 193 500 193 500 179 c 2,44,-1
 500 118 l 1,45,46
 560 136 560 136 605 181 c 128,-1,47
 650 226 650 226 668 286 c 1,0,-1
857 393 m 2,48,-1
 857 321 l 2,49,50
 857 306 857 306 846.5 296 c 128,-1,51
 836 286 836 286 821 286 c 2,52,-1
 742 286 l 1,53,54
 721 196 721 196 655.5 130.5 c 128,-1,55
 590 65 590 65 500 44 c 1,56,-1
 500 -36 l 2,57,58
 500 -51 500 -51 489.5 -61 c 128,-1,59
 479 -71 479 -71 464 -71 c 2,60,-1
 393 -71 l 2,61,62
 378 -71 378 -71 367.5 -60.5 c 128,-1,63
 357 -50 357 -50 357 -36 c 2,64,-1
 357 44 l 1,65,66
 267 65 267 65 201.5 130.5 c 128,-1,67
 136 196 136 196 116 286 c 1,68,-1
 36 286 l 2,69,70
 21 286 21 286 10.5 296.5 c 128,-1,71
 0 307 0 307 0 321 c 2,72,-1
 0 393 l 2,73,74
 0 408 0 408 10.5 418.5 c 128,-1,75
 21 429 21 429 36 429 c 2,76,-1
 116 429 l 1,77,78
 137 519 137 519 202 584.5 c 128,-1,79
 267 650 267 650 357 670 c 1,80,-1
 357 750 l 2,81,82
 357 765 357 765 367.5 775.5 c 128,-1,83
 378 786 378 786 393 786 c 2,84,-1
 464 786 l 2,85,86
 479 786 479 786 489.5 775.5 c 128,-1,87
 500 765 500 765 500 750 c 2,88,-1
 500 670 l 1,89,90
 590 649 590 649 655.5 583.5 c 128,-1,91
 721 518 721 518 742 429 c 1,92,-1
 821 429 l 2,93,94
 836 429 836 429 846.5 418.5 c 128,-1,95
 857 408 857 408 857 393 c 2,48,-1
EndSplineSet
EndChar

StartChar: remove_circle
Encoding: 61532 61532 114
Width: 857
Flags: W
LayerCount: 2
Fore
SplineSet
612 255 m 2,0,-1
 531 174 l 2,1,2
 525 168 525 168 518 168 c 128,-1,3
 511 168 511 168 505 174 c 2,4,-1
 429 250 l 1,5,-1
 352 174 l 2,6,7
 346 168 346 168 339 168 c 128,-1,8
 332 168 332 168 326 174 c 2,9,-1
 245 255 l 2,10,11
 239 261 239 261 239 268 c 128,-1,12
 239 275 239 275 245 281 c 2,13,-1
 321 357 l 1,14,-1
 245 434 l 2,15,16
 239 440 239 440 239 447 c 128,-1,17
 239 454 239 454 245 459 c 2,18,-1
 326 541 l 2,19,20
 332 547 332 547 339.5 546.5 c 128,-1,21
 347 546 347 546 352 541 c 2,22,-1
 429 464 l 1,23,-1
 505 541 l 2,24,25
 511 547 511 547 518 546.5 c 128,-1,26
 525 546 525 546 531 541 c 2,27,-1
 612 459 l 2,28,29
 618 453 618 453 618 446 c 128,-1,30
 618 439 618 439 612 434 c 2,31,-1
 536 357 l 1,32,-1
 612 281 l 2,33,34
 618 275 618 275 618 268 c 128,-1,35
 618 261 618 261 612 255 c 2,0,-1
732 357.5 m 128,-1,37
 732 440 732 440 691.5 509.5 c 128,-1,38
 651 579 651 579 581 620 c 128,-1,39
 511 661 511 661 428.5 661 c 128,-1,40
 346 661 346 661 276 620 c 128,-1,41
 206 579 206 579 165.5 509.5 c 128,-1,42
 125 440 125 440 125 357.5 c 128,-1,43
 125 275 125 275 165.5 205 c 128,-1,44
 206 135 206 135 276 94.5 c 128,-1,45
 346 54 346 54 428.5 54 c 128,-1,46
 511 54 511 54 581 94.5 c 128,-1,47
 651 135 651 135 691.5 205 c 128,-1,36
 732 275 732 275 732 357.5 c 128,-1,37
857 357.5 m 128,-1,49
 857 241 857 241 799.5 142.5 c 128,-1,50
 742 44 742 44 643.5 -13.5 c 128,-1,51
 545 -71 545 -71 428.5 -71 c 128,-1,52
 312 -71 312 -71 213.5 -13.5 c 128,-1,53
 115 44 115 44 57.5 142.5 c 128,-1,54
 0 241 0 241 0 357.5 c 128,-1,55
 0 474 0 474 57.5 572.5 c 128,-1,56
 115 671 115 671 213.5 728.5 c 128,-1,57
 312 786 312 786 428.5 786 c 128,-1,58
 545 786 545 786 643.5 728.5 c 128,-1,59
 742 671 742 671 799.5 572.5 c 128,-1,48
 857 474 857 474 857 357.5 c 128,-1,49
EndSplineSet
EndChar

StartChar: ok_circle
Encoding: 61533 61533 115
Width: 857
Flags: W
LayerCount: 2
Fore
SplineSet
653 403 m 2,0,-1
 418 168 l 2,1,2
 407 157 407 157 392.5 157 c 128,-1,3
 378 157 378 157 368 168 c 2,4,-1
 204 332 l 2,5,6
 193 343 193 343 193 357.5 c 128,-1,7
 193 372 193 372 204 382 c 2,8,-1
 261 439 l 2,9,10
 272 450 272 450 286 450 c 128,-1,11
 300 450 300 450 311 439 c 2,12,-1
 393 357 l 1,13,-1
 546 511 l 2,14,15
 557 522 557 522 571.5 521.5 c 128,-1,16
 586 521 586 521 597 511 c 2,17,-1
 653 454 l 2,18,19
 664 443 664 443 664 428.5 c 128,-1,20
 664 414 664 414 653 403 c 2,0,-1
732 357.5 m 128,-1,22
 732 440 732 440 691.5 509.5 c 128,-1,23
 651 579 651 579 581 620 c 128,-1,24
 511 661 511 661 428.5 661 c 128,-1,25
 346 661 346 661 276 620 c 128,-1,26
 206 579 206 579 165.5 509.5 c 128,-1,27
 125 440 125 440 125 357.5 c 128,-1,28
 125 275 125 275 165.5 205 c 128,-1,29
 206 135 206 135 276 94.5 c 128,-1,30
 346 54 346 54 428.5 54 c 128,-1,31
 511 54 511 54 581 94.5 c 128,-1,32
 651 135 651 135 691.5 205 c 128,-1,21
 732 275 732 275 732 357.5 c 128,-1,22
857 357.5 m 128,-1,34
 857 241 857 241 799.5 142.5 c 128,-1,35
 742 44 742 44 643.5 -13.5 c 128,-1,36
 545 -71 545 -71 428.5 -71 c 128,-1,37
 312 -71 312 -71 213.5 -13.5 c 128,-1,38
 115 44 115 44 57.5 142.5 c 128,-1,39
 0 241 0 241 0 357.5 c 128,-1,40
 0 474 0 474 57.5 572.5 c 128,-1,41
 115 671 115 671 213.5 728.5 c 128,-1,42
 312 786 312 786 428.5 786 c 128,-1,43
 545 786 545 786 643.5 728.5 c 128,-1,44
 742 671 742 671 799.5 572.5 c 128,-1,33
 857 474 857 474 857 357.5 c 128,-1,34
EndSplineSet
EndChar

StartChar: ban_circle
Encoding: 61534 61534 116
Width: 857
Flags: W
LayerCount: 2
Fore
SplineSet
732 359 m 0,0,1
 732 449 732 449 684 523 c 1,2,-1
 263 103 l 1,3,4
 339 53 339 53 429 54 c 0,5,6
 491 54 491 54 547 78 c 128,-1,7
 603 102 603 102 643.5 143 c 128,-1,8
 684 184 684 184 708 240.5 c 128,-1,9
 732 297 732 297 732 359 c 0,0,1
175 192 m 1,10,-1
 596 613 l 1,11,12
 521 664 521 664 429 664 c 0,13,14
 346 664 346 664 276 623 c 128,-1,15
 206 582 206 582 165.5 511.5 c 128,-1,16
 125 441 125 441 125 359 c 0,17,18
 125 268 125 268 175 192 c 1,10,-1
857 358.5 m 128,-1,20
 857 271 857 271 823 191.5 c 128,-1,21
 789 112 789 112 732 54.5 c 128,-1,22
 675 -3 675 -3 595.5 -37 c 128,-1,23
 516 -71 516 -71 429 -71 c 128,-1,24
 342 -71 342 -71 262 -37 c 128,-1,25
 182 -3 182 -3 125 54.5 c 128,-1,26
 68 112 68 112 34 191.5 c 128,-1,27
 0 271 0 271 0 358.5 c 128,-1,28
 0 446 0 446 34 525.5 c 128,-1,29
 68 605 68 605 125 662.5 c 128,-1,30
 182 720 182 720 262 754.5 c 128,-1,31
 342 789 342 789 429 789 c 128,-1,32
 516 789 516 789 595.5 754.5 c 128,-1,33
 675 720 675 720 732 662.5 c 128,-1,34
 789 605 789 605 823 525.5 c 128,-1,19
 857 446 857 446 857 358.5 c 128,-1,20
EndSplineSet
EndChar

StartChar: arrow_left
Encoding: 61536 61536 117
Width: 857
Flags: W
LayerCount: 2
Fore
SplineSet
857 357 m 2,0,-1
 857 286 l 2,1,2
 857 256 857 256 839 235 c 128,-1,3
 821 214 821 214 792 214 c 2,4,-1
 399 214 l 1,5,-1
 562 50 l 2,6,7
 583 30 583 30 583.5 0 c 128,-1,8
 584 -30 584 -30 562 -50 c 1,9,-1
 521 -93 l 2,10,11
 500 -114 500 -114 470 -113 c 0,12,13
 441 -113 441 -113 420 -93 c 2,14,-1
 56 271 l 2,15,16
 35 292 35 292 36 321 c 0,17,18
 36 350 36 350 56 372 c 1,19,-1
 420 735 l 2,20,21
 441 756 441 756 470 756 c 128,-1,22
 499 756 499 756 521 735 c 2,23,-1
 562 694 l 2,24,25
 583 673 583 673 583.5 643 c 128,-1,26
 584 613 584 613 562 592 c 2,27,-1
 399 429 l 1,28,-1
 792 429 l 2,29,30
 821 429 821 429 839 408 c 128,-1,31
 857 387 857 387 857 357 c 2,0,-1
EndSplineSet
EndChar

StartChar: arrow_right
Encoding: 61537 61537 118
Width: 857
Flags: W
LayerCount: 2
Fore
SplineSet
821 321 m 0,0,1
 821 291 821 291 801 271 c 2,2,-1
 438 -93 l 2,3,4
 416 -114 416 -114 387 -113 c 0,5,6
 359 -113 359 -113 336 -93 c 1,7,-1
 295 -51 l 2,8,9
 274 -30 274 -30 273.5 0 c 128,-1,10
 273 30 273 30 295 51 c 2,11,-1
 458 214 l 1,12,-1
 65 214 l 2,13,14
 36 214 36 214 18 235 c 128,-1,15
 0 256 0 256 0 286 c 2,16,-1
 0 357 l 2,17,18
 0 387 0 387 18 408 c 128,-1,19
 36 429 36 429 65 429 c 2,20,-1
 458 429 l 1,21,-1
 295 593 l 2,22,23
 274 613 274 613 273.5 643 c 128,-1,24
 273 673 273 673 295 693 c 1,25,-1
 336 735 l 2,26,27
 357 756 357 756 387 756 c 0,28,29
 418 756 418 756 438 735 c 2,30,-1
 801 372 l 2,31,32
 821 352 821 352 821 321 c 0,0,1
EndSplineSet
EndChar

StartChar: arrow_up
Encoding: 61538 61538 119
Width: 928
Flags: W
LayerCount: 2
Fore
SplineSet
899 315 m 0,0,1
 899 287 899 287 878 265 c 2,2,-1
 836 223 l 2,3,4
 815 202 815 202 786 202 c 0,5,6
 756 202 756 202 735 223 c 2,7,-1
 571 387 l 1,8,-1
 571 -6 l 2,9,10
 571 -35 571 -35 550.5 -53 c 128,-1,11
 530 -71 530 -71 500 -71 c 2,12,-1
 429 -71 l 2,13,14
 399 -71 399 -71 378 -53 c 128,-1,15
 357 -35 357 -35 357 -6 c 2,16,-1
 357 387 l 1,17,-1
 193 223 l 2,18,19
 173 202 173 202 143 202 c 128,-1,20
 113 202 113 202 93 223 c 2,21,-1
 51 265 l 2,22,23
 30 286 30 286 30 315 c 0,24,25
 30 345 30 345 51 366 c 2,26,-1
 414 729 l 2,27,28
 434 750 434 750 464 750 c 128,-1,29
 494 750 494 750 515 729 c 2,30,-1
 878 366 l 2,31,32
 899 344 899 344 899 315 c 0,0,1
EndSplineSet
EndChar

StartChar: arrow_down
Encoding: 61539 61539 120
Width: 928
Flags: W
LayerCount: 2
Fore
SplineSet
899 393 m 0,0,1
 899 363 899 363 878 343 c 2,2,-1
 515 -21 l 2,3,4
 493 -42 493 -42 464 -42 c 0,5,6
 434 -42 434 -42 414 -21 c 2,7,-1
 51 343 l 2,8,9
 30 363 30 363 30 393 c 128,-1,10
 30 423 30 423 51 444 c 2,11,-1
 92 485 l 2,12,13
 114 506 114 506 143 506 c 0,14,15
 173 506 173 506 193 485 c 2,16,-1
 357 321 l 1,17,-1
 357 714 l 2,18,19
 357 743 357 743 378.5 764.5 c 128,-1,20
 400 786 400 786 429 786 c 2,21,-1
 500 786 l 2,22,23
 529 786 529 786 550 764.5 c 128,-1,24
 571 743 571 743 571 714 c 2,25,-1
 571 321 l 1,26,-1
 735 485 l 2,27,28
 756 506 756 506 786 506 c 0,29,30
 815 506 815 506 836 485 c 2,31,-1
 878 444 l 1,32,33
 899 422 899 422 899 393 c 0,0,1
EndSplineSet
EndChar

StartChar: share_alt
Encoding: 61540 61540 121
Width: 1000
Flags: W
LayerCount: 2
Fore
SplineSet
1000 500 m 128,-1,1
 1000 485 1000 485 989 475 c 2,2,-1
 704 189 l 2,3,4
 693 178 693 178 678.5 178.5 c 128,-1,5
 664 179 664 179 653.5 189.5 c 128,-1,6
 643 200 643 200 643 214 c 2,7,-1
 643 357 l 1,8,-1
 518 357 l 2,9,10
 463 357 463 357 420 353.5 c 128,-1,11
 377 350 377 350 334 341.5 c 128,-1,12
 291 333 291 333 259.5 318 c 128,-1,13
 228 303 228 303 201 279.5 c 128,-1,14
 174 256 174 256 156.5 223 c 128,-1,15
 139 190 139 190 129 145.5 c 128,-1,16
 119 101 119 101 119 45 c 0,17,18
 119 14 119 14 122 -24 c 0,19,20
 122 -27 122 -27 123.5 -37 c 128,-1,21
 125 -47 125 -47 125 -52 c 0,22,23
 125 -60 125 -60 120.5 -65.5 c 128,-1,24
 116 -71 116 -71 107 -71 c 128,-1,25
 98 -71 98 -71 92 -62 c 0,26,27
 88 -57 88 -57 84.5 -49.5 c 128,-1,28
 81 -42 81 -42 77 -32.5 c 128,-1,29
 73 -23 73 -23 71 -20 c 0,30,31
 0 139 0 139 0 232 c 0,32,33
 0 343 0 343 30 418 c 0,34,35
 120 643 120 643 518 643 c 2,36,-1
 643 643 l 1,37,-1
 643 786 l 2,38,39
 643 801 643 801 653.5 811 c 128,-1,40
 664 821 664 821 678.5 821 c 128,-1,41
 693 821 693 821 704 811 c 2,42,-1
 989 525 l 2,43,0
 1000 515 1000 515 1000 500 c 128,-1,1
EndSplineSet
EndChar

StartChar: resize_full
Encoding: 61541 61541 122
Width: 857
Flags: W
LayerCount: 2
Fore
SplineSet
421 268 m 128,-1,1
 421 261 421 261 416 255 c 2,2,-1
 230 70 l 1,3,-1
 311 -11 l 2,4,5
 322 -22 322 -22 321.5 -36 c 128,-1,6
 321 -50 321 -50 310.5 -60.5 c 128,-1,7
 300 -71 300 -71 286 -71 c 2,8,-1
 36 -71 l 2,9,10
 21 -71 21 -71 10.5 -60.5 c 128,-1,11
 0 -50 0 -50 0 -36 c 2,12,-1
 0 214 l 2,13,14
 0 229 0 229 10.5 239.5 c 128,-1,15
 21 250 21 250 35.5 250 c 128,-1,16
 50 250 50 250 61 239 c 2,17,-1
 141 159 l 1,18,-1
 326 344 l 2,19,20
 332 350 332 350 339.5 350 c 128,-1,21
 347 350 347 350 352 344 c 2,22,-1
 416 281 l 2,23,0
 421 275 421 275 421 268 c 128,-1,1
857 750 m 2,24,-1
 857 500 l 2,25,26
 857 485 857 485 846.5 474.5 c 128,-1,27
 836 464 836 464 821.5 464 c 128,-1,28
 807 464 807 464 796 475 c 2,29,-1
 716 555 l 1,30,-1
 531 370 l 2,31,32
 525 364 525 364 518 364 c 128,-1,33
 511 364 511 364 505 370 c 2,34,-1
 441 434 l 2,35,36
 435 440 435 440 435.5 447 c 128,-1,37
 436 454 436 454 441 459 c 2,38,-1
 627 645 l 1,39,-1
 546 725 l 2,40,41
 535 736 535 736 535.5 750.5 c 128,-1,42
 536 765 536 765 546.5 775.5 c 128,-1,43
 557 786 557 786 571 786 c 2,44,-1
 821 786 l 2,45,46
 836 786 836 786 846.5 775.5 c 128,-1,47
 857 765 857 765 857 750 c 2,24,-1
EndSplineSet
EndChar

StartChar: resize_small
Encoding: 61542 61542 123
Width: 857
Flags: W
LayerCount: 2
Fore
SplineSet
429 321 m 2,0,-1
 429 71 l 2,1,2
 429 56 429 56 418 46 c 128,-1,3
 407 36 407 36 392.5 36 c 128,-1,4
 378 36 378 36 368 46 c 2,5,-1
 287 127 l 1,6,-1
 102 -59 l 2,7,8
 96 -65 96 -65 89 -64.5 c 128,-1,9
 82 -64 82 -64 76 -59 c 2,10,-1
 13 5 l 2,11,12
 7 11 7 11 7 18 c 128,-1,13
 7 25 7 25 13 31 c 2,14,-1
 198 216 l 1,15,-1
 118 296 l 2,16,17
 107 307 107 307 107 321.5 c 128,-1,18
 107 336 107 336 117.5 346.5 c 128,-1,19
 128 357 128 357 143 357 c 2,20,-1
 393 357 l 2,21,22
 408 357 408 357 418.5 346.5 c 128,-1,23
 429 336 429 336 429 321 c 2,0,-1
850 696.5 m 128,-1,25
 850 689 850 689 844 684 c 2,26,-1
 659 498 l 1,27,-1
 739 418 l 2,28,29
 750 407 750 407 750 392.5 c 128,-1,30
 750 378 750 378 739.5 367.5 c 128,-1,31
 729 357 729 357 714 357 c 2,32,-1
 464 357 l 2,33,34
 449 357 449 357 439 367.5 c 128,-1,35
 429 378 429 378 429 393 c 2,36,-1
 429 643 l 2,37,38
 429 658 429 658 439.5 668.5 c 128,-1,39
 450 679 450 679 464.5 679 c 128,-1,40
 479 679 479 679 489 668 c 2,41,-1
 570 588 l 1,42,-1
 755 773 l 2,43,44
 761 779 761 779 768 778.5 c 128,-1,45
 775 778 775 778 781 773 c 2,46,-1
 844 709 l 2,47,24
 850 704 850 704 850 696.5 c 128,-1,25
EndSplineSet
EndChar

StartChar: plus
Encoding: 61543 61543 124
Width: 785
Flags: W
LayerCount: 2
Fore
SplineSet
786 446 m 2,0,-1
 786 339 l 2,1,2
 786 317 786 317 770 301.5 c 128,-1,3
 754 286 754 286 732 286 c 2,4,-1
 500 286 l 1,5,-1
 500 54 l 2,6,7
 500 32 500 32 484.5 16 c 128,-1,8
 469 0 469 0 446 0 c 2,9,-1
 339 0 l 2,10,11
 317 0 317 0 301.5 15.5 c 128,-1,12
 286 31 286 31 286 54 c 2,13,-1
 286 286 l 1,14,-1
 54 286 l 2,15,16
 32 286 32 286 16 301.5 c 128,-1,17
 0 317 0 317 0 339 c 2,18,-1
 0 446 l 2,19,20
 0 468 0 468 15.5 484 c 128,-1,21
 31 500 31 500 54 500 c 2,22,-1
 286 500 l 1,23,-1
 286 732 l 2,24,25
 286 754 286 754 301.5 770 c 128,-1,26
 317 786 317 786 339 786 c 2,27,-1
 446 786 l 2,28,29
 468 786 468 786 484 770 c 128,-1,30
 500 754 500 754 500 732 c 2,31,-1
 500 500 l 1,32,-1
 732 500 l 2,33,34
 754 500 754 500 770 484 c 128,-1,35
 786 468 786 468 786 446 c 2,0,-1
EndSplineSet
EndChar

StartChar: minus
Encoding: 61544 61544 125
Width: 785
Flags: W
LayerCount: 2
Fore
SplineSet
786 446 m 2,0,-1
 786 339 l 2,1,2
 786 317 786 317 770 301.5 c 128,-1,3
 754 286 754 286 732 286 c 2,4,-1
 54 286 l 2,5,6
 32 286 32 286 16 301.5 c 128,-1,7
 0 317 0 317 0 339 c 2,8,-1
 0 446 l 2,9,10
 0 468 0 468 15.5 484 c 128,-1,11
 31 500 31 500 54 500 c 2,12,-1
 732 500 l 2,13,14
 754 500 754 500 770 484 c 128,-1,15
 786 468 786 468 786 446 c 2,0,-1
EndSplineSet
EndChar

StartChar: asterisk
Encoding: 61545 61545 126
Width: 928
Flags: W
LayerCount: 2
Fore
SplineSet
827 271 m 2,0,1
 853 256 853 256 860.5 227.5 c 128,-1,2
 868 199 868 199 853 174 c 2,3,-1
 818 112 l 2,4,5
 803 86 803 86 774.5 78.5 c 128,-1,6
 746 71 746 71 720 86 c 2,7,-1
 571 171 l 1,8,-1
 571 0 l 2,9,10
 571 -29 571 -29 550 -50 c 128,-1,11
 529 -71 529 -71 500 -71 c 2,12,-1
 429 -71 l 2,13,14
 400 -71 400 -71 378.5 -50 c 128,-1,15
 357 -29 357 -29 357 0 c 2,16,-1
 357 171 l 1,17,-1
 209 86 l 2,18,19
 183 71 183 71 154.5 78.5 c 128,-1,20
 126 86 126 86 111 112 c 2,21,-1
 75 174 l 2,22,23
 60 200 60 200 68 228.5 c 128,-1,24
 76 257 76 257 102 271 c 2,25,-1
 250 357 l 1,26,-1
 102 443 l 2,27,28
 76 458 76 458 68.5 486.5 c 128,-1,29
 61 515 61 515 75 541 c 1,30,-1
 111 602 l 2,31,32
 126 628 126 628 154.5 635.5 c 128,-1,33
 183 643 183 643 209 628 c 2,34,-1
 357 543 l 1,35,-1
 357 714 l 2,36,37
 357 743 357 743 378.5 764.5 c 128,-1,38
 400 786 400 786 429 786 c 2,39,-1
 500 786 l 2,40,41
 529 786 529 786 550 764.5 c 128,-1,42
 571 743 571 743 571 714 c 2,43,-1
 571 543 l 1,44,-1
 720 628 l 2,45,46
 746 643 746 643 774.5 635.5 c 128,-1,47
 803 628 803 628 818 602 c 2,48,-1
 853 541 l 2,49,50
 868 515 868 515 860.5 486.5 c 128,-1,51
 853 458 853 458 827 443 c 2,52,-1
 679 357 l 1,53,-1
 827 271 l 2,0,1
EndSplineSet
EndChar

StartChar: exclamation_sign
Encoding: 61546 61546 127
Width: 857
Flags: W
LayerCount: 2
Fore
SplineSet
428.5 786 m 128,-1,1
 545 786 545 786 643.5 728.5 c 128,-1,2
 742 671 742 671 799.5 572.5 c 128,-1,3
 857 474 857 474 857 357.5 c 128,-1,4
 857 241 857 241 799.5 142.5 c 128,-1,5
 742 44 742 44 643.5 -13.5 c 128,-1,6
 545 -71 545 -71 428.5 -71 c 128,-1,7
 312 -71 312 -71 213.5 -13.5 c 128,-1,8
 115 44 115 44 57.5 142.5 c 128,-1,9
 0 241 0 241 0 357.5 c 128,-1,10
 0 474 0 474 57.5 572.5 c 128,-1,11
 115 671 115 671 213.5 728.5 c 128,-1,0
 312 786 312 786 428.5 786 c 128,-1,1
500 90 m 2,12,-1
 500 196 l 2,13,14
 500 204 500 204 495 209 c 128,-1,15
 490 214 490 214 483 214 c 2,16,-1
 376 214 l 2,17,18
 369 214 369 214 363 208.5 c 128,-1,19
 357 203 357 203 357 196 c 2,20,-1
 357 90 l 2,21,22
 357 83 357 83 362.5 77 c 128,-1,23
 368 71 368 71 376 71 c 2,24,-1
 483 71 l 2,25,26
 490 71 490 71 495 76.5 c 128,-1,27
 500 82 500 82 500 90 c 2,12,-1
499 282 m 2,28,-1
 509 628 l 2,29,30
 509 635 509 635 503 638 c 0,31,32
 497 642 497 642 490 643 c 1,33,-1
 367 643 l 2,34,35
 359 643 359 643 354 638 c 1,36,37
 348 635 348 635 348 628 c 2,38,-1
 358 282 l 2,39,40
 358 276 358 276 363.5 272 c 128,-1,41
 369 268 369 268 377 268 c 2,42,-1
 480 268 l 2,43,44
 488 268 488 268 493 272 c 128,-1,45
 498 276 498 276 499 282 c 2,28,-1
EndSplineSet
EndChar

StartChar: gift
Encoding: 61547 61547 128
Width: 857
Flags: W
LayerCount: 2
Fore
SplineSet
518 100 m 2,0,-1
 518 132 l 1,1,-1
 518 393 l 1,2,-1
 518 500 l 1,3,-1
 339 500 l 1,4,-1
 339 393 l 1,5,-1
 339 132 l 1,6,-1
 339 100 l 2,7,8
 339 86 339 86 349 78.5 c 128,-1,9
 359 71 359 71 375 71 c 2,10,-1
 482 71 l 2,11,12
 498 71 498 71 508 78.5 c 128,-1,13
 518 86 518 86 518 100 c 2,0,-1
263 571 m 2,14,-1
 372 571 l 1,15,-1
 302 661 l 1,16,17
 287 678 287 678 263 679 c 0,18,19
 241 679 241 679 225.5 663 c 128,-1,20
 210 647 210 647 210 625 c 128,-1,21
 210 603 210 603 225.5 587 c 128,-1,22
 241 571 241 571 263 571 c 2,14,-1
647 625 m 128,-1,24
 647 647 647 647 631.5 663 c 128,-1,25
 616 679 616 679 594 679 c 0,26,27
 570 679 570 679 555 661 c 2,28,-1
 485 571 l 1,29,-1
 594 571 l 2,30,31
 616 571 616 571 631.5 587 c 128,-1,23
 647 603 647 603 647 625 c 128,-1,24
857 482 m 2,32,-1
 857 304 l 2,33,34
 857 296 857 296 852 291 c 128,-1,35
 847 286 847 286 839 286 c 2,36,-1
 786 286 l 1,37,-1
 786 54 l 2,38,39
 786 32 786 32 770 16 c 128,-1,40
 754 0 754 0 732 0 c 2,41,-1
 125 0 l 2,42,43
 103 0 103 0 87 15.5 c 128,-1,44
 71 31 71 31 71 54 c 2,45,-1
 71 286 l 1,46,-1
 18 286 l 2,47,48
 10 286 10 286 5 291 c 128,-1,49
 0 296 0 296 0 304 c 2,50,-1
 0 482 l 2,51,52
 0 490 0 490 5 495 c 128,-1,53
 10 500 10 500 18 500 c 2,54,-1
 263 500 l 2,55,56
 211 500 211 500 174.5 536.5 c 128,-1,57
 138 573 138 573 138 625 c 128,-1,58
 138 677 138 677 174.5 713.5 c 128,-1,59
 211 750 211 750 263 750 c 0,60,61
 323 750 323 750 357 707 c 2,62,-1
 429 615 l 1,63,-1
 500 707 l 2,64,65
 534 750 534 750 594 750 c 0,66,67
 646 750 646 750 682.5 713.5 c 128,-1,68
 719 677 719 677 719 625 c 128,-1,69
 719 573 719 573 682.5 536.5 c 128,-1,70
 646 500 646 500 594 500 c 2,71,-1
 839 500 l 2,72,73
 847 500 847 500 852 495 c 128,-1,74
 857 490 857 490 857 482 c 2,32,-1
EndSplineSet
EndChar

StartChar: leaf
Encoding: 61548 61548 129
Width: 1000
Flags: W
LayerCount: 2
Fore
SplineSet
714 464.5 m 128,-1,1
 714 479 714 479 703.5 489.5 c 128,-1,2
 693 500 693 500 679 500 c 0,3,4
 583 500 583 500 501.5 472.5 c 128,-1,5
 420 445 420 445 356.5 397.5 c 128,-1,6
 293 350 293 350 225 275 c 0,7,8
 214 263 214 263 214 250 c 0,9,10
 214 235 214 235 224.5 224.5 c 128,-1,11
 235 214 235 214 250 214 c 0,12,13
 263 214 263 214 275 225 c 0,14,15
 290 238 290 238 316.5 264.5 c 128,-1,16
 343 291 343 291 354 301 c 0,17,18
 430 370 430 370 503.5 399.5 c 128,-1,19
 577 429 577 429 679 429 c 0,20,21
 694 429 694 429 704 439.5 c 128,-1,0
 714 450 714 450 714 464.5 c 128,-1,1
1000 575 m 0,22,23
 1000 522 1000 522 989 467 c 0,24,25
 963 342 963 342 886 253.5 c 128,-1,26
 809 165 809 165 686 104 c 0,27,28
 567 44 567 44 442 44 c 0,29,30
 359 44 359 44 282 70 c 0,31,32
 274 73 274 73 233.5 93.5 c 128,-1,33
 193 114 193 114 180 114 c 0,34,35
 171 114 171 114 158 96 c 128,-1,36
 145 78 145 78 133 57 c 128,-1,37
 121 36 121 36 103.5 18 c 128,-1,38
 86 0 86 0 70 0 c 0,39,40
 53 0 53 0 41.5 6 c 128,-1,41
 30 12 30 12 24 19.5 c 128,-1,42
 18 27 18 27 9 43 c 0,43,44
 8 45 8 45 5.5 49 c 128,-1,45
 3 53 3 53 2.5 54.5 c 128,-1,46
 2 56 2 56 1 60 c 128,-1,47
 0 64 0 64 0 68 c 0,48,49
 0 88 0 88 17.5 109 c 128,-1,50
 35 130 35 130 55.5 145 c 128,-1,51
 76 160 76 160 93 176.5 c 128,-1,52
 110 193 110 193 110 203 c 0,53,54
 110 205 110 205 102.5 224 c 128,-1,55
 95 243 95 243 94 249 c 0,56,57
 89 277 89 277 89 307 c 0,58,59
 89 371 89 371 113 429.5 c 128,-1,60
 137 488 137 488 179.5 532.5 c 128,-1,61
 222 577 222 577 275 610 c 128,-1,62
 328 643 328 643 388 664 c 0,63,64
 419 674 419 674 469.5 678 c 128,-1,65
 520 682 520 682 569.5 683 c 128,-1,66
 619 684 619 684 669 686.5 c 128,-1,67
 719 689 719 689 760.5 699.5 c 128,-1,68
 802 710 802 710 824 731 c 0,69,70
 830 737 830 737 840.5 747.5 c 128,-1,71
 851 758 851 758 856.5 763 c 128,-1,72
 862 768 862 768 871.5 774.5 c 128,-1,73
 881 781 881 781 892 783.5 c 128,-1,74
 903 786 903 786 916 786 c 0,75,76
 938 786 938 786 955.5 760 c 128,-1,77
 973 734 973 734 982 697.5 c 128,-1,78
 991 661 991 661 995.5 628.5 c 128,-1,79
 1000 596 1000 596 1000 575 c 0,22,23
EndSplineSet
EndChar

StartChar: fire
Encoding: 61549 61549 130
Width: 785
Flags: W
LayerCount: 2
Fore
SplineSet
786 -89 m 2,0,-1
 786 -125 l 2,1,2
 786 -132 786 -132 780.5 -137.5 c 128,-1,3
 775 -143 775 -143 768 -143 c 2,4,-1
 18 -143 l 2,5,6
 11 -143 11 -143 5.5 -137.5 c 128,-1,7
 0 -132 0 -132 0 -125 c 2,8,-1
 0 -89 l 2,9,10
 0 -82 0 -82 5.5 -76.5 c 128,-1,11
 11 -71 11 -71 18 -71 c 2,12,-1
 768 -71 l 2,13,14
 775 -71 775 -71 780.5 -76.5 c 128,-1,15
 786 -82 786 -82 786 -89 c 2,0,-1
643 500 m 0,16,17
 643 456 643 456 629.5 419.5 c 128,-1,18
 616 383 616 383 593.5 357 c 128,-1,19
 571 331 571 331 544.5 308 c 128,-1,20
 518 285 518 285 491 264.5 c 128,-1,21
 464 244 464 244 442 224 c 128,-1,22
 420 204 420 204 406.5 178.5 c 128,-1,23
 393 153 393 153 393 125 c 0,24,25
 393 71 393 71 430 0 c 1,26,-1
 428 1 l 1,27,-1
 429 0 l 1,28,29
 379 23 379 23 339.5 46.5 c 128,-1,30
 300 70 300 70 262 102 c 128,-1,31
 224 134 224 134 199 170 c 128,-1,32
 174 206 174 206 158.5 254 c 128,-1,33
 143 302 143 302 143 357 c 0,34,35
 143 401 143 401 156.5 437.5 c 128,-1,36
 170 474 170 474 192 500 c 128,-1,37
 214 526 214 526 241 549.5 c 128,-1,38
 268 573 268 573 294.5 593 c 128,-1,39
 321 613 321 613 343.5 633 c 128,-1,40
 366 653 366 653 379.5 678.5 c 128,-1,41
 393 704 393 704 393 732 c 0,42,43
 393 784 393 784 356 857 c 1,44,-1
 358 857 l 1,45,-1
 357 857 l 1,46,47
 407 834 407 834 446 810.5 c 128,-1,48
 485 787 485 787 523.5 755 c 128,-1,49
 562 723 562 723 587 687 c 128,-1,50
 612 651 612 651 627.5 603 c 128,-1,51
 643 555 643 555 643 500 c 0,16,17
EndSplineSet
EndChar

StartChar: eye_open
Encoding: 61550 61550 131
Width: 1000
Flags: W
LayerCount: 2
Fore
SplineSet
929 321 m 1,0,1
 844 453 844 453 716 518 c 1,2,3
 750 460 750 460 750 393 c 0,4,5
 750 290 750 290 676.5 216.5 c 128,-1,6
 603 143 603 143 500 143 c 128,-1,7
 397 143 397 143 323.5 216.5 c 128,-1,8
 250 290 250 290 250 393 c 0,9,10
 250 461 250 461 284 518 c 1,11,12
 156 453 156 453 71 321 c 1,13,14
 145 207 145 207 257 139 c 128,-1,15
 369 71 369 71 500 71 c 128,-1,16
 631 71 631 71 743 139 c 128,-1,17
 855 207 855 207 929 321 c 1,0,1
527 536 m 128,-1,19
 527 547 527 547 519 554.5 c 128,-1,20
 511 562 511 562 500 562 c 0,21,22
 430 562 430 562 380 512.5 c 128,-1,23
 330 463 330 463 330 393 c 0,24,25
 330 382 330 382 338 374 c 128,-1,26
 346 366 346 366 357 366 c 128,-1,27
 368 366 368 366 376 374 c 128,-1,28
 384 382 384 382 384 393 c 0,29,30
 384 441 384 441 418 475 c 128,-1,31
 452 509 452 509 500 509 c 0,32,33
 511 509 511 509 519 517 c 128,-1,18
 527 525 527 525 527 536 c 128,-1,19
1000 321 m 128,-1,35
 1000 302 1000 302 989 283 c 0,36,37
 911 155 911 155 779 77.5 c 128,-1,38
 647 0 647 0 500 0 c 128,-1,39
 353 0 353 0 221 77.5 c 128,-1,40
 89 155 89 155 11 283 c 1,41,42
 0 303 0 303 0 321.5 c 128,-1,43
 0 340 0 340 11 360 c 1,44,45
 89 488 89 488 221 565.5 c 128,-1,46
 353 643 353 643 500 643 c 128,-1,47
 647 643 647 643 779 565.5 c 128,-1,48
 911 488 911 488 989 360 c 1,49,34
 1000 340 1000 340 1000 321 c 128,-1,35
EndSplineSet
EndChar

StartChar: eye_close
Encoding: 61552 61552 132
Width: 1000
Flags: W
LayerCount: 2
Fore
SplineSet
310 112 m 1,0,-1
 353 191 l 1,1,2
 304 226 304 226 277 279.5 c 128,-1,3
 250 333 250 333 250 393 c 0,4,5
 250 461 250 461 284 518 c 1,6,7
 156 453 156 453 71 321 c 1,8,9
 165 177 165 177 310 112 c 1,0,-1
527 536 m 128,-1,11
 527 547 527 547 519 554.5 c 128,-1,12
 511 562 511 562 500 562 c 0,13,14
 430 562 430 562 380 512.5 c 128,-1,15
 330 463 330 463 330 393 c 0,16,17
 330 382 330 382 338 374 c 128,-1,18
 346 366 346 366 357 366 c 128,-1,19
 368 366 368 366 376 374 c 128,-1,20
 384 382 384 382 384 393 c 0,21,22
 384 441 384 441 418 475 c 128,-1,23
 452 509 452 509 500 509 c 0,24,25
 511 509 511 509 519 517 c 128,-1,10
 527 525 527 525 527 536 c 128,-1,11
729 642 m 0,26,27
 729 638 729 638 729 637 c 0,28,29
 670 532 670 532 553 321 c 128,-1,30
 436 110 436 110 377 5 c 2,31,-1
 349 -45 l 2,32,33
 343 -54 343 -54 334 -54 c 0,34,35
 327 -54 327 -54 259 -15 c 0,36,37
 250 -9 250 -9 250 1 c 0,38,39
 250 8 250 8 275 50 c 1,40,41
 195 86 195 86 127.5 146 c 128,-1,42
 60 206 60 206 11 283 c 0,43,44
 0 300 0 300 0 321.5 c 128,-1,45
 0 343 0 343 11 360 c 0,46,47
 96 491 96 491 223 567 c 128,-1,48
 350 643 350 643 500 643 c 0,49,50
 550 643 550 643 600 633 c 1,51,-1
 631 688 l 2,52,53
 637 697 637 697 646 696 c 0,54,55
 649 696 649 696 656.5 693 c 128,-1,56
 664 690 664 690 674 684.5 c 128,-1,57
 684 679 684 679 692 674 c 128,-1,58
 700 669 700 669 709.5 663.5 c 128,-1,59
 719 658 719 658 720 657 c 0,60,61
 729 651 729 651 729 642 c 0,26,27
750 393 m 0,62,63
 750 315 750 315 706 251.5 c 128,-1,64
 662 188 662 188 589 160 c 1,65,-1
 746 440 l 1,66,67
 750 415 750 415 750 393 c 0,62,63
1000 321.5 m 128,-1,69
 1000 302 1000 302 989 283 c 0,70,71
 967 247 967 247 928 202 c 0,72,73
 844 106 844 106 734 53 c 128,-1,74
 624 0 624 0 500 0 c 1,75,-1
 541 74 l 1,76,77
 659 84 659 84 760 150.5 c 128,-1,78
 861 217 861 217 929 321 c 1,79,80
 865 421 865 421 771 485 c 1,81,-1
 806 548 l 1,82,83
 859 512 859 512 908 462.5 c 128,-1,84
 957 413 957 413 989 360 c 0,85,68
 1000 341 1000 341 1000 321.5 c 128,-1,69
EndSplineSet
EndChar

StartChar: warning_sign
Encoding: 61553 61553 133
Width: 1000
Flags: W
LayerCount: 2
Fore
SplineSet
571 90 m 2,0,-1
 571 196 l 2,1,2
 571 204 571 204 566 209 c 128,-1,3
 561 214 561 214 554 214 c 2,4,-1
 446 214 l 2,5,6
 439 214 439 214 434 209 c 128,-1,7
 429 204 429 204 429 196 c 2,8,-1
 429 90 l 2,9,10
 429 82 429 82 434 76.5 c 128,-1,11
 439 71 439 71 446 71 c 2,12,-1
 554 71 l 2,13,14
 561 71 561 71 566 76.5 c 128,-1,15
 571 82 571 82 571 90 c 2,0,-1
570 299 m 2,16,-1
 580 555 l 2,17,18
 580 562 580 562 575 565 c 0,19,20
 568 571 568 571 561 571 c 2,21,-1
 439 571 l 2,22,23
 433 571 433 571 425 565 c 0,24,25
 419 561 419 561 420 554 c 2,26,-1
 429 299 l 2,27,28
 429 293 429 293 434.5 289.5 c 128,-1,29
 440 286 440 286 448 286 c 2,30,-1
 551 286 l 2,31,32
 559 286 559 286 564 289.5 c 128,-1,33
 569 293 569 293 570 299 c 2,16,-1
562 820 m 2,34,-1
 991 34 l 2,35,36
 1011 -1 1011 -1 990 -36 c 0,37,38
 981 -52 981 -52 964.5 -61.5 c 128,-1,39
 948 -71 948 -71 929 -71 c 2,40,-1
 71 -71 l 2,41,42
 52 -71 52 -71 36 -61.5 c 128,-1,43
 20 -52 20 -52 10 -36 c 0,44,45
 -11 -1 -11 -1 9 34 c 2,46,-1
 438 820 l 2,47,48
 447 837 447 837 463.5 847 c 128,-1,49
 480 857 480 857 500 857 c 128,-1,50
 520 857 520 857 536.5 847 c 128,-1,51
 553 837 553 837 562 820 c 2,34,-1
EndSplineSet
EndChar

StartChar: plane
Encoding: 61554 61554 134
Width: 785
Flags: W
LayerCount: 2
Fore
SplineSet
762 582 m 1,0,1
 814 472 814 472 814 346 c 0,2,3
 814 279 814 279 799 216 c 128,-1,4
 784 153 784 153 757 99.5 c 128,-1,5
 730 46 730 46 691 0.5 c 128,-1,6
 652 -45 652 -45 605.5 -76.5 c 128,-1,7
 559 -108 559 -108 504.5 -125.5 c 128,-1,8
 450 -143 450 -143 393 -143 c 128,-1,9
 336 -143 336 -143 281 -125.5 c 128,-1,10
 226 -108 226 -108 180 -76.5 c 128,-1,11
 134 -45 134 -45 95 0.5 c 128,-1,12
 56 46 56 46 29 99.5 c 128,-1,13
 2 153 2 153 -13 216.5 c 128,-1,14
 -28 280 -28 280 -28 346 c 0,15,16
 -28 453 -28 453 11 552 c 1,17,-1
 7 854 l 1,18,-1
 174 764 l 1,19,20
 275 836 275 836 393 835 c 0,21,22
 505 835 505 835 602 770 c 1,23,-1
 762 857 l 1,24,-1
 762 582 l 1,0,1
432 -17 m 0,25,26
 502 -17 502 -17 561.5 10 c 128,-1,27
 621 37 621 37 657.5 86 c 128,-1,28
 694 135 694 135 694 197 c 0,29,30
 694 234 694 234 681 266 c 128,-1,31
 668 298 668 298 647.5 320.5 c 128,-1,32
 627 343 627 343 600.5 363 c 128,-1,33
 574 383 574 383 546 397 c 128,-1,34
 518 411 518 411 491.5 425 c 128,-1,35
 465 439 465 439 444.5 451 c 128,-1,36
 424 463 424 463 411.5 477 c 128,-1,37
 399 491 399 491 399 506 c 0,38,39
 399 525 399 525 413.5 538.5 c 128,-1,40
 428 552 428 552 447 552 c 0,41,42
 463 552 463 552 480.5 541 c 128,-1,43
 498 530 498 530 513.5 514.5 c 128,-1,44
 529 499 529 499 546 483.5 c 128,-1,45
 563 468 563 468 583.5 457 c 128,-1,46
 604 446 604 446 625 446 c 0,47,48
 652 446 652 446 671.5 464 c 128,-1,49
 691 482 691 482 691 509 c 0,50,51
 691 530 691 530 680 560 c 128,-1,52
 669 590 669 590 652.5 618.5 c 128,-1,53
 636 647 636 647 612.5 667 c 128,-1,54
 589 687 589 687 568 687 c 0,55,56
 556 687 556 687 531 679 c 1,57,58
 510 670 510 670 495 670 c 0,59,60
 482 670 482 670 440 679 c 1,61,62
 389 687 389 687 360 687 c 0,63,64
 291 687 291 687 234.5 661 c 128,-1,65
 178 635 178 635 145 584.5 c 128,-1,66
 112 534 112 534 112 469 c 0,67,68
 112 424 112 424 126.5 386.5 c 128,-1,69
 141 349 141 349 164 324 c 128,-1,70
 187 299 187 299 215 279 c 128,-1,71
 243 259 243 259 271 244.5 c 128,-1,72
 299 230 299 230 322 217 c 128,-1,73
 345 204 345 204 359.5 189.5 c 128,-1,74
 374 175 374 175 374 159 c 0,75,76
 374 138 374 138 359 127 c 128,-1,77
 344 116 344 116 322 116 c 0,78,79
 301 116 301 116 279.5 129.5 c 128,-1,80
 258 143 258 143 240 162.5 c 128,-1,81
 222 182 222 182 204.5 202 c 128,-1,82
 187 222 187 222 169 235.5 c 128,-1,83
 151 249 151 249 134 249 c 0,84,85
 83 249 83 249 83 186 c 0,86,87
 83 149 83 149 104 99.5 c 128,-1,88
 125 50 125 50 150 21 c 0,89,90
 164 6 164 6 176.5 0.5 c 128,-1,91
 189 -5 189 -5 209 -5 c 0,92,93
 217 -5 217 -5 235 -2 c 128,-1,94
 253 1 253 1 262 1 c 0,95,96
 268 1 268 1 333 -7 c 1,97,98
 393 -17 393 -17 432 -17 c 0,25,26
EndSplineSet
EndChar

StartChar: calendar
Encoding: 61555 61555 135
Width: 928
Flags: W
LayerCount: 2
Fore
SplineSet
71 -71 m 1,0,-1
 232 -71 l 1,1,-1
 232 89 l 1,2,-1
 71 89 l 1,3,-1
 71 -71 l 1,0,-1
268 -71 m 1,4,-1
 446 -71 l 1,5,-1
 446 89 l 1,6,-1
 268 89 l 1,7,-1
 268 -71 l 1,4,-1
71 125 m 1,8,-1
 232 125 l 1,9,-1
 232 304 l 1,10,-1
 71 304 l 1,11,-1
 71 125 l 1,8,-1
268 125 m 1,12,-1
 446 125 l 1,13,-1
 446 304 l 1,14,-1
 268 304 l 1,15,-1
 268 125 l 1,12,-1
71 339 m 1,16,-1
 232 339 l 1,17,-1
 232 500 l 1,18,-1
 71 500 l 1,19,-1
 71 339 l 1,16,-1
482 -71 m 1,20,-1
 661 -71 l 1,21,-1
 661 89 l 1,22,-1
 482 89 l 1,23,-1
 482 -71 l 1,20,-1
268 339 m 1,24,-1
 446 339 l 1,25,-1
 446 500 l 1,26,-1
 268 500 l 1,27,-1
 268 339 l 1,24,-1
696 -71 m 1,28,-1
 857 -71 l 1,29,-1
 857 89 l 1,30,-1
 696 89 l 1,31,-1
 696 -71 l 1,28,-1
482 125 m 1,32,-1
 661 125 l 1,33,-1
 661 304 l 1,34,-1
 482 304 l 1,35,-1
 482 125 l 1,32,-1
286 607 m 2,36,-1
 286 768 l 2,37,38
 286 775 286 775 280.5 780.5 c 128,-1,39
 275 786 275 786 268 786 c 2,40,-1
 232 786 l 2,41,42
 225 786 225 786 219.5 780.5 c 128,-1,43
 214 775 214 775 214 768 c 2,44,-1
 214 607 l 2,45,46
 214 600 214 600 219.5 594.5 c 128,-1,47
 225 589 225 589 232 589 c 2,48,-1
 268 589 l 2,49,50
 275 589 275 589 280.5 594.5 c 128,-1,51
 286 600 286 600 286 607 c 2,36,-1
696 125 m 1,52,-1
 857 125 l 1,53,-1
 857 304 l 1,54,-1
 696 304 l 1,55,-1
 696 125 l 1,52,-1
482 339 m 1,56,-1
 661 339 l 1,57,-1
 661 500 l 1,58,-1
 482 500 l 1,59,-1
 482 339 l 1,56,-1
696 339 m 1,60,-1
 857 339 l 1,61,-1
 857 500 l 1,62,-1
 696 500 l 1,63,-1
 696 339 l 1,60,-1
714 607 m 2,64,-1
 714 768 l 2,65,66
 714 775 714 775 709 780.5 c 128,-1,67
 704 786 704 786 696 786 c 2,68,-1
 661 786 l 2,69,70
 654 786 654 786 648.5 780.5 c 128,-1,71
 643 775 643 775 643 768 c 2,72,-1
 643 607 l 2,73,74
 643 600 643 600 648 594.5 c 128,-1,75
 653 589 653 589 661 589 c 2,76,-1
 696 589 l 2,77,78
 703 589 703 589 708.5 594.5 c 128,-1,79
 714 600 714 600 714 607 c 2,64,-1
929 643 m 2,80,-1
 929 -71 l 2,81,82
 929 -100 929 -100 907.5 -121.5 c 128,-1,83
 886 -143 886 -143 857 -143 c 2,84,-1
 71 -143 l 2,85,86
 42 -143 42 -143 21 -121.5 c 128,-1,87
 0 -100 0 -100 0 -71 c 2,88,-1
 0 643 l 2,89,90
 0 672 0 672 21 693 c 128,-1,91
 42 714 42 714 71 714 c 2,92,-1
 143 714 l 1,93,-1
 143 768 l 2,94,95
 143 805 143 805 169 831 c 128,-1,96
 195 857 195 857 232 857 c 2,97,-1
 268 857 l 2,98,99
 305 857 305 857 331 831 c 128,-1,100
 357 805 357 805 357 768 c 2,101,-1
 357 714 l 1,102,-1
 571 714 l 1,103,-1
 571 768 l 2,104,105
 571 805 571 805 597.5 831 c 128,-1,106
 624 857 624 857 661 857 c 2,107,-1
 696 857 l 2,108,109
 733 857 733 857 759.5 831 c 128,-1,110
 786 805 786 805 786 768 c 2,111,-1
 786 714 l 1,112,-1
 857 714 l 2,113,114
 886 714 886 714 907.5 693 c 128,-1,115
 929 672 929 672 929 643 c 2,80,-1
EndSplineSet
EndChar

StartChar: random
Encoding: 61556 61556 136
Width: 1000
Flags: W
LayerCount: 2
Fore
SplineSet
372 589 m 1,0,1
 339 538 339 538 295 436 c 1,2,3
 283 461 283 461 274.5 476.5 c 128,-1,4
 266 492 266 492 252 512 c 128,-1,5
 238 532 238 532 223.5 543.5 c 128,-1,6
 209 555 209 555 188 563 c 128,-1,7
 167 571 167 571 143 571 c 2,8,-1
 18 571 l 2,9,10
 10 571 10 571 5 576 c 128,-1,11
 0 581 0 581 0 589 c 2,12,-1
 0 696 l 2,13,14
 0 704 0 704 5 709 c 128,-1,15
 10 714 10 714 18 714 c 2,16,-1
 143 714 l 1,17,18
 283 715 283 715 372 589 c 1,0,1
1000 143 m 128,-1,20
 1000 135 1000 135 995 130 c 2,21,-1
 816 -49 l 2,22,23
 811 -54 811 -54 804 -54 c 128,-1,24
 797 -54 797 -54 791.5 -48.5 c 128,-1,25
 786 -43 786 -43 786 -36 c 2,26,-1
 786 71 l 1,27,28
 768 71 768 71 738.5 71 c 128,-1,29
 709 71 709 71 693 70.5 c 128,-1,30
 677 70 677 70 652 71 c 128,-1,31
 627 72 627 72 612.5 74 c 128,-1,32
 598 76 598 76 577 80 c 128,-1,33
 556 84 556 84 542 90.5 c 128,-1,34
 528 97 528 97 509.5 106.5 c 128,-1,35
 491 116 491 116 476.5 128.5 c 128,-1,36
 462 141 462 141 446 158 c 128,-1,37
 430 175 430 175 415 197 c 1,38,39
 448 249 448 249 491 349 c 1,40,41
 503 324 503 324 511.5 309 c 128,-1,42
 520 294 520 294 534 273.5 c 128,-1,43
 548 253 548 253 562 241.5 c 128,-1,44
 576 230 576 230 597 222 c 128,-1,45
 618 214 618 214 643 214 c 2,46,-1
 786 214 l 1,47,-1
 786 321 l 2,48,49
 786 329 786 329 791 334 c 128,-1,50
 796 339 796 339 804 339 c 0,51,52
 811 339 811 339 817 334 c 2,53,-1
 995 156 l 2,54,19
 1000 151 1000 151 1000 143 c 128,-1,20
1000 643 m 128,-1,56
 1000 635 1000 635 995 630 c 2,57,-1
 816 451 l 2,58,59
 811 446 811 446 804 446 c 128,-1,60
 797 446 797 446 791.5 451.5 c 128,-1,61
 786 457 786 457 786 464 c 2,62,-1
 786 571 l 1,63,-1
 643 571 l 2,64,65
 616 571 616 571 594.5 563 c 128,-1,66
 573 555 573 555 556 538 c 128,-1,67
 539 521 539 521 527.5 503.5 c 128,-1,68
 516 486 516 486 502 460 c 0,69,70
 484 425 484 425 459 365 c 0,71,72
 443 328 443 328 431.5 303 c 128,-1,73
 420 278 420 278 401 244.5 c 128,-1,74
 382 211 382 211 365 188.5 c 128,-1,75
 348 166 348 166 324 142 c 128,-1,76
 300 118 300 118 274 104 c 128,-1,77
 248 90 248 90 214.5 80.5 c 128,-1,78
 181 71 181 71 143 71 c 2,79,-1
 18 71 l 2,80,81
 10 71 10 71 5 76 c 128,-1,82
 0 81 0 81 0 89 c 2,83,-1
 0 196 l 2,84,85
 0 204 0 204 5 209 c 128,-1,86
 10 214 10 214 18 214 c 2,87,-1
 143 214 l 2,88,89
 170 214 170 214 191.5 222.5 c 128,-1,90
 213 231 213 231 230 248 c 128,-1,91
 247 265 247 265 258.5 282.5 c 128,-1,92
 270 300 270 300 283 325 c 0,93,94
 301 360 301 360 327 421 c 0,95,96
 343 458 343 458 354.5 483 c 128,-1,97
 366 508 366 508 384.5 541.5 c 128,-1,98
 403 575 403 575 420.5 597 c 128,-1,99
 438 619 438 619 462 643 c 128,-1,100
 486 667 486 667 512 681.5 c 128,-1,101
 538 696 538 696 571.5 705 c 128,-1,102
 605 714 605 714 643 714 c 2,103,-1
 786 714 l 1,104,-1
 786 821 l 2,105,106
 786 829 786 829 791 834 c 128,-1,107
 796 839 796 839 804 839 c 0,108,109
 811 839 811 839 817 834 c 2,110,-1
 995 656 l 2,111,55
 1000 651 1000 651 1000 643 c 128,-1,56
EndSplineSet
EndChar

StartChar: comment
Encoding: 61557 61557 137
Width: 1000
Flags: W
LayerCount: 2
Fore
SplineSet
1000 357 m 128,-1,1
 1000 260 1000 260 933 177.5 c 128,-1,2
 866 95 866 95 751 47.5 c 128,-1,3
 636 0 636 0 500 0 c 0,4,5
 461 0 461 0 419 4 c 1,6,7
 309 -94 309 -94 162 -131 c 1,8,9
 135 -139 135 -139 99 -143 c 0,10,11
 90 -144 90 -144 82 -138 c 128,-1,12
 74 -132 74 -132 72 -122 c 1,13,-1
 72 -121 l 1,14,15
 70 -119 70 -119 71.5 -114.5 c 128,-1,16
 73 -110 73 -110 73 -109 c 128,-1,17
 73 -108 73 -108 75.5 -103.5 c 128,-1,18
 78 -99 78 -99 78.5 -98.5 c 128,-1,19
 79 -98 79 -98 82.5 -94 c 128,-1,20
 86 -90 86 -90 87 -89 c 0,21,22
 91 -85 91 -85 104.5 -70 c 128,-1,23
 118 -55 118 -55 123.5 -48.5 c 128,-1,24
 129 -42 129 -42 140.5 -26.5 c 128,-1,25
 152 -11 152 -11 159 2 c 128,-1,26
 166 15 166 15 174 35 c 128,-1,27
 182 55 182 55 189 78 c 1,28,29
 101 128 101 128 50.5 200.5 c 128,-1,30
 0 273 0 273 0 357 c 0,31,32
 0 430 0 430 39.5 496 c 128,-1,33
 79 562 79 562 146 610 c 128,-1,34
 213 658 213 658 305.5 686 c 128,-1,35
 398 714 398 714 500 714 c 0,36,37
 636 714 636 714 751 666.5 c 128,-1,38
 866 619 866 619 933 536.5 c 128,-1,0
 1000 454 1000 454 1000 357 c 128,-1,1
EndSplineSet
EndChar

StartChar: magnet
Encoding: 61558 61558 138
Width: 857
Flags: W
LayerCount: 2
Fore
SplineSet
857 393 m 2,0,-1
 857 321 l 2,1,2
 857 209 857 209 802 119.5 c 128,-1,3
 747 30 747 30 649 -20.5 c 128,-1,4
 551 -71 551 -71 428.5 -71 c 128,-1,5
 306 -71 306 -71 208 -20.5 c 128,-1,6
 110 30 110 30 55 119.5 c 128,-1,7
 0 209 0 209 0 321 c 2,8,-1
 0 393 l 2,9,10
 0 408 0 408 10.5 418.5 c 128,-1,11
 21 429 21 429 36 429 c 2,12,-1
 250 429 l 2,13,14
 265 429 265 429 275.5 418 c 128,-1,15
 286 407 286 407 286 393 c 2,16,-1
 286 321 l 2,17,18
 286 292 286 292 299 271 c 128,-1,19
 312 250 312 250 328.5 239.5 c 128,-1,20
 345 229 345 229 368 223 c 128,-1,21
 391 217 391 217 404 215.5 c 128,-1,22
 417 214 417 214 428.5 214 c 128,-1,23
 440 214 440 214 453 215.5 c 128,-1,24
 466 217 466 217 489 223 c 128,-1,25
 512 229 512 229 528.5 239.5 c 128,-1,26
 545 250 545 250 558 271 c 128,-1,27
 571 292 571 292 571 321 c 2,28,-1
 571 393 l 2,29,30
 571 408 571 408 582 418.5 c 128,-1,31
 593 429 593 429 607 429 c 2,32,-1
 821 429 l 2,33,34
 836 429 836 429 846.5 418.5 c 128,-1,35
 857 408 857 408 857 393 c 2,0,-1
286 750 m 2,36,-1
 286 536 l 2,37,38
 286 521 286 521 275.5 510.5 c 128,-1,39
 265 500 265 500 250 500 c 2,40,-1
 36 500 l 2,41,42
 21 500 21 500 10.5 510.5 c 128,-1,43
 0 521 0 521 0 536 c 2,44,-1
 0 750 l 2,45,46
 0 765 0 765 10.5 775.5 c 128,-1,47
 21 786 21 786 36 786 c 2,48,-1
 250 786 l 2,49,50
 265 786 265 786 275.5 775.5 c 128,-1,51
 286 765 286 765 286 750 c 2,36,-1
857 750 m 2,52,-1
 857 536 l 2,53,54
 857 521 857 521 846.5 510.5 c 128,-1,55
 836 500 836 500 821 500 c 2,56,-1
 607 500 l 2,57,58
 592 500 592 500 581.5 510.5 c 128,-1,59
 571 521 571 521 571 536 c 2,60,-1
 571 750 l 2,61,62
 571 765 571 765 582 775.5 c 128,-1,63
 593 786 593 786 607 786 c 2,64,-1
 821 786 l 2,65,66
 836 786 836 786 846.5 775.5 c 128,-1,67
 857 765 857 765 857 750 c 2,52,-1
EndSplineSet
EndChar

StartChar: chevron_up
Encoding: 61559 61559 139
Width: 928
Flags: W
LayerCount: 2
Fore
SplineSet
899 178.5 m 128,-1,1
 899 149 899 149 878 128 c 2,2,-1
 836 86 l 2,3,4
 815 65 815 65 786 65 c 0,5,6
 756 65 756 65 735 86 c 2,7,-1
 464 357 l 1,8,-1
 193 86 l 2,9,10
 173 65 173 65 143 65 c 128,-1,11
 113 65 113 65 93 86 c 2,12,-1
 51 128 l 2,13,14
 30 148 30 148 30 179 c 0,15,16
 30 209 30 209 51 229 c 2,17,-1
 414 593 l 2,18,19
 435 614 435 614 464 613 c 0,20,21
 493 613 493 613 515 593 c 1,22,-1
 878 229 l 2,23,0
 899 208 899 208 899 178.5 c 128,-1,1
EndSplineSet
EndChar

StartChar: chevron_down
Encoding: 61560 61560 140
Width: 928
Flags: W
LayerCount: 2
Fore
SplineSet
899 464 m 0,0,1
 899 434 899 434 878 414 c 2,2,-1
 515 51 l 2,3,4
 494 30 494 30 464 30 c 128,-1,5
 434 30 434 30 414 51 c 2,6,-1
 51 414 l 2,7,8
 30 434 30 434 30 464 c 128,-1,9
 30 494 30 494 51 515 c 2,10,-1
 92 557 l 1,11,12
 114 578 114 578 143 578 c 0,13,14
 173 578 173 578 193 557 c 2,15,-1
 464 286 l 1,16,-1
 735 557 l 2,17,18
 756 578 756 578 786 578 c 0,19,20
 815 578 815 578 836 557 c 2,21,-1
 878 515 l 2,22,23
 899 493 899 493 899 464 c 0,0,1
EndSplineSet
EndChar

StartChar: retweet
Encoding: 61561 61561 141
Width: 1071
Flags: W
LayerCount: 2
Fore
SplineSet
714 18 m 0,0,1
 714 11 714 11 709 5.5 c 128,-1,2
 704 0 704 0 696 0 c 2,3,-1
 161 0 l 2,4,5
 157 0 157 0 153.5 1 c 128,-1,6
 150 2 150 2 148 5 c 128,-1,7
 146 8 146 8 145 9.5 c 128,-1,8
 144 11 144 11 143.5 16 c 128,-1,9
 143 21 143 21 143 22.5 c 128,-1,10
 143 24 143 24 143 29.5 c 128,-1,11
 143 35 143 35 143 36 c 2,12,-1
 143 125 l 1,13,-1
 143 357 l 1,14,-1
 36 357 l 2,15,16
 21 357 21 357 10.5 367.5 c 128,-1,17
 0 378 0 378 0 393 c 0,18,19
 0 406 0 406 8 416 c 2,20,-1
 187 630 l 2,21,22
 198 642 198 642 214.5 642 c 128,-1,23
 231 642 231 642 242 630 c 2,24,-1
 420 416 l 2,25,26
 428 407 428 407 429 393 c 1,27,28
 429 378 429 378 418 367.5 c 128,-1,29
 407 357 407 357 393 357 c 2,30,-1
 286 357 l 1,31,-1
 286 143 l 1,32,-1
 607 143 l 2,33,34
 616 143 616 143 621 137 c 2,35,-1
 710 30 l 2,36,37
 714 24 714 24 714 18 c 0,0,1
1071 250 m 0,38,39
 1071 237 1071 237 1063 227 c 2,40,-1
 884 13 l 2,41,42
 873 0 873 0 857 0 c 128,-1,43
 841 0 841 0 830 13 c 2,44,-1
 651 227 l 2,45,46
 643 236 643 236 643 250 c 0,47,48
 643 265 643 265 653.5 275.5 c 128,-1,49
 664 286 664 286 679 286 c 2,50,-1
 786 286 l 1,51,-1
 786 500 l 1,52,-1
 464 500 l 2,53,54
 455 500 455 500 450 507 c 2,55,-1
 361 614 l 2,56,57
 357 619 357 619 357 625 c 0,58,59
 357 632 357 632 362.5 637.5 c 128,-1,60
 368 643 368 643 375 643 c 2,61,-1
 911 643 l 2,62,63
 915 643 915 643 918 642 c 128,-1,64
 921 641 921 641 923 638 c 128,-1,65
 925 635 925 635 926 633.5 c 128,-1,66
 927 632 927 632 928 627 c 128,-1,67
 929 622 929 622 929 620.5 c 128,-1,68
 929 619 929 619 929 613.5 c 128,-1,69
 929 608 929 608 929 607 c 2,70,-1
 929 518 l 1,71,-1
 929 286 l 1,72,-1
 1036 286 l 2,73,74
 1051 286 1051 286 1061 275.5 c 128,-1,75
 1071 265 1071 265 1071 250 c 0,38,39
EndSplineSet
EndChar

StartChar: shopping_cart
Encoding: 61562 61562 142
Width: 928
Flags: W
LayerCount: 2
Fore
SplineSet
357 0 m 128,-1,1
 357 -30 357 -30 336 -50.5 c 128,-1,2
 315 -71 315 -71 285.5 -71 c 128,-1,3
 256 -71 256 -71 235 -50.5 c 128,-1,4
 214 -30 214 -30 214 0 c 128,-1,5
 214 30 214 30 235 50.5 c 128,-1,6
 256 71 256 71 285.5 71 c 128,-1,7
 315 71 315 71 336 50.5 c 128,-1,0
 357 30 357 30 357 0 c 128,-1,1
857 0 m 128,-1,9
 857 -30 857 -30 836 -50.5 c 128,-1,10
 815 -71 815 -71 785.5 -71 c 128,-1,11
 756 -71 756 -71 735 -50.5 c 128,-1,12
 714 -30 714 -30 714 0 c 128,-1,13
 714 30 714 30 735 50.5 c 128,-1,14
 756 71 756 71 785.5 71 c 128,-1,15
 815 71 815 71 836 50.5 c 128,-1,8
 857 30 857 30 857 0 c 128,-1,9
929 607 m 2,16,-1
 929 321 l 2,17,18
 929 308 929 308 920 297.5 c 128,-1,19
 911 287 911 287 897 286 c 2,20,-1
 314 218 l 1,21,22
 315 214 315 214 317 206 c 128,-1,23
 319 198 319 198 320 191 c 128,-1,24
 321 184 321 184 321 179 c 0,25,26
 321 170 321 170 308 143 c 1,27,-1
 821 143 l 2,28,29
 836 143 836 143 846.5 132.5 c 128,-1,30
 857 122 857 122 857 107.5 c 128,-1,31
 857 93 857 93 846.5 82 c 128,-1,32
 836 71 836 71 821 71 c 2,33,-1
 250 71 l 2,34,35
 235 71 235 71 224.5 82 c 128,-1,36
 214 93 214 93 214 107 c 0,37,38
 214 115 214 115 220.5 129 c 128,-1,39
 227 143 227 143 237 162 c 128,-1,40
 247 181 247 181 248 184 c 1,41,-1
 150 643 l 1,42,-1
 36 643 l 2,43,44
 21 643 21 643 10.5 653.5 c 128,-1,45
 0 664 0 664 0 678.5 c 128,-1,46
 0 693 0 693 10.5 703.5 c 128,-1,47
 21 714 21 714 36 714 c 2,48,-1
 179 714 l 2,49,50
 188 714 188 714 194.5 710.5 c 128,-1,51
 201 707 201 707 205.5 702 c 128,-1,52
 210 697 210 697 213 688.5 c 128,-1,53
 216 680 216 680 217 673.5 c 128,-1,54
 218 667 218 667 220 657 c 128,-1,55
 222 647 222 647 223 643 c 1,56,-1
 893 643 l 2,57,58
 908 643 908 643 918.5 632.5 c 128,-1,59
 929 622 929 622 929 607 c 2,16,-1
EndSplineSet
EndChar

StartChar: folder_close
Encoding: 61563 61563 143
Width: 928
Flags: W
LayerCount: 2
Fore
SplineSet
929 518 m 2,0,-1
 929 125 l 2,1,2
 929 74 929 74 892 37 c 128,-1,3
 855 0 855 0 804 0 c 2,4,-1
 125 0 l 2,5,6
 74 0 74 0 37 37 c 128,-1,7
 0 74 0 74 0 125 c 2,8,-1
 0 661 l 2,9,10
 0 712 0 712 37 749 c 128,-1,11
 74 786 74 786 125 786 c 2,12,-1
 304 786 l 2,13,14
 355 786 355 786 392 749 c 128,-1,15
 429 712 429 712 429 661 c 2,16,-1
 429 643 l 1,17,-1
 804 643 l 2,18,19
 855 643 855 643 892 606 c 128,-1,20
 929 569 929 569 929 518 c 2,0,-1
EndSplineSet
EndChar

StartChar: folder_open
Encoding: 61564 61564 144
Width: 1071
Flags: W
LayerCount: 2
Fore
SplineSet
1049 326 m 128,-1,1
 1049 309 1049 309 1031 289 c 2,2,-1
 844 68 l 2,3,4
 820 40 820 40 776.5 20 c 128,-1,5
 733 0 733 0 696 0 c 2,6,-1
 89 0 l 2,7,8
 70 0 70 0 55.5 7.5 c 128,-1,9
 41 15 41 15 41 31 c 0,10,11
 41 48 41 48 58 68 c 2,12,-1
 246 289 l 2,13,14
 270 317 270 317 313 337 c 128,-1,15
 356 357 356 357 393 357 c 2,16,-1
 1000 357 l 2,17,18
 1019 357 1019 357 1034 350 c 128,-1,0
 1049 343 1049 343 1049 326 c 128,-1,1
857 518 m 2,19,-1
 857 429 l 1,20,-1
 393 429 l 2,21,22
 341 429 341 429 283 402.5 c 128,-1,23
 225 376 225 376 191 335 c 2,24,-1
 3 114 l 1,25,-1
 1 111 l 1,26,27
 1 113 1 113 0.5 118 c 128,-1,28
 0 123 0 123 0 125 c 2,29,-1
 0 661 l 2,30,31
 0 712 0 712 37 749 c 128,-1,32
 74 786 74 786 125 786 c 2,33,-1
 304 786 l 2,34,35
 355 786 355 786 392 749 c 128,-1,36
 429 712 429 712 429 661 c 2,37,-1
 429 643 l 1,38,-1
 732 643 l 2,39,40
 783 643 783 643 820 606 c 128,-1,41
 857 569 857 569 857 518 c 2,19,-1
EndSplineSet
EndChar

StartChar: resize_vertical
Encoding: 61565 61565 145
Width: 428
Flags: W
LayerCount: 2
Fore
SplineSet
393 678.5 m 128,-1,1
 393 664 393 664 382.5 653.5 c 128,-1,2
 372 643 372 643 357 643 c 2,3,-1
 286 643 l 1,4,-1
 286 71 l 1,5,-1
 357 71 l 2,6,7
 372 71 372 71 382.5 60.5 c 128,-1,8
 393 50 393 50 393 35.5 c 128,-1,9
 393 21 393 21 382 11 c 2,10,-1
 239 -132 l 2,11,12
 228 -143 228 -143 214 -143 c 128,-1,13
 200 -143 200 -143 189 -132 c 2,14,-1
 46 11 l 2,15,16
 35 22 35 22 35.5 36 c 128,-1,17
 36 50 36 50 46.5 60.5 c 128,-1,18
 57 71 57 71 71 71 c 2,19,-1
 143 71 l 1,20,-1
 143 643 l 1,21,-1
 71 643 l 2,22,23
 56 643 56 643 46 653.5 c 128,-1,24
 36 664 36 664 36 678.5 c 128,-1,25
 36 693 36 693 46 704 c 2,26,-1
 189 847 l 2,27,28
 200 858 200 858 214.5 857.5 c 128,-1,29
 229 857 229 857 239 847 c 2,30,-1
 382 704 l 2,31,0
 393 693 393 693 393 678.5 c 128,-1,1
EndSplineSet
EndChar

StartChar: resize_horizontal
Encoding: 61566 61566 146
Width: 1000
Flags: W
LayerCount: 2
Fore
SplineSet
1000 357.5 m 128,-1,1
 1000 343 1000 343 989 332 c 2,2,-1
 847 189 l 2,3,4
 836 178 836 178 821.5 178.5 c 128,-1,5
 807 179 807 179 796.5 189.5 c 128,-1,6
 786 200 786 200 786 214 c 2,7,-1
 786 286 l 1,8,-1
 214 286 l 1,9,-1
 214 214 l 2,10,11
 214 199 214 199 203.5 189 c 128,-1,12
 193 179 193 179 178.5 179 c 128,-1,13
 164 179 164 179 153 189 c 2,14,-1
 11 332 l 2,15,16
 0 343 0 343 0 357.5 c 128,-1,17
 0 372 0 372 11 382 c 2,18,-1
 153 525 l 2,19,20
 164 536 164 536 178.5 536 c 128,-1,21
 193 536 193 536 203.5 525.5 c 128,-1,22
 214 515 214 515 214 500 c 2,23,-1
 214 429 l 1,24,-1
 786 429 l 1,25,-1
 786 500 l 2,26,27
 786 515 786 515 796.5 525.5 c 128,-1,28
 807 536 807 536 821.5 536 c 128,-1,29
 836 536 836 536 847 525 c 2,30,-1
 989 382 l 2,31,0
 1000 372 1000 372 1000 357.5 c 128,-1,1
EndSplineSet
EndChar

StartChar: bar_chart
Encoding: 61568 61568 147
Width: 1071
Flags: W
LayerCount: 2
Fore
SplineSet
286 286 m 1,0,-1
 286 71 l 1,1,-1
 143 71 l 1,2,-1
 143 286 l 1,3,-1
 286 286 l 1,0,-1
500 571 m 1,4,-1
 500 71 l 1,5,-1
 357 71 l 1,6,-1
 357 571 l 1,7,-1
 500 571 l 1,4,-1
714 429 m 1,8,-1
 714 71 l 1,9,-1
 571 71 l 1,10,-1
 571 429 l 1,11,-1
 714 429 l 1,8,-1
929 643 m 1,12,-1
 929 71 l 1,13,-1
 786 71 l 1,14,-1
 786 643 l 1,15,-1
 929 643 l 1,12,-1
1000 18 m 2,16,-1
 1000 696 l 2,17,18
 1000 703 1000 703 994.5 708.5 c 128,-1,19
 989 714 989 714 982 714 c 2,20,-1
 89 714 l 2,21,22
 82 714 82 714 76.5 709 c 128,-1,23
 71 704 71 704 71 696 c 2,24,-1
 71 18 l 2,25,26
 71 11 71 11 76.5 5.5 c 128,-1,27
 82 0 82 0 89 0 c 2,28,-1
 982 0 l 2,29,30
 989 0 989 0 994.5 5.5 c 128,-1,31
 1000 11 1000 11 1000 18 c 2,16,-1
1071 696 m 2,32,-1
 1071 18 l 2,33,34
 1071 -19 1071 -19 1045 -45 c 128,-1,35
 1019 -71 1019 -71 982 -71 c 2,36,-1
 89 -71 l 2,37,38
 52 -71 52 -71 26 -45 c 128,-1,39
 0 -19 0 -19 0 18 c 2,40,-1
 0 696 l 2,41,42
 0 733 0 733 26 759.5 c 128,-1,43
 52 786 52 786 89 786 c 2,44,-1
 982 786 l 2,45,46
 1019 786 1019 786 1045 759.5 c 128,-1,47
 1071 733 1071 733 1071 696 c 2,32,-1
EndSplineSet
EndChar

StartChar: twitter_sign
Encoding: 61569 61569 148
Width: 857
Flags: W
LayerCount: 2
Fore
SplineSet
714 517 m 1,0,1
 683 503 683 503 647 498 c 1,2,3
 685 520 685 520 699 563 c 1,4,5
 663 542 663 542 624 535 c 1,6,7
 590 572 590 572 539 571 c 0,8,9
 490 571 490 571 455.5 537 c 128,-1,10
 421 503 421 503 421 454 c 0,11,12
 421 438 421 438 424 427 c 1,13,14
 352 431 352 431 289 463.5 c 128,-1,15
 226 496 226 496 182 550 c 1,16,17
 166 522 166 522 166 491 c 0,18,19
 166 427 166 427 217 393 c 1,20,21
 191 394 191 394 161 408 c 1,22,-1
 161 407 l 2,23,24
 161 365 161 365 189 332.5 c 128,-1,25
 217 300 217 300 257 292 c 1,26,27
 241 288 241 288 229 287 c 0,28,29
 222 287 222 287 207 290 c 1,30,31
 219 255 219 255 248.5 232 c 128,-1,32
 278 209 278 209 316 208 c 1,33,34
 251 158 251 158 171 158 c 0,35,36
 156 158 156 158 143 160 c 1,37,38
 226 108 226 108 323 107 c 0,39,40
 385 107 385 107 439.5 127 c 128,-1,41
 494 147 494 147 533.5 180 c 128,-1,42
 573 213 573 213 601 256.5 c 128,-1,43
 629 300 629 300 642.5 347 c 128,-1,44
 656 394 656 394 656 441 c 0,45,46
 656 451 656 451 656 456 c 1,47,48
 691 481 691 481 714 517 c 1,0,1
857 625 m 2,49,-1
 857 89 l 2,50,51
 857 23 857 23 810 -24 c 128,-1,52
 763 -71 763 -71 696 -71 c 2,53,-1
 161 -71 l 2,54,55
 95 -71 95 -71 47.5 -24 c 128,-1,56
 0 23 0 23 0 89 c 2,57,-1
 0 625 l 2,58,59
 0 691 0 691 47 738.5 c 128,-1,60
 94 786 94 786 161 786 c 2,61,-1
 696 786 l 2,62,63
 762 786 762 786 809.5 738.5 c 128,-1,64
 857 691 857 691 857 625 c 2,49,-1
EndSplineSet
EndChar

StartChar: facebook_sign
Encoding: 61570 61570 149
Width: 857
Flags: W
LayerCount: 2
Fore
SplineSet
729 345 m 1,0,-1
 742 467 l 1,1,-1
 632 467 l 1,2,-1
 632 528 l 2,3,4
 632 555 632 555 640.5 566 c 128,-1,5
 649 577 649 577 680 577 c 2,6,-1
 742 577 l 1,7,-1
 742 699 l 1,8,-1
 644 699 l 2,9,10
 559 699 559 699 522 659 c 128,-1,11
 485 619 485 619 485 540 c 2,12,-1
 485 467 l 1,13,-1
 412 467 l 1,14,-1
 412 345 l 1,15,-1
 485 345 l 1,16,-1
 485 -9 l 1,17,-1
 632 -9 l 1,18,-1
 632 345 l 1,19,-1
 729 345 l 1,0,-1
857 625 m 2,20,-1
 857 89 l 2,21,22
 857 23 857 23 810 -24 c 128,-1,23
 763 -71 763 -71 696 -71 c 2,24,-1
 161 -71 l 2,25,26
 95 -71 95 -71 47.5 -24 c 128,-1,27
 0 23 0 23 0 89 c 2,28,-1
 0 625 l 2,29,30
 0 691 0 691 47 738.5 c 128,-1,31
 94 786 94 786 161 786 c 2,32,-1
 696 786 l 2,33,34
 762 786 762 786 809.5 738.5 c 128,-1,35
 857 691 857 691 857 625 c 2,20,-1
EndSplineSet
EndChar

StartChar: camera_retro
Encoding: 61571 61571 150
Width: 1000
Flags: W
LayerCount: 2
Fore
SplineSet
518 393 m 128,-1,1
 518 401 518 401 513 406 c 128,-1,2
 508 411 508 411 500 411 c 0,3,4
 463 411 463 411 437 384.5 c 128,-1,5
 411 358 411 358 411 321 c 0,6,7
 411 313 411 313 416 308.5 c 128,-1,8
 421 304 421 304 428.5 304 c 128,-1,9
 436 304 436 304 441 309 c 128,-1,10
 446 314 446 314 446 321 c 0,11,12
 446 343 446 343 462 359 c 128,-1,13
 478 375 478 375 500 375 c 0,14,15
 508 375 508 375 513 380 c 128,-1,0
 518 385 518 385 518 393 c 128,-1,1
643 320 m 128,-1,17
 643 261 643 261 601 219 c 128,-1,18
 559 177 559 177 500 177 c 128,-1,19
 441 177 441 177 399 219 c 128,-1,20
 357 261 357 261 357 320 c 128,-1,21
 357 379 357 379 399 421 c 128,-1,22
 441 463 441 463 500 463 c 128,-1,23
 559 463 559 463 601 421 c 128,-1,16
 643 379 643 379 643 320 c 128,-1,17
71 0 m 1,24,-1
 929 0 l 1,25,-1
 929 71 l 1,26,-1
 71 71 l 1,27,-1
 71 0 l 1,24,-1
714 320.5 m 128,-1,29
 714 409 714 409 651.5 472 c 128,-1,30
 589 535 589 535 500 535 c 128,-1,31
 411 535 411 535 348.5 472 c 128,-1,32
 286 409 286 409 286 320.5 c 128,-1,33
 286 232 286 232 348.5 169 c 128,-1,34
 411 106 411 106 500 106 c 128,-1,35
 589 106 589 106 651.5 169 c 128,-1,28
 714 232 714 232 714 320.5 c 128,-1,29
143 679 m 1,36,-1
 357 679 l 1,37,-1
 357 750 l 1,38,-1
 143 750 l 1,39,-1
 143 679 l 1,36,-1
71 571 m 1,40,-1
 929 571 l 1,41,-1
 929 637 l 1,42,-1
 929 714 l 1,43,-1
 467 714 l 1,44,-1
 431 643 l 1,45,-1
 71 643 l 1,46,-1
 71 571 l 1,40,-1
1000 714 m 2,47,-1
 1000 0 l 2,48,49
 1000 -30 1000 -30 979 -50.5 c 128,-1,50
 958 -71 958 -71 929 -71 c 2,51,-1
 71 -71 l 2,52,53
 41 -71 41 -71 20.5 -50.5 c 128,-1,54
 0 -30 0 -30 0 0 c 2,55,-1
 0 714 l 2,56,57
 0 744 0 744 21 765 c 128,-1,58
 42 786 42 786 71 786 c 2,59,-1
 929 786 l 2,60,61
 959 786 959 786 979.5 765 c 128,-1,62
 1000 744 1000 744 1000 714 c 2,47,-1
EndSplineSet
EndChar

StartChar: key
Encoding: 61572 61572 151
Width: 1000
Flags: W
LayerCount: 2
Fore
SplineSet
464 571.5 m 128,-1,1
 464 616 464 616 433 647.5 c 128,-1,2
 402 679 402 679 357 679 c 128,-1,3
 312 679 312 679 281 647.5 c 128,-1,4
 250 616 250 616 250 571 c 0,5,6
 250 548 250 548 261 525 c 1,7,8
 238 536 238 536 214 536 c 0,9,10
 169 536 169 536 138 504.5 c 128,-1,11
 107 473 107 473 107 428.5 c 128,-1,12
 107 384 107 384 138.5 352.5 c 128,-1,13
 170 321 170 321 214.5 321 c 128,-1,14
 259 321 259 321 290 352.5 c 128,-1,15
 321 384 321 384 321 429 c 0,16,17
 321 452 321 452 311 475 c 1,18,19
 334 464 334 464 357 464 c 0,20,21
 402 464 402 464 433 495.5 c 128,-1,0
 464 527 464 527 464 571.5 c 128,-1,1
939 179 m 0,22,23
 939 170 939 170 911.5 142 c 128,-1,24
 884 114 884 114 875 114 c 0,25,26
 870 114 870 114 859 123 c 128,-1,27
 848 132 848 132 838.5 141.5 c 128,-1,28
 829 151 829 151 817 164 c 128,-1,29
 805 177 805 177 804 179 c 1,30,-1
 750 125 l 1,31,-1
 873 2 l 2,32,33
 889 -14 889 -14 888 -36 c 1,34,35
 888 -59 888 -59 866.5 -81 c 128,-1,36
 845 -103 845 -103 821 -103 c 0,37,38
 799 -103 799 -103 783 -87 c 2,39,-1
 409 287 l 1,40,41
 311 214 311 214 205 214 c 0,42,43
 114 214 114 214 57 271.5 c 128,-1,44
 0 329 0 329 0 420 c 0,45,46
 0 509 0 509 53 594.5 c 128,-1,47
 106 680 106 680 191.5 733 c 128,-1,48
 277 786 277 786 366 786 c 0,49,50
 457 786 457 786 514 728.5 c 128,-1,51
 571 671 571 671 571 580 c 0,52,53
 571 475 571 475 498 377 c 1,54,-1
 696 179 l 1,55,-1
 750 232 l 1,56,57
 748 234 748 234 735.5 246 c 128,-1,58
 723 258 723 258 713.5 267.5 c 128,-1,59
 704 277 704 277 695 288 c 128,-1,60
 686 299 686 299 686 304 c 0,61,62
 686 313 686 313 713.5 340.5 c 128,-1,63
 741 368 741 368 750 368 c 0,64,65
 757 368 757 368 763 362 c 0,66,67
 766 359 766 359 788.5 337.5 c 128,-1,68
 811 316 811 316 834.5 293 c 128,-1,69
 858 270 858 270 882.5 245 c 128,-1,70
 907 220 907 220 923 201.5 c 128,-1,71
 939 183 939 183 939 179 c 0,22,23
EndSplineSet
EndChar

StartChar: cogs
Encoding: 61573 61573 152
Width: 1071
Flags: W
LayerCount: 2
Fore
SplineSet
500 357 m 128,-1,1
 500 416 500 416 458 458 c 128,-1,2
 416 500 416 500 357 500 c 128,-1,3
 298 500 298 500 256 458 c 128,-1,4
 214 416 214 416 214 357 c 128,-1,5
 214 298 214 298 256 256 c 128,-1,6
 298 214 298 214 357 214 c 128,-1,7
 416 214 416 214 458 256 c 128,-1,0
 500 298 500 298 500 357 c 128,-1,1
929 71 m 0,8,9
 929 100 929 100 907.5 121.5 c 128,-1,10
 886 143 886 143 857 143 c 128,-1,11
 828 143 828 143 807 121.5 c 128,-1,12
 786 100 786 100 786 71 c 0,13,14
 786 41 786 41 807 20.5 c 128,-1,15
 828 0 828 0 857.5 0 c 128,-1,16
 887 0 887 0 908 20.5 c 128,-1,17
 929 41 929 41 929 71 c 0,8,9
929 643 m 0,18,19
 929 672 929 672 907.5 693 c 128,-1,20
 886 714 886 714 857 714 c 128,-1,21
 828 714 828 714 807 693 c 128,-1,22
 786 672 786 672 786 643 c 0,23,24
 786 613 786 613 807 592 c 128,-1,25
 828 571 828 571 857.5 571 c 128,-1,26
 887 571 887 571 908 592 c 128,-1,27
 929 613 929 613 929 643 c 0,18,19
714 408 m 2,28,-1
 714 305 l 2,29,30
 714 299 714 299 710 294 c 128,-1,31
 706 289 706 289 701 288 c 2,32,-1
 615 275 l 1,33,34
 609 255 609 255 597 232 c 1,35,36
 616 205 616 205 647 168 c 0,37,38
 651 162 651 162 651 157 c 0,39,40
 651 150 651 150 647 146 c 0,41,42
 634 129 634 129 601 96 c 128,-1,43
 568 63 568 63 557 63 c 0,44,45
 551 63 551 63 546 67 c 2,46,-1
 482 117 l 1,47,48
 461 106 461 106 439 100 c 1,49,50
 433 40 433 40 426 13 c 0,51,52
 422 0 422 0 409 0 c 2,53,-1
 305 0 l 2,54,55
 299 0 299 0 294 4 c 128,-1,56
 289 8 289 8 289 14 c 2,57,-1
 276 99 l 1,58,59
 257 105 257 105 234 117 c 1,60,-1
 168 67 l 2,61,62
 164 63 164 63 157 63 c 0,63,64
 151 63 151 63 145 68 c 0,65,66
 65 142 65 142 65 157 c 0,67,68
 65 162 65 162 69 167 c 0,69,70
 75 175 75 175 92 197 c 128,-1,71
 109 219 109 219 118 231 c 1,72,73
 105 256 105 256 98 277 c 1,74,-1
 13 290 l 2,75,76
 7 291 7 291 3.5 295.5 c 128,-1,77
 0 300 0 300 0 306 c 2,78,-1
 0 410 l 2,79,80
 0 416 0 416 4 421 c 128,-1,81
 8 426 8 426 13 426 c 2,82,-1
 99 440 l 1,83,84
 105 460 105 460 117 482 c 1,85,86
 98 509 98 509 67 546 c 0,87,88
 63 552 63 552 63 557 c 0,89,90
 63 564 63 564 67 569 c 0,91,92
 79 586 79 586 112.5 618.5 c 128,-1,93
 146 651 146 651 157 651 c 0,94,95
 163 651 163 651 169 647 c 2,96,-1
 233 597 l 1,97,98
 252 607 252 607 276 615 c 1,99,100
 282 675 282 675 289 701 c 0,101,102
 293 714 293 714 305 714 c 2,103,-1
 409 714 l 2,104,105
 415 714 415 714 420 710 c 128,-1,106
 425 706 425 706 426 700 c 2,107,-1
 439 615 l 1,108,109
 458 609 458 609 480 598 c 1,110,-1
 546 647 l 2,111,112
 550 651 550 651 557 651 c 0,113,114
 563 651 563 651 569 647 c 1,115,116
 649 573 649 573 650 557 c 0,117,118
 650 552 650 552 646 547 c 0,119,120
 639 538 639 538 622 517 c 128,-1,121
 605 496 605 496 597 483 c 1,122,123
 610 456 610 456 616 438 c 1,124,-1
 701 425 l 2,125,126
 707 424 707 424 710.5 419 c 128,-1,127
 714 414 714 414 714 408 c 2,28,-1
1071 110 m 2,128,-1
 1071 32 l 2,129,130
 1071 23 1071 23 988 15 c 1,131,132
 981 0 981 0 972 -14 c 1,133,134
 1000 -77 1000 -77 1000 -91 c 0,135,136
 1000 -93 1000 -93 998 -95 c 0,137,138
 930 -135 930 -135 929 -134 c 1,139,140
 925 -134 925 -134 903.5 -108 c 128,-1,141
 882 -82 882 -82 874 -70 c 1,142,143
 863 -71 863 -71 857.5 -71 c 128,-1,144
 852 -71 852 -71 840 -70 c 1,145,146
 832 -82 832 -82 811 -108 c 128,-1,147
 790 -134 790 -134 786 -134 c 0,148,149
 785 -134 785 -134 717 -95 c 0,150,151
 715 -93 715 -93 714 -91 c 1,152,153
 714 -77 714 -77 743 -14 c 1,154,155
 733 0 733 0 726 15 c 1,156,157
 643 23 643 23 643 32 c 2,158,-1
 643 110 l 2,159,160
 643 119 643 119 726 128 c 1,161,162
 733 144 733 144 743 157 c 1,163,164
 715 220 715 220 714 234 c 0,165,166
 714 236 714 236 717 238 c 0,167,168
 719 239 719 239 736 249 c 128,-1,169
 753 259 753 259 769 268 c 128,-1,170
 785 277 785 277 786 277 c 0,171,172
 790 277 790 277 811.5 251 c 128,-1,173
 833 225 833 225 840 213 c 1,174,175
 851 214 851 214 857 214 c 128,-1,176
 863 214 863 214 874 213 c 1,177,178
 902 253 902 253 925 276 c 1,179,-1
 929 277 l 2,180,181
 931 277 931 277 998 238 c 0,182,183
 1000 236 1000 236 1000 234 c 0,184,185
 1000 220 1000 220 972 157 c 1,186,187
 981 144 981 144 988 128 c 1,188,189
 1071 119 1071 119 1071 110 c 2,128,-1
1071 682 m 2,190,-1
 1071 604 l 2,191,192
 1071 595 1071 595 988 586 c 1,193,194
 981 571 981 571 972 557 c 1,195,196
 1000 494 1000 494 1000 480 c 0,197,198
 1000 478 1000 478 998 477 c 0,199,200
 930 437 930 437 929 437 c 0,201,202
 925 437 925 437 903.5 463 c 128,-1,203
 882 489 882 489 874 501 c 1,204,205
 863 500 863 500 857.5 500 c 128,-1,206
 852 500 852 500 840 501 c 1,207,208
 832 489 832 489 811 463 c 128,-1,209
 790 437 790 437 786 437 c 0,210,211
 785 437 785 437 717 477 c 0,212,213
 715 479 715 479 714 480 c 1,214,215
 714 494 714 494 743 557 c 1,216,217
 733 571 733 571 726 586 c 1,218,219
 643 594 643 594 643 604 c 2,220,-1
 643 682 l 2,221,222
 643 691 643 691 726 699 c 1,223,224
 733 715 733 715 743 728 c 1,225,226
 715 791 715 791 714 805 c 0,227,228
 714 807 714 807 717 809 c 0,229,230
 719 810 719 810 736 820 c 128,-1,231
 753 830 753 830 769 839 c 128,-1,232
 785 848 785 848 786 848 c 0,233,234
 790 848 790 848 811.5 822 c 128,-1,235
 833 796 833 796 840 785 c 1,236,237
 851 786 851 786 857 786 c 128,-1,238
 863 786 863 786 874 785 c 1,239,240
 902 825 902 825 925 847 c 1,241,-1
 929 848 l 2,242,243
 931 848 931 848 998 809 c 0,244,245
 1000 807 1000 807 1000 805 c 0,246,247
 1000 791 1000 791 972 728 c 1,248,249
 981 715 981 715 988 699 c 1,250,251
 1071 691 1071 691 1071 682 c 2,190,-1
EndSplineSet
EndChar

StartChar: comments
Encoding: 61574 61574 153
Width: 1000
Flags: W
LayerCount: 2
Fore
SplineSet
786 428.5 m 128,-1,1
 786 351 786 351 733.5 285 c 128,-1,2
 681 219 681 219 590 181 c 128,-1,3
 499 143 499 143 393 143 c 0,4,5
 345 143 345 143 295 152 c 1,6,7
 226 103 226 103 140 80 c 0,8,9
 120 75 120 75 92 71 c 1,10,-1
 90 71 l 2,11,12
 84 71 84 71 78.5 75.5 c 128,-1,13
 73 80 73 80 72 88 c 0,14,15
 71 90 71 90 71 91.5 c 128,-1,16
 71 93 71 93 71.5 95 c 128,-1,17
 72 97 72 97 73 98.5 c 128,-1,18
 74 100 74 100 74.5 101 c 128,-1,19
 75 102 75 102 76.5 104 c 128,-1,20
 78 106 78 106 78.5 107 c 128,-1,21
 79 108 79 108 81 110 c 2,22,-1
 83 112 l 2,23,24
 86 115 86 115 96 126 c 128,-1,25
 106 137 106 137 110.5 142.5 c 128,-1,26
 115 148 115 148 123 158.5 c 128,-1,27
 131 169 131 169 137 180 c 128,-1,28
 143 191 143 191 148 205 c 1,29,30
 79 245 79 245 39.5 303.5 c 128,-1,31
 0 362 0 362 0 429 c 0,32,33
 0 507 0 507 52.5 572.5 c 128,-1,34
 105 638 105 638 195.5 676 c 128,-1,35
 286 714 286 714 392.5 714 c 128,-1,36
 499 714 499 714 590 676 c 128,-1,37
 681 638 681 638 733.5 572 c 128,-1,0
 786 506 786 506 786 428.5 c 128,-1,1
1000 286 m 0,38,39
 1000 219 1000 219 960.5 160.5 c 128,-1,40
 921 102 921 102 852 62 c 1,41,42
 858 49 858 49 863.5 37.5 c 128,-1,43
 869 26 869 26 877 16 c 128,-1,44
 885 6 885 6 889.5 0 c 128,-1,45
 894 -6 894 -6 904 -16.5 c 128,-1,46
 914 -27 914 -27 917 -31 c 0,47,48
 918 -32 918 -32 919.5 -33.5 c 128,-1,49
 921 -35 921 -35 921.5 -36 c 128,-1,50
 922 -37 922 -37 923.5 -39 c 128,-1,51
 925 -41 925 -41 925.5 -42 c 128,-1,52
 926 -43 926 -43 927 -44.5 c 128,-1,53
 928 -46 928 -46 928.5 -48 c 128,-1,54
 929 -50 929 -50 929 -52 c 128,-1,55
 929 -54 929 -54 928 -55 c 0,56,57
 926 -63 926 -63 920.5 -67.5 c 128,-1,58
 915 -72 915 -72 908 -71 c 0,59,60
 880 -66 880 -66 860 -62 c 1,61,62
 774 -40 774 -40 705 9 c 1,63,64
 655 0 655 0 607 0 c 0,65,66
 456 0 456 0 344 74 c 1,67,68
 376 72 376 72 393 71 c 1,69,70
 483 71 483 71 565.5 96.5 c 128,-1,71
 648 122 648 122 713 169 c 0,72,73
 783 220 783 220 820 287 c 128,-1,74
 857 354 857 354 857 429 c 0,75,76
 857 472 857 472 844 513 c 1,77,78
 916 473 916 473 958 414 c 128,-1,79
 1000 355 1000 355 1000 286 c 0,38,39
EndSplineSet
EndChar

StartChar: thumbs_up_alt
Encoding: 61575 61575 154
Width: 857
Flags: W
LayerCount: 2
Fore
SplineSet
143 107.5 m 128,-1,1
 143 122 143 122 132.5 132.5 c 128,-1,2
 122 143 122 143 107.5 143 c 128,-1,3
 93 143 93 143 82 132.5 c 128,-1,4
 71 122 71 122 71 107.5 c 128,-1,5
 71 93 71 93 82 82 c 128,-1,6
 93 71 93 71 107.5 71 c 128,-1,7
 122 71 122 71 132.5 82 c 128,-1,0
 143 93 143 93 143 107.5 c 128,-1,1
786 429 m 0,8,9
 786 457 786 457 764 478.5 c 128,-1,10
 742 500 742 500 714 500 c 2,11,-1
 518 500 l 1,12,13
 518 532 518 532 544.5 589 c 128,-1,14
 571 646 571 646 571 679 c 0,15,16
 571 734 571 734 553.5 760 c 128,-1,17
 536 786 536 786 482 786 c 1,18,19
 467 771 467 771 460.5 738 c 128,-1,20
 454 705 454 705 444 668 c 128,-1,21
 434 631 434 631 411 607 c 0,22,23
 399 594 399 594 368 556 c 0,24,25
 366 553 366 553 355 539.5 c 128,-1,26
 344 526 344 526 337 517 c 128,-1,27
 330 508 330 508 318 493 c 128,-1,28
 306 478 306 478 296 468.5 c 128,-1,29
 286 459 286 459 274.5 449 c 128,-1,30
 263 439 263 439 252 434 c 128,-1,31
 241 429 241 429 232 429 c 2,32,-1
 214 429 l 1,33,-1
 214 71 l 1,34,-1
 232 71 l 2,35,36
 239 71 239 71 249.5 69.5 c 128,-1,37
 260 68 260 68 268 66 c 128,-1,38
 276 64 276 64 289 60 c 128,-1,39
 302 56 302 56 308.5 53.5 c 128,-1,40
 315 51 315 51 328.5 46.5 c 128,-1,41
 342 42 342 42 345 41 c 0,42,43
 463 0 463 0 536 0 c 2,44,-1
 603 0 l 2,45,46
 710 0 710 0 710 93 c 0,47,48
 710 108 710 108 708 124 c 1,49,50
 725 133 725 133 734.5 153.5 c 128,-1,51
 744 174 744 174 744 194.5 c 128,-1,52
 744 215 744 215 734 233 c 1,53,54
 764 261 764 261 763 300 c 0,55,56
 763 314 763 314 757.5 331 c 128,-1,57
 752 348 752 348 744 357 c 1,58,59
 762 358 762 358 774 383.5 c 128,-1,60
 786 409 786 409 786 429 c 0,8,9
857 429 m 0,61,62
 857 379 857 379 830 338 c 1,63,64
 835 320 835 320 835 300 c 0,65,66
 835 257 835 257 814 219 c 1,67,68
 816 207 816 207 815 195 c 1,69,70
 815 139 815 139 782 96 c 1,71,72
 783 18 783 18 734.5 -26.5 c 128,-1,73
 686 -71 686 -71 608 -71 c 2,74,-1
 588 -71 l 1,75,-1
 536 -71 l 2,76,77
 482 -71 482 -71 430 -58.5 c 128,-1,78
 378 -46 378 -46 309 -22 c 0,79,80
 244 0 244 0 232 0 c 2,81,-1
 71 0 l 2,82,83
 41 0 41 0 20.5 21 c 128,-1,84
 0 42 0 42 0 71 c 2,85,-1
 0 429 l 2,86,87
 0 459 0 459 21 479.5 c 128,-1,88
 42 500 42 500 71 500 c 2,89,-1
 224 500 l 1,90,91
 244 513 244 513 301 586 c 0,92,93
 333 628 333 628 360 658 c 0,94,95
 373 672 373 672 380 705.5 c 128,-1,96
 387 739 387 739 397.5 776 c 128,-1,97
 408 813 408 813 432 836 c 0,98,99
 454 857 454 857 482 857 c 0,100,101
 529 857 529 857 566.5 839 c 128,-1,102
 604 821 604 821 623.5 782.5 c 128,-1,103
 643 744 643 744 643 679 c 0,104,105
 643 627 643 627 616 571 c 1,106,-1
 714 571 l 2,107,108
 772 571 772 571 814.5 528.5 c 128,-1,109
 857 486 857 486 857 429 c 0,61,62
EndSplineSet
EndChar

